<?xml version="1.0" encoding="UTF-8"?>
<svg width="1024" height="1024" viewBox="0 0 1024 1024" xmlns="http://www.w3.org/2000/svg">
  <path id="29" d="M 0,512 C 0,512 0,0 0,0 C 0,0 512,0 512,0 C 512,0 1024,0 1024,0 C 1024,0 1024,512 1024,512 C 1024,512 1024,1024 1024,1024 C 1024,1024 512,1024 512,1024 C 512,1024 0,1024 0,1024 C 0,1024 0,512 0,512M 489.069,744.407 C 502.033,740.604 514.274,730.433 524.651,714.846 C 531.696,704.263 539.024,687.689 541.079,677.687 C 541.079,677.687 542.350,671.500 542.350,671.500 C 542.350,671.500 600.925,642.303 600.925,642.303 C 633.141,626.245 684.689,600.234 715.476,584.503 C 715.476,584.503 771.452,555.901 771.452,555.901 C 771.452,555.901 773.448,558.700 773.448,558.700 C 779.019,566.513 785.011,569.822 800.295,573.525 C 814.397,576.941 821.770,576.818 829.780,573.028 C 836.548,569.826 845.069,562.398 850.569,554.906 C 859.315,542.991 866.631,523.108 867.695,508.358 C 867.695,508.358 868.282,500.215 868.282,500.215 C 868.282,500.215 884.066,490.020 884.066,490.020 C 892.747,484.412 900.545,479.055 901.396,478.115 C 902.247,477.175 904.554,472.917 906.525,468.652 C 908.709,463.926 911.583,459.564 913.885,457.485 C 918.478,453.336 919.567,449.936 921.134,434.871 C 922.091,425.666 922.085,422.619 921.104,420.251 C 919.908,417.363 916.464,415 913.453,415 C 912.288,415 911.999,413.169 911.993,405.750 C 911.989,399.969 911.236,393.370 909.985,388.153 C 905.611,369.909 891.150,338.163 886,335.500 C 882.378,333.627 853.973,326.007 811.500,315.515 C 748.862,300.041 707.087,291.473 689.500,290.493 C 682.900,290.125 669.400,288.316 659.500,286.473 C 619.869,279.095 591.480,276.558 574.952,278.917 C 540.595,283.821 451.656,311.473 428.611,324.415 C 412.271,333.591 373.890,363.882 349.355,386.965 C 349.355,386.965 342.211,393.686 342.211,393.686 C 342.211,393.686 332.855,389.217 332.855,389.217 C 321.894,383.981 317.125,383.034 313.542,385.381 C 309.991,387.708 308.315,391.516 307.504,399.105 C 306.663,406.967 308.020,410.393 313.430,414.078 C 315.386,415.410 316.989,416.746 316.993,417.047 C 317.015,418.848 308.091,425.469 299.500,430.025 C 235.159,464.146 164.528,509.326 137.302,533.779 C 128.751,541.459 125.710,545.793 122.928,554.268 C 121.110,559.807 120.283,560.942 116.178,563.531 C 108.978,568.071 104.202,572.806 103.473,576.125 C 103.109,577.783 103.305,581.921 103.909,585.320 C 104.513,588.719 105.730,598.475 106.612,607 C 107.494,615.525 108.819,623.963 109.557,625.751 C 111.314,630.009 114.834,633.176 122.693,637.571 C 129.182,641.200 129.899,642.141 131.912,649.659 C 133.305,654.862 134.070,655.333 162.500,668.509 C 179.607,676.438 184.567,679.155 184.803,680.728 C 184.970,681.841 186.095,683.673 187.303,684.799 C 189.478,686.826 245.544,710 248.273,710 C 249.052,710 250.456,709.155 251.391,708.121 C 253.046,706.293 253.395,706.362 264.296,710.677 C 282.236,717.779 317.696,730.499 327.763,733.445 C 347.727,739.287 351.987,739.014 396.370,729.062 C 396.370,729.062 426.500,722.306 426.500,722.306 C 426.500,722.306 429.840,726.167 429.840,726.167 C 436.562,733.938 445.664,738.514 463.490,743.086 C 476.218,746.350 481.514,746.623 489.069,744.407" stroke="#FFFFFF" fill="#FFFFFF" stroke-width="1" />
  <path id="28" d="M 463.490,743.086 C 445.664,738.514 436.562,733.938 429.840,726.167 C 429.840,726.167 426.500,722.306 426.500,722.306 C 426.500,722.306 396.370,729.062 396.370,729.062 C 351.987,739.014 347.727,739.287 327.763,733.445 C 317.696,730.499 282.236,717.779 264.296,710.677 C 253.395,706.362 253.046,706.293 251.391,708.121 C 250.456,709.155 249.052,710 248.273,710 C 245.544,710 189.478,686.826 187.303,684.799 C 186.095,683.673 184.970,681.841 184.803,680.728 C 184.567,679.155 179.607,676.438 162.500,668.509 C 134.070,655.333 133.305,654.862 131.912,649.659 C 129.899,642.141 129.182,641.200 122.693,637.571 C 114.834,633.176 111.314,630.009 109.557,625.751 C 108.819,623.963 107.494,615.525 106.612,607 C 105.730,598.475 104.513,588.719 103.909,585.320 C 103.305,581.921 103.109,577.783 103.473,576.125 C 104.202,572.806 108.978,568.071 116.178,563.531 C 120.283,560.942 121.110,559.807 122.928,554.268 C 125.710,545.793 128.751,541.459 137.302,533.779 C 164.528,509.326 235.159,464.146 299.500,430.025 C 308.091,425.469 317.015,418.848 316.993,417.047 C 316.989,416.746 315.386,415.410 313.430,414.078 C 308.020,410.393 306.663,406.967 307.504,399.105 C 308.315,391.516 309.991,387.708 313.542,385.381 C 317.125,383.034 321.894,383.981 332.855,389.217 C 332.855,389.217 342.211,393.686 342.211,393.686 C 342.211,393.686 349.355,386.965 349.355,386.965 C 373.890,363.882 412.271,333.591 428.611,324.415 C 451.656,311.473 540.595,283.821 574.952,278.917 C 591.480,276.558 619.869,279.095 659.500,286.473 C 669.400,288.316 682.900,290.125 689.500,290.493 C 707.087,291.473 748.862,300.041 811.500,315.515 C 853.973,326.007 882.378,333.627 886,335.500 C 891.150,338.163 905.611,369.909 909.985,388.153 C 911.236,393.370 911.989,399.969 911.993,405.750 C 911.999,413.169 912.288,415 913.453,415 C 916.464,415 919.908,417.363 921.104,420.251 C 922.085,422.619 922.091,425.666 921.134,434.871 C 919.567,449.936 918.478,453.336 913.885,457.485 C 911.583,459.564 908.709,463.926 906.525,468.652 C 904.554,472.917 902.247,477.175 901.396,478.115 C 900.545,479.055 892.747,484.412 884.066,490.020 C 884.066,490.020 868.282,500.215 868.282,500.215 C 868.282,500.215 867.695,508.358 867.695,508.358 C 866.631,523.108 859.315,542.991 850.569,554.906 C 845.069,562.398 836.548,569.826 829.780,573.028 C 821.770,576.818 814.397,576.941 800.295,573.525 C 785.011,569.822 779.019,566.513 773.448,558.700 C 773.448,558.700 771.452,555.901 771.452,555.901 C 771.452,555.901 715.476,584.503 715.476,584.503 C 684.689,600.234 633.141,626.245 600.925,642.303 C 600.925,642.303 542.350,671.500 542.350,671.500 C 542.350,671.500 541.079,677.687 541.079,677.687 C 539.024,687.689 531.696,704.263 524.651,714.846 C 514.274,730.433 502.033,740.604 489.069,744.407 C 481.514,746.623 476.218,746.350 463.490,743.086M 497.719,718.389 C 508.176,713.368 519.334,697.362 524.171,680.443 C 527.186,669.898 527.434,651.272 524.668,643.061 C 516.323,618.288 493.565,618.840 476.730,644.224 C 468.708,656.320 464.667,670.053 464.587,685.500 C 464.486,704.968 470.085,716.327 481.921,720.666 C 486.363,722.295 490.968,721.631 497.719,718.389M 246.419,700.250 C 246.086,698.188 244.833,690.875 243.634,684 C 243.634,684 241.455,671.500 241.455,671.500 C 241.455,671.500 213.735,660.334 213.735,660.334 C 198.489,654.193 185.803,649.511 185.544,649.929 C 184.881,651.002 189.935,680.317 190.962,681.354 C 191.965,682.367 243.929,703.740 245.762,703.894 C 246.669,703.970 246.854,702.946 246.419,700.250M 355.500,691.955 C 363.012,690.876 376.669,687.440 378.883,686.072 C 380.117,685.310 382.225,672.419 381.371,670.862 C 381.179,670.511 376.995,671.486 372.075,673.029 C 356.876,677.794 349.470,678.578 338.911,676.537 C 333.942,675.577 329.701,674.966 329.488,675.179 C 329.275,675.392 328.794,678.553 328.420,682.204 C 328.420,682.204 327.740,688.842 327.740,688.842 C 327.740,688.842 331.620,689.966 331.620,689.966 C 341.799,692.916 346.235,693.285 355.500,691.955M 325.506,680.941 C 325.896,677.058 326.054,673.724 325.857,673.531 C 324.818,672.514 291.716,660.950 291.231,661.435 C 290.916,661.750 290.623,664.980 290.579,668.612 C 290.579,668.612 290.500,675.216 290.500,675.216 C 290.500,675.216 307,681.508 307,681.508 C 316.075,684.969 323.791,687.846 324.148,687.901 C 324.505,687.956 325.116,684.824 325.506,680.941M 363.500,670.340 C 379.399,666.435 403.664,658.643 444.216,644.420 C 444.216,644.420 454.931,640.662 454.931,640.662 C 454.931,640.662 459.537,633.736 459.537,633.736 C 462.070,629.927 463.998,626.686 463.821,626.536 C 463.237,626.040 450.575,628.182 446.500,629.466 C 444.300,630.159 429.834,635.508 414.352,641.354 C 384.199,652.739 366.190,658 357.370,658 C 351.444,658 350.720,657.806 323,648.777 C 299.127,641.001 295.311,639.372 294.627,636.664 C 294.185,634.914 291.439,633.562 280.290,629.607 C 258.014,621.704 219.119,606.779 193.377,596.256 C 172.942,587.903 169.046,586.612 166.733,587.425 C 163.547,588.545 160.112,587.273 137.858,576.733 C 128.757,572.423 122.881,569.048 122.331,567.816 C 121.501,565.955 121.066,566.113 115.247,570.397 C 111.316,573.291 108.804,575.933 108.381,577.618 C 107.253,582.114 105.383,581.168 162.500,604.962 C 226.298,631.539 322.786,667.725 339.592,671.376 C 347.085,673.004 353.844,672.711 363.500,670.340M 383.500,647.138 C 383.500,647.138 397.500,642.500 397.500,642.500 C 397.500,642.500 397.797,635.700 397.797,635.700 C 397.797,635.700 398.094,628.900 398.094,628.900 C 398.094,628.900 394.868,630.568 394.868,630.568 C 389.406,633.393 371.736,639.731 367.255,640.472 C 364.920,640.858 362.810,641.498 362.565,641.894 C 362.320,642.290 361.803,645.002 361.416,647.920 C 361.416,647.920 360.713,653.224 360.713,653.224 C 360.713,653.224 365.106,652.501 365.106,652.501 C 367.523,652.103 375.800,649.689 383.500,647.138M 231.343,646.274 C 231.676,644.225 231.622,642.229 231.224,641.839 C 230.587,641.216 200.266,629 199.355,629 C 199.160,629 199,630.991 199,633.426 C 199,633.426 199,637.853 199,637.853 C 199,637.853 214.250,643.871 214.250,643.871 C 222.637,647.181 229.778,649.913 230.119,649.944 C 230.460,649.975 231.010,648.323 231.343,646.274M 372.506,635.192 C 378.560,632.935 386.834,629.718 390.894,628.044 C 401.810,623.543 402,623.610 402,632 C 402,636.417 402.405,639 403.098,639 C 403.702,639 413.167,635.625 424.131,631.500 C 435.095,627.375 444.613,623.984 445.283,623.965 C 445.953,623.946 448.975,620.049 452,615.305 C 458.514,605.090 470.377,592.831 478.283,588.145 C 497.642,576.671 517.246,575.887 532.585,585.973 C 532.585,585.973 538.373,589.779 538.373,589.779 C 538.373,589.779 545.437,586.504 545.437,586.504 C 566.785,576.606 572.531,573.768 572.815,572.982 C 572.988,572.504 573.710,572.336 574.420,572.608 C 575.130,572.880 577.238,572.214 579.105,571.126 C 580.972,570.038 611.300,555.434 646.500,538.672 C 707.406,509.669 784.067,472.972 794.229,467.956 C 798.025,466.082 799.702,464.349 802.729,459.167 C 807.387,451.194 817.400,440.236 823.753,436.159 C 833.330,430.013 844.491,428.871 853.426,433.121 C 853.426,433.121 857.351,434.988 857.351,434.988 C 857.351,434.988 864.926,430.859 864.926,430.859 C 906.767,408.049 907,407.904 901.422,403.608 C 899.802,402.987 899.488,398.435 904.899,400.083 C 907.907,398.178 902.269,374.088 898.992,374.845 C 894.801,375.814 894,375.787 898,369.369 C 898,368.481 895.123,361.771 891.606,354.458 C 886.655,344.162 884.567,340.832 882.356,339.700 C 874.057,335.453 735.647,302.031 716,299.529 C 706.255,298.288 756.858,314.024 775.500,318.031 C 801.337,323.585 831.236,330.983 850.500,336.586 C 859.300,339.146 868.193,341.730 870.263,342.330 C 872.333,342.930 873.859,343.888 873.654,344.460 C 873.066,346.103 867.766,345.258 849,340.527 C 827.072,334.999 792.795,327.179 770.185,322.547 C 760.662,320.596 752.112,318.604 751.185,318.119 C 745.707,315.252 709.439,304.382 684,297.984 C 645.959,288.416 599.169,281.793 581.500,283.475 C 559.007,285.617 496.333,303.294 455.535,319.002 C 435.406,326.752 430.722,328.940 422.618,334.380 C 418.833,336.921 415.542,339 415.305,339 C 414.218,339 381,364.377 381,365.207 C 381,367.109 384.157,365.348 391.734,359.217 C 405.216,348.309 423.342,335.053 427.667,332.939 C 432.553,330.550 429.994,330.044 468.500,341.034 C 504.680,351.361 522.670,356.150 566.358,367.086 C 608.565,377.652 613,379.012 613,381.399 C 613,384.869 591.678,439.026 579.578,466.287 C 567.480,493.545 563.314,501.762 560.954,503.025 C 558.470,504.354 552.913,504.005 535,501.399 C 487.288,494.456 402.852,471.331 352,451.278 C 332.613,443.633 326.671,440.742 317.637,434.557 C 317.637,434.557 310.952,429.980 310.952,429.980 C 310.952,429.980 298.726,436.625 298.726,436.625 C 248.710,463.810 194.127,497.224 165,518.488 C 160.325,521.901 155.712,524.973 151.673,529.428 C 150.924,529.141 146.321,532.706 141.119,537.603 C 131.446,546.709 127.060,553.051 129.280,554.723 C 129.951,555.228 138.150,558.919 147.500,562.924 C 156.850,566.929 166.075,571.262 168,572.552 C 174.099,576.641 286.263,619.483 295.789,621.362 C 296.730,621.548 298.175,621.930 299,622.213 C 299.825,622.496 311.750,626.416 325.500,630.924 C 339.250,635.432 351.143,639.460 351.929,639.875 C 354.206,641.076 360.671,639.605 372.506,635.192M 146,610.229 C 146,610.229 146,603.458 146,603.458 C 146,603.458 132,597.607 132,597.607 C 120.493,592.797 117.733,591.977 116.500,593 C 115.253,594.035 115,593.914 115,592.283 C 115,590.629 111.510,588 109.314,588 C 108.988,588 108.975,590.794 109.285,594.208 C 109.897,600.960 111.647,603.284 115.580,602.571 C 117.090,602.297 117.959,602.734 118.270,603.924 C 118.567,605.061 123.276,607.647 131.615,611.251 C 138.702,614.314 144.837,616.861 145.250,616.910 C 145.663,616.959 146,613.953 146,610.229M 564.250,598.991 C 569.062,596.659 573,594.371 577.263,593.224 C 577.943,592.674 588.019,587.688 599.653,582.146 C 611.287,576.604 640.537,562.549 664.653,550.913 C 688.769,539.277 722,523.253 738.500,515.303 C 755,507.353 768.651,500.430 768.835,499.918 C 769.020,499.406 769.530,499.210 769.969,499.481 C 770.408,499.752 774.816,497.989 779.764,495.563 C 788.332,491.362 788.834,490.934 790.313,486.593 C 791.167,484.086 791.515,481.818 791.086,481.553 C 790.312,481.075 778.620,486.571 687,530.488 C 660.875,543.011 625.325,559.976 608,568.189 C 590.675,576.402 576.050,583.674 575.500,584.350 C 574.950,585.026 573.600,585.644 572.500,585.724 C 570.462,585.872 545,597.653 545,598.449 C 545,598.689 545.939,600.476 547.086,602.420 C 549.486,606.488 548.281,606.729 564.250,598.991M 830.505,553.137 C 835.933,550.671 844.281,541.292 848.018,533.461 C 857.461,513.674 857.314,487.463 847.701,477.167 C 840.255,469.192 829.921,470.732 820.491,481.221 C 811.160,491.600 805.694,507.286 805.586,524 C 805.507,536.196 807.392,543.100 812.342,548.737 C 817.796,554.949 823.484,556.327 830.505,553.137M 559.691,494.492 C 567.734,480.192 607.262,384.929 605.771,383.438 C 605.489,383.156 584.163,377.585 558.379,371.057 C 514.371,359.915 481.909,351.119 446.297,340.688 C 446.297,340.688 431.094,336.234 431.094,336.234 C 431.094,336.234 420.525,343.597 420.525,343.597 C 389.256,365.381 362.370,387.223 322.643,423.114 C 322.643,423.114 317.536,427.728 317.536,427.728 C 317.536,427.728 323.352,431.448 323.352,431.448 C 355.629,452.096 480.721,488.759 551.500,498.315 C 556.560,498.998 557.368,498.621 559.691,494.492M 890.282,443.879 C 919.232,428.706 917,430.201 917,425.984 C 917,424.013 916.460,421.860 915.800,421.200 C 913.906,419.306 910.297,419.795 907.795,422.285 C 905.359,424.710 877.742,440.472 869.763,443.992 C 863.733,446.652 862.265,449.118 864.710,452.478 C 865.694,453.831 867.077,454.952 867.782,454.969 C 868.487,454.986 878.612,449.995 890.282,443.879M 335.395,400.110 C 338.562,396.804 338.917,397.164 327.911,392.522 C 318.714,388.643 316.805,388.326 315.089,390.393 C 314.149,391.526 315.419,392.644 321.900,396.382 C 326.282,398.910 330.149,401.433 330.493,401.989 C 331.474,403.577 332.421,403.214 335.395,400.110" stroke="#000000" fill="#000000" stroke-width="1" />
  <path id="29" d="M 575.398,591.595 C 575.102,590.822 575.004,588.720 575.180,586.923 C 575.495,583.713 575.882,583.474 597,573.465 C 621.141,562.024 721.446,514.036 750.362,500.094 C 760.736,495.092 769.399,491 769.612,491 C 770.317,491 769.984,498.477 769.225,499.670 C 768.816,500.313 754.986,507.347 738.491,515.299 C 721.996,523.251 689.150,539.094 665.500,550.506 C 609.042,577.748 577.079,593 576.448,593 C 576.167,593 575.695,592.368 575.398,591.595" stroke="#FFFFFF" fill="#FFFFFF" stroke-width="1" />
  <path id="29" d="M 324.500,630.715 C 311.300,626.241 300.334,622.471 300.130,622.337 C 299.926,622.203 300.041,620.970 300.386,619.597 C 301.127,616.646 309.359,607.548 319.110,598.903 C 319.110,598.903 326.081,592.722 326.081,592.722 C 326.081,592.722 347.791,600.516 347.791,600.516 C 359.731,604.803 371.269,609.058 373.431,609.972 C 373.431,609.972 377.363,611.634 377.363,611.634 C 377.363,611.634 369.424,617.677 369.424,617.677 C 359.859,624.958 354.660,630.531 352.905,635.385 C 352.140,637.500 350.955,638.969 350.049,638.925 C 349.197,638.884 337.700,635.189 324.500,630.715" stroke="#FFFFFF" fill="#FFFFFF" stroke-width="1" />
  <path id="29" d="M 836.116,503.265 C 835.023,499.875 835.194,498.707 837.833,491.539 C 839.445,487.161 841.253,483.415 841.852,483.216 C 844.218,482.427 847.976,490.997 849.487,500.626 C 849.487,500.626 850.134,504.753 850.134,504.753 C 850.134,504.753 845.317,505.433 845.317,505.433 C 842.668,505.807 839.787,506.320 838.915,506.572 C 837.791,506.897 836.977,505.936 836.116,503.265" stroke="#FFFFFF" fill="#FFFFFF" stroke-width="1" />
  <path id="29" d="M 575.373,568.884 C 576.232,564.591 574.321,531.639 572.525,519.761 C 571.050,510.006 568.332,502.845 565.505,501.263 C 564.246,500.559 565.253,497.692 571.578,483.963 C 587.555,449.284 613,386.279 613,381.399 C 613,379.012 608.565,377.652 566.358,367.086 C 521.418,355.836 504.586,351.336 464.500,339.853 C 449.100,335.442 434.867,331.766 432.870,331.686 C 429.199,331.538 424.340,334.366 406.500,347.036 C 403.200,349.380 401.175,350.585 402,349.714 C 405.673,345.837 426.195,331.708 432.994,328.375 C 464.364,312.997 553.049,286.184 581.500,283.475 C 599.169,281.793 645.959,288.416 684,297.984 C 709.439,304.382 745.707,315.252 751.185,318.119 C 752.112,318.604 760.662,320.596 770.185,322.547 C 792.795,327.179 827.072,334.999 849,340.527 C 867.766,345.258 873.066,346.103 873.654,344.460 C 873.859,343.888 872.333,342.930 870.263,342.330 C 868.193,341.730 859.300,339.146 850.500,336.586 C 831.236,330.983 801.337,323.585 775.500,318.031 C 756.858,314.024 706.255,298.288 716,299.529 C 735.647,302.031 874.057,335.453 882.356,339.700 C 884.567,340.832 886.655,344.162 891.606,354.458 C 895.123,361.771 898,368.459 893.767,373.852 C 893.767,373.852 896.883,386.020 896.883,386.020 C 898.597,392.712 900,399.284 900,400.625 C 900,403.548 902.074,404.566 904.922,403.042 C 906.805,402.034 907,402.203 907,404.835 C 907,407.904 906.767,408.049 864.926,430.859 C 864.926,430.859 857.351,434.988 857.351,434.988 C 857.351,434.988 853.426,433.121 853.426,433.121 C 844.491,428.871 833.330,430.013 823.753,436.159 C 817.363,440.260 807.304,451.286 803,458.909 C 799.528,465.058 799.397,465.160 786.764,471.554 C 779.759,475.099 773.624,478 773.130,478 C 772.635,478 771.921,475.413 771.544,472.250 C 769.963,459.003 764.252,443.103 758.251,435.241 C 756.337,432.734 753.061,426.592 750.971,421.592 C 741.790,399.629 727.914,372.847 714.207,350.634 C 707.075,339.077 703.452,335 700.316,335 C 693.811,335 637.456,359.944 624.437,368.586 C 615.661,374.411 619.550,373.773 630.635,367.570 C 640.828,361.866 677.200,344.831 691.796,338.925 C 698.207,336.331 700.479,335.813 701.796,336.641 C 707.681,340.343 738.058,395.599 749.547,423.500 C 751.132,427.350 754.086,432.975 756.112,436 C 762.473,445.499 768.047,461.305 769.535,474.066 C 769.535,474.066 770.185,479.633 770.185,479.633 C 770.185,479.633 743.342,492.468 743.342,492.468 C 638.961,542.380 576.529,572 575.709,572 C 575.169,572 575.022,570.638 575.373,568.884M 594.551,505.114 C 594.551,505.114 604.726,500.254 604.726,500.254 C 604.726,500.254 620.613,500.752 620.613,500.752 C 639.414,501.341 639.647,501.229 640.798,490.994 C 640.798,490.994 641.500,484.750 641.500,484.750 C 641.500,484.750 669.500,471.417 669.500,471.417 C 737.762,438.911 744.025,435.749 744.586,433.515 C 746.015,427.821 723.323,377.722 707.539,351.724 C 703.049,344.328 702.006,343.507 697.669,343.961 C 692.510,344.501 642.238,368.080 632.589,374.485 C 629.233,376.712 625.984,379.901 624.560,382.363 C 623.244,384.638 616.003,402.025 608.468,421 C 600.933,439.975 590.498,465.549 585.278,477.832 C 574.951,502.134 573.510,507.425 576.598,509.714 C 579.242,511.674 582.641,510.804 594.551,505.114M 753.827,474.195 C 754.196,471.592 752.459,469 750.345,469 C 748.405,469 747.012,473.073 748.186,475.311 C 749.538,477.890 753.412,477.123 753.827,474.195M 744.785,466.722 C 744.785,466.722 753.500,462.500 753.500,462.500 C 753.500,462.500 753.500,457.500 753.500,457.500 C 753.500,452.906 753.297,452.478 751,452.227 C 749.536,452.067 744.151,454.138 738,457.227 C 728.597,461.949 727.528,462.758 727.776,464.966 C 727.928,466.322 728.752,468.499 729.607,469.804 C 731.532,472.742 732.957,472.453 744.785,466.722M 819.455,400.146 C 846.380,386.885 869.221,375.224 870.212,374.233 C 871.203,373.242 872.656,369.363 873.440,365.615 C 874.224,361.867 875.084,358.583 875.350,358.317 C 876.179,357.488 884.968,361.806 889.080,365.063 C 893.820,368.817 894.281,367.608 889.750,363.308 C 884.040,357.889 878.445,355.682 851,348.020 C 827.381,341.426 812.045,337.786 783,331.882 C 750.853,325.347 747.886,325.129 736.559,328.467 C 722.015,332.752 714.552,336.190 714.181,338.773 C 713.974,340.217 716.819,345.645 722.294,354.248 C 731.207,368.255 747.137,395.784 756.001,412.500 C 762.886,425.483 762.722,425.301 766.958,424.732 C 768.906,424.470 792.530,413.407 819.455,400.146" stroke="#FFFFFF" fill="#FFFFFF" stroke-width="1" />
  <path id="29" d="M 591.278,485.433 C 590.114,482.745 589.391,480.176 589.670,479.724 C 590.588,478.238 592.935,481.136 593.575,484.547 C 594.628,490.160 593.511,490.591 591.278,485.433" stroke="#FFFFFF" fill="#FFFFFF" stroke-width="1" />
  <path id="28" d="M 576.598,509.714 C 573.510,507.425 574.951,502.134 585.278,477.832 C 590.498,465.549 600.933,439.975 608.468,421 C 616.003,402.025 623.244,384.638 624.560,382.363 C 625.984,379.901 629.233,376.712 632.589,374.485 C 642.238,368.080 692.510,344.501 697.669,343.961 C 702.006,343.507 703.049,344.328 707.539,351.724 C 723.323,377.722 746.015,427.821 744.586,433.515 C 744.025,435.749 737.762,438.911 669.500,471.417 C 669.500,471.417 641.500,484.750 641.500,484.750 C 641.500,484.750 640.798,490.994 640.798,490.994 C 639.647,501.229 639.414,501.341 620.613,500.752 C 620.613,500.752 604.726,500.254 604.726,500.254 C 604.726,500.254 594.551,505.114 594.551,505.114 C 582.641,510.804 579.242,511.674 576.598,509.714M 598.553,487.750 C 598.165,484.312 597.601,480.263 597.299,478.750 C 596.754,476.018 596.786,476 602.219,476 C 605.227,476 612.505,476.295 618.392,476.655 C 630.650,477.405 630.249,477.093 632.201,487.384 C 633.046,491.840 633.919,494 634.875,494 C 636.032,494 636.175,492.597 635.651,486.394 C 635.297,482.211 634.444,477.628 633.754,476.209 C 632.234,473.082 630.402,472.556 613.370,470.356 C 613.370,470.356 600.150,468.648 600.150,468.648 C 600.150,468.648 596.575,471.375 596.575,471.375 C 594.609,472.875 593,474.924 593,475.929 C 593,476.934 592.087,478.373 590.972,479.128 C 588.965,480.486 588.978,480.570 592.222,487.246 C 594.537,492.011 596.051,493.993 597.379,493.996 C 599.093,494 599.197,493.451 598.553,487.750M 738.456,431.705 C 739.885,431.194 730.700,408.831 720.915,389 C 712.301,371.542 701.521,351.238 700.035,349.675 C 699.201,348.798 671.807,360.604 653.500,369.731 C 636.334,378.290 631.202,381.684 629.050,385.902 C 628.004,387.952 621.743,403.160 615.137,419.697 C 608.531,436.234 601.748,452.805 600.063,456.521 C 598.378,460.237 597,463.552 597,463.888 C 597,464.224 600.038,464.579 603.750,464.677 C 612.545,464.908 630.446,467.624 633.799,469.236 C 636.248,470.414 638.213,473.206 639.382,477.168 C 639.787,478.542 648.481,474.710 688.687,455.441 C 715.534,442.574 737.930,431.893 738.456,431.705" stroke="#000000" fill="#000000" stroke-width="1" />
  <path id="29" d="M 214.250,643.871 C 214.250,643.871 199,637.853 199,637.853 C 199,637.853 199,633.426 199,633.426 C 199,630.991 199.160,629 199.355,629 C 200.266,629 230.587,641.216 231.224,641.839 C 232.057,642.655 231.052,650.028 230.119,649.944 C 229.778,649.913 222.637,647.181 214.250,643.871" stroke="#FFFFFF" fill="#FFFFFF" stroke-width="1" />
  <path id="29" d="M 730.399,466.453 C 730.047,465.052 729.926,463.755 730.130,463.570 C 730.334,463.385 734.996,461.175 740.492,458.659 C 750.709,453.982 752.743,453.902 751.660,458.219 C 751.200,460.053 748.944,461.530 741.619,464.792 C 736.423,467.106 731.917,469 731.605,469 C 731.293,469 730.751,467.854 730.399,466.453" stroke="#FFFFFF" fill="#FFFFFF" stroke-width="1" />
  <path id="28" d="M 762.361,423.854 C 761.780,423.109 758.918,418 756.001,412.500 C 747.137,395.784 731.207,368.255 722.294,354.248 C 716.819,345.645 713.974,340.217 714.181,338.773 C 714.552,336.190 722.015,332.752 736.559,328.467 C 747.886,325.129 750.853,325.347 783,331.882 C 817.131,338.820 847.706,346.398 869,353.196 C 876.642,355.636 876.428,355.502 875.375,357.183 C 874.921,357.907 874.420,359.625 874.260,361 C 873.556,367.066 871.698,372.964 870.009,374.492 C 866.855,377.347 770.686,424.231 766.958,424.732 C 764.677,425.038 763.041,424.726 762.361,423.854M 807.325,399.449 C 870.107,368.897 867.339,370.598 868.167,362.073 C 868.167,362.073 868.500,358.647 868.500,358.647 C 868.500,358.647 851,353.835 851,353.835 C 809.119,342.319 756.415,331.354 747.511,332.304 C 740.978,333.001 721.909,339.072 721.305,340.647 C 721.047,341.319 722.595,344.485 724.745,347.684 C 730.663,356.488 746.893,383.933 754.501,398 C 763.780,415.158 765.997,419 766.617,419 C 766.910,419 785.229,410.202 807.325,399.449" stroke="#000000" fill="#000000" stroke-width="1" />
  <path id="29" d="M 307,681.508 C 307,681.508 290.500,675.216 290.500,675.216 C 290.500,675.216 290.579,668.612 290.579,668.612 C 290.623,664.980 290.916,661.750 291.231,661.435 C 291.716,660.950 324.818,672.514 325.857,673.531 C 326.477,674.138 324.828,688.005 324.148,687.901 C 323.791,687.846 316.075,684.969 307,681.508" stroke="#FFFFFF" fill="#FFFFFF" stroke-width="1" />
  <path id="61" d="M 482.436,713.587 C 477.884,711.605 472.491,704.690 470.460,698.234 C 468.182,690.990 468.136,677.760 470.360,669 C 472.593,660.203 479,647.417 484.050,641.680 C 494.688,629.595 506.461,628.037 514.879,637.600 C 520.777,644.301 522.513,650.261 522.424,663.500 C 522.360,673.041 521.951,675.644 519.340,683.118 C 511.388,705.880 495.279,719.180 482.436,713.587M 495.697,710.050 C 508.231,704.360 519.969,681.609 519.993,662.960 C 520.007,651.949 515.377,640.259 509.469,636.388 C 504.579,633.184 496.391,634.792 489.780,640.253 C 489.780,640.253 487.060,642.500 487.060,642.500 C 487.060,642.500 489.239,649.777 489.239,649.777 C 490.801,654.992 491.807,656.905 497.696,654.250 C 498.044,653.287 500.064,648.706 502.184,644.069 C 505.104,637.682 506.319,635.919 507.196,636.796 C 508.073,637.673 507.433,640.384 504.557,647.980 C 501.083,657.154 500.868,658.282 502.040,661.253 C 503.923,666.028 504.111,666.111 510.252,664.878 C 513.355,664.255 516.644,664.032 517.560,664.384 C 520.592,665.548 517.295,667.724 510.433,669.088 C 504.774,670.213 503.865,670.706 503.330,672.939 C 502.993,674.348 501.909,677.112 500.923,679.082 C 500.923,679.082 499.130,682.665 499.130,682.665 C 499.130,682.665 502.565,689.855 502.565,689.855 C 508.631,702.554 506.482,705.428 499.894,693.425 C 496.037,686.398 495.547,685.896 493.118,686.495 C 489.681,687.343 489.753,687.235 486.551,696.500 C 483.746,704.618 482.459,707 480.878,707 C 479.422,707 479.857,704.471 483.004,694.645 C 485.846,685.771 485.927,685.071 484.504,681.665 C 483.677,679.685 483,677.262 483.001,676.282 C 483.002,674.750 482.242,674.548 477.583,674.838 C 477.583,674.838 472.164,675.176 472.164,675.176 C 472.164,675.176 471.509,679.932 471.509,679.932 C 470.363,688.264 473.376,700.396 478.074,706.368 C 482.432,711.907 488.715,713.220 495.697,710.050M 495.701,680.750 C 499.103,677.014 500,674.411 500,668.266 C 500,661.752 498.914,660 494.873,660 C 488.220,660 483.251,675.777 488.074,681.589 C 489.817,683.689 493.381,683.297 495.701,680.750M 480.217,670.132 C 482.191,669.673 483.616,668.150 485.426,664.564 C 487.911,659.639 487.912,659.616 486.208,653.816 C 485.269,650.619 484.050,648.129 483.500,648.283 C 482.280,648.625 474.301,664.426 473.418,668.250 C 472.859,670.671 473.066,670.986 475.142,670.882 C 476.439,670.817 478.722,670.479 480.217,670.132" stroke="#131313" fill="#131313" stroke-width="1" />
  <path id="29" d="M 481.921,720.666 C 476.721,718.760 473.954,716.564 470.768,711.821 C 466.183,704.993 464.522,697.924 464.587,685.500 C 464.667,670.053 468.708,656.320 476.730,644.224 C 493.565,618.840 516.323,618.288 524.668,643.061 C 527.434,651.272 527.186,669.898 524.171,680.443 C 516.634,706.805 496.472,726 481.921,720.666M 495.175,713.600 C 504.426,710.296 514.116,698.073 519.340,683.118 C 521.951,675.644 522.360,673.041 522.424,663.500 C 522.513,650.261 520.777,644.301 514.879,637.600 C 503.701,624.901 486.861,632.189 475.956,654.446 C 470.823,664.922 468.715,673.500 468.688,684.016 C 468.661,694.599 470.986,702.455 475.813,708.095 C 481.456,714.688 487.399,716.377 495.175,713.600" stroke="#FFFFFF" fill="#FFFFFF" stroke-width="1" />
  <path id="29" d="M 354,638.650 C 354,636.712 359.020,630.084 363.586,625.994 C 376.586,614.350 412.778,589.545 490.500,539.010 C 513.600,523.990 535.200,509.857 538.500,507.601 C 544.253,503.669 544.829,503.497 552.500,503.425 C 556.900,503.384 561.372,503.159 562.438,502.925 C 565.174,502.325 568.627,508.783 569.948,516.974 C 571.563,526.985 573,547.945 573,561.472 C 573,561.472 573,573.653 573,573.653 C 573,573.653 562.750,578.435 562.750,578.435 C 557.112,581.065 549.322,584.693 545.437,586.498 C 545.437,586.498 538.373,589.779 538.373,589.779 C 538.373,589.779 532.585,585.973 532.585,585.973 C 517.246,575.887 497.642,576.671 478.283,588.145 C 470.377,592.831 458.514,605.090 452,615.305 C 448.975,620.049 445.953,623.946 445.283,623.965 C 444.613,623.984 435.095,627.375 424.131,631.500 C 413.167,635.625 403.702,639 403.098,639 C 402.405,639 402,636.417 402,632 C 402,623.714 401.748,623.605 391.922,627.632 C 376.620,633.903 359.289,639.996 356.750,639.998 C 355.107,639.999 354,639.457 354,638.650" stroke="#FFFFFF" fill="#FFFFFF" stroke-width="1" />
  <path id="29" d="M 111.615,601.708 C 110.389,600.812 109.675,598.513 109.285,594.208 C 108.975,590.794 108.988,588 109.314,588 C 109.640,588 111.052,588.523 112.453,589.161 C 114.793,590.227 115,590.838 115,596.661 C 115,603.244 114.577,603.874 111.615,601.708" stroke="#FFFFFF" fill="#FFFFFF" stroke-width="1" />
  <path id="29" d="M 900.769,392.749 C 899.817,388.212 898.480,382.563 897.798,380.196 C 896.759,376.591 896.789,375.749 897.981,375.012 C 900.139,373.678 900.771,374.519 902.979,381.667 C 905.854,390.975 906.685,398.952 904.899,400.083 C 904.129,400.570 903.275,400.975 903,400.983 C 902.725,400.991 901.721,397.286 900.769,392.749" stroke="#FFFFFF" fill="#FFFFFF" stroke-width="1" />
  <path id="63" d="M 352.514,639.732 C 350.667,635.329 356.879,627.227 369.424,617.677 C 369.424,617.677 377.363,611.634 377.363,611.634 C 377.363,611.634 373.431,609.972 373.431,609.972 C 371.269,609.058 359.731,604.803 347.791,600.516 C 347.791,600.516 326.081,592.722 326.081,592.722 C 326.081,592.722 319.110,598.903 319.110,598.903 C 308.694,608.137 300.979,616.852 300.325,620.123 C 299.866,622.419 299.461,622.797 298.400,621.917 C 296.688,620.496 298.570,615.593 302.953,610.059 C 305.802,606.462 321.499,592.434 324.676,590.646 C 326.256,589.757 343.737,595.457 368.092,604.804 C 368.092,604.804 380.684,609.636 380.684,609.636 C 380.684,609.636 395.592,599.143 395.592,599.143 C 412.535,587.217 457.328,557.216 476,545.288 C 514.785,520.511 540.585,503.640 541.208,502.646 C 541.734,501.808 542.210,501.810 543.055,502.655 C 544.423,504.023 546.219,502.781 490.500,539.010 C 382.839,609.011 357.064,627.788 354.128,638.357 C 353.413,640.931 353.121,641.180 352.514,639.732" stroke="#191919" fill="#191919" stroke-width="1" />
  <path id="29" d="M 218.154,692.998 C 203.663,687.063 191.427,681.823 190.962,681.354 C 189.935,680.317 184.881,651.002 185.544,649.929 C 185.803,649.511 198.489,654.193 213.735,660.334 C 213.735,660.334 241.455,671.500 241.455,671.500 C 241.455,671.500 243.634,684 243.634,684 C 247.193,704.413 247.151,704.010 245.762,703.894 C 245.068,703.836 232.645,698.933 218.154,692.998" stroke="#FFFFFF" fill="#FFFFFF" stroke-width="1" />
  <path id="29" d="M 148,563.182 C 138.375,558.950 129.940,555.129 129.257,554.690 C 126.483,552.908 134.288,543.175 148.115,531.175 C 148.115,531.175 150.730,528.905 150.730,528.905 C 150.730,528.905 170.506,535.927 170.506,535.927 C 181.383,539.789 190.542,543.209 190.860,543.527 C 191.178,543.845 189.877,545.301 187.969,546.762 C 180.787,552.261 169.942,563.471 168.253,567.140 C 167.289,569.234 166.275,570.932 166,570.912 C 165.725,570.892 157.625,567.414 148,563.182" stroke="#FFFFFF" fill="#FFFFFF" stroke-width="1" />
  <path id="29" d="M 825.571,493.596 C 824.707,490.624 824,487.943 824,487.637 C 824,486.318 829.761,481.904 832.784,480.906 C 836.684,479.619 839.746,480.384 838.217,482.262 C 837.662,482.943 836.001,486.425 834.526,490 C 832.077,495.933 829.813,499 827.880,499 C 827.474,499 826.435,496.568 825.571,493.596" stroke="#FFFFFF" fill="#FFFFFF" stroke-width="1" />
  <path id="63" d="M 770,495 C 770,492.250 770.458,490 771.018,490 C 771.597,490 771.961,492.157 771.860,495 C 771.763,497.750 771.304,500 770.841,500 C 770.378,500 770,497.750 770,495" stroke="#191919" fill="#191919" stroke-width="1" />
  <path id="29" d="M 340,691.936 C 337.525,691.471 333.754,690.584 331.620,689.966 C 331.620,689.966 327.740,688.842 327.740,688.842 C 327.740,688.842 328.420,682.204 328.420,682.204 C 328.794,678.553 329.275,675.392 329.488,675.179 C 329.701,674.966 333.942,675.577 338.911,676.537 C 349.470,678.578 356.876,677.794 372.075,673.029 C 376.995,671.486 381.179,670.511 381.371,670.862 C 382.225,672.419 380.117,685.310 378.883,686.072 C 375.248,688.319 352.322,693.132 346.500,692.871 C 345.400,692.822 342.475,692.401 340,691.936" stroke="#FFFFFF" fill="#FFFFFF" stroke-width="1" />
  <path id="29" d="M 339.592,671.376 C 322.786,667.725 226.298,631.539 162.500,604.962 C 105.383,581.168 107.253,582.114 108.381,577.618 C 108.804,575.933 111.316,573.291 115.247,570.397 C 121.066,566.113 121.501,565.955 122.331,567.816 C 122.881,569.048 128.757,572.423 137.858,576.733 C 160.112,587.273 163.547,588.545 166.733,587.425 C 169.046,586.612 172.942,587.903 193.377,596.256 C 219.119,606.779 258.014,621.704 280.290,629.607 C 291.439,633.562 294.185,634.914 294.627,636.664 C 295.311,639.372 299.127,641.001 323,648.777 C 350.720,657.806 351.444,658 357.370,658 C 366.190,658 384.199,652.739 414.352,641.354 C 429.834,635.508 444.300,630.159 446.500,629.466 C 450.575,628.182 463.237,626.040 463.821,626.536 C 463.998,626.686 462.070,629.927 459.537,633.736 C 459.537,633.736 454.931,640.662 454.931,640.662 C 454.931,640.662 444.216,644.420 444.216,644.420 C 413.811,655.084 398.099,660.340 384.500,664.394 C 356.459,672.754 350.325,673.708 339.592,671.376" stroke="#FFFFFF" fill="#FFFFFF" stroke-width="1" />
  <path id="29" d="M 281.500,616.562 C 262.117,609.765 220.629,594.160 191.750,582.804 C 176.376,576.759 169,573.378 169,572.379 C 169,568.445 176.694,559.697 190.500,547.933 C 193.250,545.590 195.500,543.229 195.500,542.687 C 195.500,541.602 195.573,541.631 171.908,533.324 C 162.783,530.121 155.133,527.217 154.908,526.871 C 154.416,526.114 166.606,516.990 181,507.341 C 215.539,484.188 256.632,459.505 298.726,436.625 C 298.726,436.625 310.952,429.980 310.952,429.980 C 310.952,429.980 317.637,434.557 317.637,434.557 C 326.671,440.742 332.613,443.633 352,451.278 C 401.607,470.840 485.640,494.004 532.750,501.103 C 537.287,501.787 541,502.607 541,502.927 C 541,503.247 534.588,507.619 526.750,512.643 C 461.904,554.209 422.760,580.026 395.592,599.145 C 395.592,599.145 380.684,609.636 380.684,609.636 C 380.684,609.636 368.092,604.804 368.092,604.804 C 343.737,595.457 326.256,589.757 324.676,590.646 C 321.512,592.427 305.807,606.456 302.976,610.031 C 301.349,612.085 299.226,615.579 298.259,617.794 C 298.259,617.794 296.500,621.822 296.500,621.822 C 296.500,621.822 281.500,616.562 281.500,616.562M 400,539.635 C 411.825,531.942 428.475,521.184 437,515.729 C 455.428,503.937 465.320,496.987 464.641,496.308 C 463.595,495.262 448.651,504.021 428.500,517.491 C 404.680,533.413 377.287,552.726 376.331,554.273 C 375.512,555.599 374.510,556.218 400,539.635M 273.482,489.020 C 281.192,484.256 296.323,475.059 307.106,468.582 C 317.889,462.105 328.014,455.723 329.500,453.060 C 327.850,453.646 323.628,455.727 320.118,457.685 C 304.959,466.141 256.666,497.114 255.370,499.211 C 254.525,500.578 257.333,498.999 273.482,489.020" stroke="#FFFFFF" fill="#FFFFFF" stroke-width="1" />
  <path id="29" d="M 473.418,668.250 C 474.301,664.426 482.280,648.625 483.500,648.283 C 484.050,648.129 485.269,650.619 486.208,653.816 C 487.912,659.616 487.911,659.639 485.426,664.564 C 482.920,669.530 481.216,670.577 475.142,670.882 C 473.066,670.986 472.859,670.671 473.418,668.250" stroke="#FFFFFF" fill="#FFFFFF" stroke-width="1" />
  <path id="63" d="M 748.186,475.311 C 747.012,473.073 748.405,469 750.345,469 C 752.459,469 754.196,471.592 753.827,474.195 C 753.412,477.123 749.538,477.890 748.186,475.311" stroke="#191919" fill="#191919" stroke-width="1" />
  <path id="29" d="M 361.416,647.920 C 361.803,645.002 362.320,642.290 362.565,641.894 C 362.810,641.498 364.920,640.858 367.255,640.472 C 371.736,639.731 389.406,633.393 394.868,630.568 C 394.868,630.568 398.094,628.900 398.094,628.900 C 398.094,628.900 397.797,635.700 397.797,635.700 C 397.797,635.700 397.500,642.500 397.500,642.500 C 397.500,642.500 383.500,647.138 383.500,647.138 C 375.800,649.689 367.523,652.103 365.106,652.501 C 365.106,652.501 360.713,653.224 360.713,653.224 C 360.713,653.224 361.416,647.920 361.416,647.920" stroke="#FFFFFF" fill="#FFFFFF" stroke-width="1" />
  <path id="63" d="M 573.552,571.750 C 573.340,571.062 572.911,562.175 572.600,552 C 571.697,522.504 570.005,511.234 565.476,504.560 C 563.339,501.411 563.223,500.896 564.714,501.183 C 567.798,501.777 570.925,509.179 572.504,519.624 C 574.307,531.548 576.269,565.082 575.372,568.655 C 574.951,570.332 575.207,571.517 576.115,572.092 C 577.211,572.786 577.128,572.973 575.719,572.985 C 574.739,572.993 573.764,572.438 573.552,571.750" stroke="#191919" fill="#191919" stroke-width="1" />
  <path id="29" d="M 131.500,611.169 C 131.500,611.169 118.500,605.500 118.500,605.500 C 118.500,605.500 118.202,598.651 118.202,598.651 C 118.028,594.646 118.296,591.947 118.848,592.151 C 119.367,592.343 125.689,594.960 132.896,597.966 C 132.896,597.966 146,603.432 146,603.432 C 146,603.432 146,610.216 146,610.216 C 146,613.947 145.663,616.964 145.250,616.919 C 144.837,616.874 138.650,614.287 131.500,611.169" stroke="#FFFFFF" fill="#FFFFFF" stroke-width="1" />
  <path id="29" d="M 483.415,710.579 C 475.735,707.235 469.841,692.063 471.509,679.932 C 471.509,679.932 472.164,675.176 472.164,675.176 C 472.164,675.176 477.583,674.838 477.583,674.838 C 482.242,674.548 483.002,674.750 483.001,676.282 C 483,677.262 483.677,679.685 484.504,681.665 C 485.927,685.071 485.846,685.771 483.004,694.645 C 479.857,704.471 479.422,707 480.878,707 C 482.459,707 483.746,704.618 486.551,696.500 C 489.753,687.235 489.681,687.343 493.118,686.495 C 495.547,685.896 496.037,686.398 499.894,693.425 C 506.482,705.428 508.631,702.554 502.565,689.855 C 502.565,689.855 499.130,682.665 499.130,682.665 C 499.130,682.665 500.923,679.082 500.923,679.082 C 501.909,677.112 502.993,674.348 503.330,672.939 C 503.865,670.706 504.774,670.213 510.433,669.088 C 517.295,667.724 520.592,665.548 517.560,664.384 C 516.644,664.032 513.355,664.255 510.252,664.878 C 504.111,666.111 503.923,666.028 502.040,661.253 C 500.868,658.282 501.083,657.154 504.557,647.980 C 507.433,640.384 508.073,637.673 507.196,636.796 C 506.319,635.919 505.104,637.682 502.184,644.069 C 500.064,648.706 498.044,653.287 492.791,656.527 C 491.807,656.905 490.801,654.992 489.239,649.777 C 489.239,649.777 487.060,642.500 487.060,642.500 C 487.060,642.500 489.780,640.253 489.780,640.253 C 496.391,634.792 504.579,633.184 509.469,636.388 C 515.377,640.259 520.007,651.949 519.993,662.960 C 519.976,676.468 513.064,694.401 504.381,703.463 C 497.158,711.002 489.980,713.438 483.415,710.579" stroke="#FFFFFF" fill="#FFFFFF" stroke-width="1" />
  <path id="61" d="M 817.898,546.750 C 815.804,545.363 813.357,542.210 811.519,538.531 C 808.842,533.172 808.546,531.639 808.618,523.531 C 808.757,507.957 814.200,493.035 823.060,483.939 C 836.908,469.721 852,480.159 852,503.955 C 852,532.220 832.642,556.513 817.898,546.750M 830.800,544.595 C 832.285,543.822 834.564,542.051 835.864,540.659 C 838.223,538.134 838.224,538.122 836.310,535.314 C 835.255,533.766 833.552,530.568 832.525,528.208 C 831.274,525.331 830.194,524.095 829.248,524.458 C 828.472,524.756 827.460,525 827,525 C 826.540,525 825.165,528.037 823.945,531.750 C 822.725,535.463 821.072,539.798 820.270,541.383 C 819.057,543.781 819.038,544.408 820.156,545.117 C 822.227,546.429 827.799,546.156 830.800,544.595M 819.896,532.627 C 821.879,525.611 821.986,524.223 820.872,519.877 C 819.652,515.118 819.530,515 815.830,515 C 812.578,515 811.945,515.371 811.384,517.605 C 809.768,524.043 814.406,544.226 816.858,541.428 C 817.305,540.918 818.672,536.957 819.896,532.627M 843.880,529.057 C 846.296,523.441 849,513.589 849,510.402 C 849,508.248 848.935,508.240 843.250,509.676 C 837.635,511.095 837.453,511.251 835.493,516.315 C 835.493,516.315 833.487,521.500 833.487,521.500 C 833.487,521.500 836.493,528.640 836.493,528.640 C 839.878,536.679 840.584,536.718 843.880,529.057M 832.093,516.603 C 836.857,506.113 831.770,497.060 825.692,505.209 C 822.971,508.857 822.167,518.024 824.374,520.231 C 826.848,522.705 829.993,521.226 832.093,516.603M 819.418,510.393 C 820.288,510.059 821,509.340 821,508.794 C 821,508.248 821.683,506.363 822.518,504.604 C 823.830,501.840 823.850,500.869 822.667,497.453 C 821.914,495.279 820.894,493.500 820.399,493.500 C 819.250,493.500 814.160,503.953 813.359,507.956 C 812.808,510.710 812.992,511 815.293,511 C 816.692,511 818.548,510.727 819.418,510.393M 845.317,505.433 C 845.317,505.433 850.134,504.753 850.134,504.753 C 850.134,504.753 849.487,500.626 849.487,500.626 C 847.976,490.997 844.218,482.427 841.852,483.216 C 841.253,483.415 839.445,487.161 837.833,491.539 C 835.194,498.707 835.023,499.875 836.116,503.265 C 836.977,505.936 837.791,506.897 838.915,506.572 C 839.787,506.320 842.668,505.807 845.317,505.433M 830.231,497.750 C 831.118,497.062 833.051,493.575 834.526,490 C 836.001,486.425 837.662,482.943 838.217,482.262 C 839.746,480.384 836.684,479.619 832.784,480.906 C 829.761,481.904 824,486.318 824,487.637 C 824,489.434 827.266,499 827.880,499 C 828.286,499 829.344,498.438 830.231,497.750" stroke="#131313" fill="#131313" stroke-width="1" />
  <path id="29" d="M 813.987,537.704 C 811.749,532.645 810.340,521.765 811.384,517.605 C 811.945,515.371 812.578,515 815.830,515 C 819.530,515 819.652,515.118 820.872,519.877 C 821.986,524.223 821.879,525.611 819.896,532.627 C 818.672,536.957 817.305,540.918 816.858,541.428 C 816.402,541.948 815.141,540.312 813.987,537.704" stroke="#FFFFFF" fill="#FFFFFF" stroke-width="1" />
  <path id="29" d="M 819,553.882 C 811.505,550.909 806.333,541.130 805.322,528.021 C 804.755,520.669 806.276,511.942 807.850,513.516 C 808.208,513.874 808.519,518.326 808.541,523.409 C 808.577,531.604 808.917,533.323 811.541,538.576 C 817.932,551.371 828.733,552.523 838.898,541.495 C 852.824,526.387 856.453,495.498 845.818,482.596 C 836.516,471.311 820.998,479.585 812.976,500.106 C 811.816,503.073 810.165,506.175 809.308,507 C 806.635,509.572 808.400,501.957 812.410,493.621 C 820.297,477.223 833.394,468.511 842.800,473.405 C 850.472,477.397 854.182,485.641 854.793,500.055 C 855.542,517.715 850.055,534.308 839.728,545.607 C 832.286,553.750 825.498,556.460 819,553.882" stroke="#FFFFFF" fill="#FFFFFF" stroke-width="1" />
  <path id="63" d="M 115.639,602.306 C 114.386,601.053 115.018,594.230 116.500,593 C 117.800,591.921 118,592.432 118,596.819 C 118,601.596 117.076,603.743 115.639,602.306" stroke="#191919" fill="#191919" stroke-width="1" />
  <path id="29" d="M 813.359,507.956 C 814.160,503.953 819.250,493.500 820.399,493.500 C 820.894,493.500 821.914,495.279 822.667,497.453 C 823.850,500.869 823.830,501.840 822.518,504.604 C 821.683,506.363 821,508.248 821,508.794 C 821,510.056 818.558,511 815.293,511 C 812.992,511 812.808,510.710 813.359,507.956" stroke="#FFFFFF" fill="#FFFFFF" stroke-width="1" />
  <path id="29" d="M 820.156,545.117 C 819.038,544.408 819.057,543.781 820.270,541.383 C 821.072,539.798 822.725,535.463 823.945,531.750 C 825.165,528.037 826.540,525 827,525 C 827.460,525 828.472,524.756 829.248,524.458 C 830.194,524.095 831.274,525.331 832.525,528.208 C 833.552,530.568 835.255,533.766 836.310,535.314 C 838.224,538.122 838.223,538.134 835.864,540.659 C 831.429,545.407 823.959,547.527 820.156,545.117" stroke="#FFFFFF" fill="#FFFFFF" stroke-width="1" />
  <path id="63" d="M 376.331,554.273 C 378.303,551.082 445.043,505.779 456.824,499.634 C 472.834,491.283 464.018,498.441 437,515.729 C 428.475,521.184 411.825,531.942 400,539.635 C 374.510,556.218 375.512,555.599 376.331,554.273" stroke="#191919" fill="#191919" stroke-width="1" />
  <path id="29" d="M 488.074,681.589 C 484.961,677.839 486.023,667.783 490.076,662.631 C 492.303,659.800 496.682,659.082 498.800,661.200 C 500.317,662.717 500.370,673.414 498.875,676.316 C 495.787,682.312 490.725,684.783 488.074,681.589" stroke="#FFFFFF" fill="#FFFFFF" stroke-width="1" />
  <path id="29" d="M 551.500,498.315 C 480.721,488.759 355.629,452.096 323.352,431.448 C 323.352,431.448 317.536,427.728 317.536,427.728 C 317.536,427.728 322.643,423.114 322.643,423.114 C 362.370,387.223 389.256,365.381 420.525,343.597 C 420.525,343.597 431.094,336.234 431.094,336.234 C 431.094,336.234 446.297,340.688 446.297,340.688 C 481.909,351.119 514.371,359.915 558.379,371.057 C 584.163,377.585 605.489,383.156 605.771,383.438 C 607.262,384.929 567.734,480.192 559.691,494.492 C 557.368,498.621 556.560,498.998 551.500,498.315" stroke="#FFFFFF" fill="#FFFFFF" stroke-width="1" />
  <path id="63" d="M 167.400,571.600 C 166.970,570.479 167.400,568.412 168.482,566.404 C 170.299,563.029 181.597,551.641 187.969,546.762 C 189.877,545.301 191.182,543.849 190.869,543.536 C 190.555,543.222 181.907,539.978 171.650,536.327 C 156.893,531.074 153,529.316 154.775,525.998 C 154.615,526.664 161.632,529.662 171.500,533.146 C 195.815,541.730 195.500,541.605 195.500,542.687 C 195.500,543.229 193.250,545.590 190.500,547.933 C 180.139,556.761 171.663,565.634 169.919,569.480 C 168.412,572.803 167.996,573.153 167.400,571.600" stroke="#191919" fill="#191919" stroke-width="1" />
  <path id="29" d="M 836.493,528.640 C 836.493,528.640 833.487,521.500 833.487,521.500 C 833.487,521.500 835.493,516.315 835.493,516.315 C 837.453,511.251 837.635,511.095 843.250,509.676 C 848.935,508.240 849,508.248 849,510.402 C 849,515.806 843.192,532.797 840.640,534.858 C 839.842,535.503 838.598,533.638 836.493,528.640" stroke="#FFFFFF" fill="#FFFFFF" stroke-width="1" />
  <path id="29" d="M 771.821,498.488 C 771.610,498.277 771.615,496.240 771.832,493.963 C 772.226,489.833 772.250,489.812 781.245,485.434 C 786.205,483.020 790.624,481.268 791.065,481.540 C 791.506,481.812 791.173,484.071 790.326,486.558 C 788.963,490.559 788.096,491.427 782.809,494.096 C 775.760,497.654 772.350,499.017 771.821,498.488" stroke="#FFFFFF" fill="#FFFFFF" stroke-width="1" />
  <path id="63" d="M 729.607,469.804 C 728.752,468.499 727.928,466.322 727.776,464.966 C 727.528,462.758 728.597,461.949 738,457.227 C 744.151,454.138 749.536,452.067 751,452.227 C 753.297,452.478 753.500,452.906 753.500,457.500 C 753.500,457.500 753.500,462.500 753.500,462.500 C 753.500,462.500 744.785,466.722 744.785,466.722 C 732.957,472.453 731.532,472.742 729.607,469.804M 741.619,464.792 C 748.944,461.530 751.200,460.053 751.660,458.219 C 752.743,453.902 750.709,453.982 740.492,458.659 C 734.996,461.175 730.334,463.385 730.130,463.570 C 729.592,464.059 730.934,469 731.605,469 C 731.917,469 736.423,467.106 741.619,464.792" stroke="#191919" fill="#191919" stroke-width="1" />
  <path id="29" d="M 864.710,452.478 C 862.265,449.118 863.733,446.652 869.763,443.992 C 877.742,440.472 905.359,424.710 907.795,422.285 C 910.297,419.795 913.906,419.306 915.800,421.200 C 916.460,421.860 917,424.013 917,425.984 C 917,428.841 916.442,429.893 914.250,431.164 C 905.683,436.133 868.863,454.995 867.782,454.969 C 867.077,454.952 865.694,453.831 864.710,452.478" stroke="#FFFFFF" fill="#FFFFFF" stroke-width="1" />
  <path id="29" d="M 639.382,477.168 C 638.213,473.206 636.248,470.414 633.799,469.236 C 630.446,467.624 612.545,464.908 603.750,464.677 C 600.038,464.579 597,464.224 597,463.888 C 597,463.552 598.378,460.237 600.063,456.521 C 601.748,452.805 608.531,436.234 615.137,419.697 C 621.743,403.160 628.004,387.952 629.050,385.902 C 631.202,381.684 636.334,378.290 653.500,369.731 C 671.807,360.604 699.201,348.798 700.035,349.675 C 701.521,351.238 712.301,371.542 720.915,389 C 730.700,408.831 739.885,431.194 738.456,431.705 C 737.930,431.893 715.534,442.574 688.687,455.441 C 648.481,474.710 639.787,478.542 639.382,477.168" stroke="#FFFFFF" fill="#FFFFFF" stroke-width="1" />
  <path id="29" d="M 330.493,401.989 C 330.149,401.433 326.282,398.910 321.900,396.382 C 315.419,392.644 314.149,391.526 315.089,390.393 C 316.805,388.326 318.714,388.643 327.911,392.522 C 338.917,397.164 338.562,396.804 335.395,400.110 C 332.421,403.214 331.474,403.577 330.493,401.989" stroke="#FFFFFF" fill="#FFFFFF" stroke-width="1" />
  <path id="29" d="M 824.374,520.231 C 822.167,518.024 822.971,508.857 825.692,505.209 C 831.770,497.060 836.857,506.113 832.093,516.603 C 829.993,521.226 826.848,522.705 824.374,520.231" stroke="#FFFFFF" fill="#FFFFFF" stroke-width="1" />
  <path id="29" d="M 547.086,602.420 C 545.939,600.476 545,598.678 545,598.424 C 545,598.004 561.839,589.811 569.750,586.382 C 569.750,586.382 573,584.973 573,584.973 C 573,584.973 573,589.862 573,589.862 C 573,589.862 573,594.751 573,594.751 C 573,594.751 564.250,598.991 564.250,598.991 C 548.281,606.729 549.486,606.488 547.086,602.420" stroke="#FFFFFF" fill="#FFFFFF" stroke-width="1" />
  <path id="63" d="M 889.500,365.318 C 885.358,361.863 876.295,357.716 874.763,358.574 C 874.068,358.963 874.274,358.460 875.220,357.456 C 876.883,355.691 877.107,355.708 881.915,357.960 C 886.544,360.128 893.907,366.434 892.932,367.395 C 892.695,367.629 891.150,366.694 889.500,365.318" stroke="#191919" fill="#191919" stroke-width="1" />
  <path id="63" d="M 899.958,397.950 C 899.935,397.703 898.650,392.649 897.101,386.721 C 895.552,380.793 894.674,375.702 895.150,375.408 C 895.625,375.114 896.202,375.465 896.431,376.187 C 900.493,388.980 902.047,396.319 900.935,397.450 C 900.421,397.972 899.981,398.197 899.958,397.950" stroke="#191919" fill="#191919" stroke-width="1" />
  <path id="63" d="M 769.524,473.750 C 767.901,460.909 762.373,445.349 756.112,436 C 754.086,432.975 751.132,427.350 749.547,423.500 C 738.058,395.599 707.681,340.343 701.796,336.641 C 700.479,335.813 698.207,336.331 691.796,338.925 C 677.200,344.831 640.828,361.866 630.635,367.570 C 619.550,373.773 615.661,374.411 624.437,368.586 C 637.456,359.944 693.811,335 700.316,335 C 703.452,335 707.075,339.077 714.207,350.634 C 727.914,372.847 741.790,399.629 750.971,421.592 C 753.061,426.592 756.337,432.734 758.251,435.241 C 762.173,440.379 767.078,451.535 769.358,460.500 C 771.499,468.919 772.515,479 771.223,479 C 770.654,479 769.889,476.638 769.524,473.750" stroke="#191919" fill="#191919" stroke-width="1" />
  <path id="29" d="M 595.442,491.377 C 595.814,489.896 595.316,485.710 594.300,481.767 C 594.300,481.767 592.500,474.780 592.500,474.780 C 592.500,474.780 595.962,471.890 595.962,471.890 C 597.866,470.300 600.566,469.002 601.962,469.005 C 607.777,469.016 631.494,473.065 632.679,474.250 C 634.166,475.737 636,484.511 636,490.136 C 636,496.556 633.613,494.828 632.201,487.384 C 630.249,477.093 630.650,477.405 618.392,476.655 C 612.505,476.295 605.227,476 602.219,476 C 596.786,476 596.754,476.018 597.299,478.750 C 597.601,480.263 598.165,484.312 598.553,487.750 C 599.232,493.765 599.174,494 597.021,494 C 595.106,494 594.878,493.623 595.442,491.377" stroke="#FFFFFF" fill="#FFFFFF" stroke-width="1" />
  <path id="65" d="M 806.179,513.500 C 806.201,511.363 807.733,505.909 810.606,507.109 C 810.364,507.874 809.891,509.756 809.554,511.291 C 809.217,512.826 808.543,513.836 808.056,513.535 C 807.569,513.234 806.943,513.553 806.664,514.244 C 806.385,514.935 806.168,514.600 806.179,513.500" stroke="#EEEAE7" fill="#EEEAE7" stroke-width="1" />
  <path id="54" d="M 573.667,593.333 C 572.609,592.275 572.894,586 574,586 C 574.550,586 575,587.260 575,588.800 C 575,590.340 575.540,592.140 576.200,592.800 C 577.133,593.733 577.060,594 575.867,594 C 575.024,594 574.034,593.700 573.667,593.333" stroke="#1D1F1D" fill="#1D1F1D" stroke-width="1" />
  <path id="63" d="M 255.370,499.211 C 256.666,497.114 304.959,466.141 320.118,457.685 C 323.628,455.727 327.850,453.646 329.606,454.400 C 328.014,455.723 317.889,462.105 307.106,468.582 C 296.323,475.059 281.192,484.256 273.482,489.020 C 257.333,498.999 254.525,500.578 255.370,499.211" stroke="#191919" fill="#191919" stroke-width="1" />
  <path id="63" d="M 381,365.193 C 381,364.749 386.134,360.487 392.408,355.720 C 399.442,350.376 403.721,347.693 403.570,348.721 C 403.435,349.638 401.955,351.313 400.280,352.444 C 398.605,353.575 394.094,357.087 390.256,360.250 C 383.714,365.641 381,367.090 381,365.193" stroke="#191919" fill="#191919" stroke-width="1" />
  <path id="54" d="M 593.994,487.750 C 593.991,485.962 593.346,483.270 593.419,479.187 C 593.642,479.909 594.314,482.029 594.912,483.899 C 596.270,488.143 596.306,491 595,491 C 594.450,491 593.997,489.538 593.994,487.750" stroke="#1D1F1D" fill="#1D1F1D" stroke-width="1" />
  <path id="29" d="M 763.673,414.750 C 762.347,412.413 758.219,404.875 754.501,398 C 746.893,383.933 730.663,356.488 724.745,347.684 C 722.595,344.485 721.047,341.319 721.305,340.647 C 721.909,339.072 740.978,333.001 747.511,332.304 C 756.415,331.354 809.119,342.319 851,353.835 C 851,353.835 868.500,358.647 868.500,358.647 C 868.500,358.647 868.167,362.073 868.167,362.073 C 867.548,368.450 865.922,370.279 856.500,375.199 C 845.782,380.795 767.384,419 766.617,419 C 766.324,419 764.999,417.087 763.673,414.750" stroke="#FFFFFF" fill="#FFFFFF" stroke-width="1" />
</svg>
