<?xml version="1.0" encoding="UTF-8"?>
<svg version="1.1" xmlns="http://www.w3.org/2000/svg" width="1663" height="1292">
<path d="M0 0 C7.89572401 7.56578081 15.63080231 15.24781431 22.68261719 23.61230469 C23.52566406 24.56621094 24.36871094 25.52011719 25.23730469 26.50292969 C46.38450089 50.50931313 64.42052487 77.532674 79.68261719 105.61230469 C80.1732666 106.50079102 80.66391602 107.38927734 81.16943359 108.3046875 C82.62437335 110.94203195 84.06301085 113.58750342 85.49511719 116.23730469 C86.15447266 117.43806641 86.15447266 117.43806641 86.82714844 118.66308594 C87.21902344 119.40171875 87.61089844 120.14035156 88.01464844 120.90136719 C88.36245361 121.54799316 88.71025879 122.19461914 89.06860352 122.86083984 C89.68261719 124.61230469 89.68261719 124.61230469 88.68261719 127.61230469 C87.89951172 126.64744141 87.89951172 126.64744141 87.10058594 125.66308594 C78.21246582 114.75140081 69.17189374 104.0084063 59.68261719 93.61230469 C58.86535156 92.70222656 58.04808594 91.79214844 57.20605469 90.85449219 C47.85623966 80.51177645 38.21380166 70.19857167 27.54589844 61.19824219 C25.32790534 59.31039062 23.20019563 57.33527676 21.05761719 55.36230469 C15.44704927 50.30681579 9.54998431 45.67831363 3.56884766 41.07470703 C1.7197151 39.64106686 -0.11051783 38.18608615 -1.93847656 36.72558594 C-22.00837052 20.8447755 -43.79218692 6.73162832 -66.31738281 -5.38769531 C-67.20345215 -5.87109375 -68.08952148 -6.35449219 -69.00244141 -6.85253906 C-120.51881375 -34.88123131 -176.30536352 -52.37143591 -234.31738281 -60.38769531 C-235.48688477 -60.55430664 -236.65638672 -60.72091797 -237.86132812 -60.89257812 C-276.78248104 -66.19252649 -318.43530544 -65.84641731 -357.31738281 -60.38769531 C-358.59822754 -60.21608887 -359.87907227 -60.04448242 -361.19873047 -59.86767578 C-406.3076851 -53.77389324 -450.37214206 -42.16055853 -492.31738281 -24.38769531 C-488.12381187 -19.43455825 -483.81730755 -14.62290103 -479.37988281 -9.88769531 C-478.79787109 -9.2625 -478.21585938 -8.63730469 -477.61621094 -7.99316406 C-474.6562512 -4.82669551 -471.65901468 -1.71131704 -468.58300781 1.34277344 C-466.28321942 3.62683843 -464.08742012 5.9381092 -462.00488281 8.42480469 C-459.24120252 11.63564224 -456.33118685 14.63497634 -453.31738281 17.61230469 C-449.78864654 21.09852606 -446.46517134 24.65628736 -443.27075195 28.44824219 C-441.10716041 30.845202 -438.77352489 32.97835153 -436.40722656 35.17480469 C-431.33677915 40.24802132 -428.80773007 44.93373295 -426.37988281 51.61230469 C-425.72209839 53.31555908 -425.72209839 53.31555908 -425.05102539 55.05322266 C-424.03056139 57.69814532 -423.02896633 60.34935019 -422.0390625 63.00585938 C-420.11035916 68.1796647 -418.139211 73.33702618 -416.16894531 78.49511719 C-413.372181 85.82577261 -410.58631107 93.1604448 -407.81048584 100.49905396 C-402.06438706 115.68671494 -396.23520946 130.84146449 -390.37988281 145.98730469 C-389.4588668 148.370917 -388.53788697 150.7545433 -387.61694336 153.13818359 C-385.775375 157.90409118 -383.93346308 162.66986581 -382.09130859 167.43554688 C-377.92993695 178.20159695 -373.76962522 188.96804531 -369.61862183 199.73809814 C-368.76612032 201.94869599 -367.91273893 204.15895476 -367.05838013 206.36883545 C-366.45387527 207.93253876 -366.45387527 207.93253876 -365.8371582 209.52783203 C-365.44546951 210.54056686 -365.05378082 211.5533017 -364.65022278 212.59672546 C-363.53649536 215.49868417 -362.44632501 218.40872318 -361.35742188 221.32006836 C-360.08795166 224.69189494 -358.72145317 227.97378512 -357.20703125 231.24243164 C-353.86416098 238.74148984 -352.46597193 244.04172705 -355.45800781 251.90527344 C-356.732656 254.9186609 -358.14526447 257.85387496 -359.56738281 260.79980469 C-360.31392887 262.4562807 -361.0538814 264.11574119 -361.7878418 265.77783203 C-362.97811585 268.46824778 -364.17358347 271.15539798 -365.38987732 273.83416748 C-370.23380165 284.50453112 -374.58697433 295.36934753 -378.96673584 306.23638916 C-381.31805046 312.06151139 -383.69249197 317.87719962 -386.06347656 323.69433594 C-390.65995683 334.9875191 -395.24259491 346.28627571 -399.81814575 357.58795166 C-406.14024938 373.20178826 -412.5101767 388.7960358 -418.88256836 404.3894043 C-422.85439231 414.11105162 -426.81855081 423.83558206 -430.75097656 433.57324219 C-431.26768417 434.85192169 -431.26768417 434.85192169 -431.79483032 436.15643311 C-433.67350069 440.80633258 -435.54905328 445.45744634 -437.41616821 450.11199951 C-437.96478107 451.46248361 -438.52309486 452.80907483 -439.09188843 454.15118408 C-440.30161102 457.00740112 -441.35592908 459.76199847 -442.13037109 462.76953125 C-443.31606043 466.75918794 -444.49460046 469.51483831 -448.17504883 471.73077393 C-453.16358955 474.14887393 -458.36711314 475.94274849 -463.61798096 477.69946289 C-466.93276021 478.82040346 -470.19722897 480.05373936 -473.46691895 481.29885864 C-476.69069287 482.52372671 -479.9270014 483.71372182 -483.16278076 484.90643311 C-487.84311821 486.63236884 -492.51960847 488.36867702 -497.19628906 490.10449219 C-498.67760315 490.65413132 -498.67760315 490.65413132 -500.18884277 491.21487427 C-511.53909919 495.43060851 -522.86628248 499.70718582 -534.19238281 503.98730469 C-536.40714275 504.82406243 -538.62190516 505.66081363 -540.83666992 506.49755859 C-544.30535463 507.80809376 -547.77402245 509.11867348 -551.24263 510.42941284 C-563.92538932 515.22139281 -576.61241261 520.00204231 -589.29978848 524.7817831 C-593.64065199 526.41713251 -597.98139404 528.05280369 -602.32201672 529.68879223 C-616.80891623 535.1489259 -631.29694912 540.60600591 -645.78884888 546.05285645 C-651.35428868 548.14468677 -656.91920843 550.23789905 -662.4840107 552.33142471 C-667.01177595 554.03466184 -671.54022778 555.73605636 -676.06921482 557.43604183 C-678.87958244 558.49144585 -681.68927448 559.54863932 -684.49879265 560.60630226 C-686.39843432 561.32083156 -688.29887823 562.0332269 -690.19935608 562.74552917 C-695.795201 564.85393494 -701.37541768 566.99861427 -706.92163086 569.23461914 C-708.33233101 569.8019854 -708.33233101 569.8019854 -709.77153015 570.3808136 C-713.89465452 572.37526952 -716.89723433 575.23662227 -720.06738281 578.48730469 C-721.34660572 579.73934795 -722.62654526 580.99065946 -723.90722656 582.24121094 C-724.50003418 582.83047363 -725.0928418 583.41973633 -725.70361328 584.02685547 C-727.61493696 585.90463701 -729.59720308 587.67957461 -731.62988281 589.42480469 C-736.25869662 593.41378246 -740.78184911 597.51791712 -745.31738281 601.61230469 C-746.98379132 603.11259148 -748.65045634 604.61259341 -750.31738281 606.11230469 C-751.14496094 606.85738281 -751.97253906 607.60246094 -752.82519531 608.37011719 C-754.4647816 609.84523087 -756.10537936 611.3192212 -757.74707031 612.79199219 C-763.79667268 618.22310486 -769.79844648 623.70490731 -775.78515625 629.20507812 C-777.79577625 631.05167049 -779.8081792 632.89631235 -781.82080078 634.74072266 C-782.82259091 635.65883962 -783.82421723 636.57713535 -784.82568359 637.49560547 C-787.27350843 639.74043608 -789.72343309 641.9828533 -792.17675781 644.22167969 C-799.92158567 651.29668459 -807.57873051 658.46219334 -815.22216797 665.64648438 C-817.33751867 667.63119701 -819.45759444 669.61073798 -821.57910156 671.58886719 C-831.00866288 680.37910181 -831.00866288 680.37910181 -840.12988281 689.48730469 C-842.31738281 691.61230469 -842.31738281 691.61230469 -844.24584961 692.90406799 C-847.64013654 695.35021673 -849.94470287 697.23610191 -851.06274414 701.36471558 C-851.33815216 704.70793262 -851.37319215 707.97301585 -851.31738281 711.32714844 C-851.32825928 712.53802628 -851.33913574 713.74890411 -851.3503418 714.99647522 C-851.37645224 718.84849587 -851.34768093 722.69785554 -851.31738281 726.54980469 C-851.32547609 729.16765695 -851.33715456 731.78550075 -851.35253906 734.40332031 C-851.37833613 738.92497335 -851.37451476 743.44546947 -851.34910583 747.96707916 C-851.34323676 749.02517745 -851.33736769 750.08327573 -851.33132076 751.1734376 C-851.32672124 751.97826374 -851.32212172 752.78308988 -851.31738281 753.61230469 C-850.6923662 753.68513857 -850.06734958 753.75797245 -849.42339307 753.83301342 C-833.2721295 755.72315912 -817.15825656 757.81542979 -801.05249023 760.05810547 C-798.64155659 760.39208604 -796.23059587 760.72587111 -793.8196106 761.05947876 C-788.02549522 761.86175719 -782.23167438 762.66613496 -776.4380032 763.47161449 C-771.7309887 764.12596996 -767.02384571 764.77939397 -762.31661415 765.43218613 C-761.64119279 765.52585322 -760.96577142 765.61952031 -760.26988274 765.71602579 C-758.89711932 765.90639565 -757.5243556 766.09676331 -756.15159158 766.28712879 C-743.36793911 768.05998311 -730.58467324 769.8356118 -717.80154572 771.61224674 C-706.84170878 773.13541053 -695.88154484 774.65620267 -684.92114258 776.17529297 C-672.14387637 777.94619845 -659.3668066 779.71851051 -646.59005243 781.49310672 C-645.22937531 781.68209105 -643.86869797 781.87107375 -642.5080204 782.06005478 C-641.83875093 782.15300885 -641.16948145 782.24596293 -640.47993108 782.34173379 C-635.76978858 782.99582261 -631.05950773 783.64890905 -626.34917259 784.30160904 C-620.02610449 785.17781407 -613.70336064 786.05633383 -607.38083267 786.93642807 C-605.05890237 787.2592839 -602.73686803 787.58139245 -600.41472435 787.90270996 C-597.25330569 788.34028182 -594.09227025 788.78052382 -590.93132019 789.22146606 C-590.00674222 789.34879911 -589.08216424 789.47613215 -588.12956876 789.60732377 C-587.28359012 789.72590017 -586.43761148 789.84447657 -585.56599712 789.96664619 C-584.4722254 790.11856318 -584.4722254 790.11856318 -583.35635728 790.2735492 C-581.30697053 790.61403458 -579.32480159 791.08032249 -577.31738281 791.61230469 C-577.31738281 793.26230469 -577.31738281 794.91230469 -577.31738281 796.61230469 C-609.1890313 796.24856634 -641.06066468 795.88353594 -672.93227907 795.51682321 C-676.73773021 795.47303901 -680.54318148 795.42926529 -684.34863281 795.38549805 C-685.10588955 795.37678851 -685.86314629 795.36807898 -686.6433502 795.35910552 C-698.73319215 795.22007973 -710.82304354 795.08189171 -722.91289894 794.94404126 C-735.41794543 794.80143702 -747.92298061 794.65786793 -760.42800677 794.51349205 C-767.40981587 794.43290941 -774.39162879 794.35270608 -781.37345505 794.27362251 C-821.68981185 793.81666021 -862.00352954 793.2494764 -902.31738281 792.61230469 C-902.5170814 780.91007837 -902.70858516 769.20849457 -902.80566406 757.50488281 C-902.86536818 750.34112167 -902.93587063 743.17864269 -903.07177734 736.01586914 C-903.18070574 730.23857051 -903.24028124 724.46264708 -903.26615524 718.68440056 C-903.28458485 716.48386934 -903.32057645 714.28341061 -903.37468338 712.08346748 C-903.78167468 694.84459035 -903.78167468 694.84459035 -900.16082764 689.32467651 C-897.65244627 687.0412323 -895.22812007 685.33511517 -892.31738281 683.61230469 C-891.00272326 682.51426187 -889.70606623 681.39364893 -888.44238281 680.23730469 C-887.48332031 679.40199219 -887.48332031 679.40199219 -886.50488281 678.54980469 C-883.25877737 675.67468272 -880.07149625 672.73604831 -876.88037109 669.80029297 C-873.70994349 666.88469409 -870.5236066 663.98862764 -867.31738281 661.11230469 C-862.12676395 656.45235612 -856.98625439 651.73872194 -851.84960938 647.01953125 C-849.8389047 645.17286112 -847.82641336 643.32814548 -845.8137207 641.48364258 C-844.81277144 640.5663099 -843.81195853 639.64882841 -842.8112793 638.73120117 C-840.350383 636.47461474 -837.88785601 634.21987602 -835.42285156 631.96777344 C-828.12941835 625.29921269 -820.88737179 618.57714201 -813.68041992 611.81518555 C-811.88937677 610.14553141 -810.09032955 608.48668161 -808.28442383 606.83325195 C-796.46672398 595.96663591 -785.18931624 584.56368127 -773.87988281 573.17480469 C-770.92625043 570.20061479 -767.97192326 567.22713446 -765.01365662 564.2575531 C-763.18921 562.42567586 -761.36700909 560.59155813 -759.54750061 558.754776 C-748.7194883 547.88376859 -737.7298674 539.18975514 -724.37988281 531.61230469 C-723.24180176 530.96148926 -722.1037207 530.31067383 -720.93115234 529.64013672 C-717.39830554 527.62186536 -713.85856746 525.61590089 -710.31738281 523.61230469 C-709.24053223 523.00225586 -708.16368164 522.39220703 -707.05419922 521.76367188 C-692.95012696 513.7871543 -678.75349408 505.98833441 -664.48193359 498.31591797 C-661.15187977 496.52320731 -657.82636435 494.72224791 -654.50097656 492.92089844 C-641.9300546 486.12868636 -629.2880821 479.51842201 -616.48071289 473.17919922 C-610.14469329 470.04055655 -603.86587964 466.81980017 -597.62988281 463.48730469 C-589.1144734 458.95410411 -580.4456272 454.78627594 -571.72753906 450.65917969 C-567.09755724 448.46614537 -562.48281214 446.24399812 -557.87597656 444.00292969 C-557.23432556 443.69125854 -556.59267456 443.3795874 -555.93157959 443.05847168 C-552.63700898 441.45763422 -549.34518984 439.85147144 -546.05712891 438.23730469 C-539.68084557 435.11994042 -533.29085758 432.13173054 -526.73535156 429.40917969 C-525.54659424 428.90314209 -524.35783691 428.39710449 -523.13305664 427.87573242 C-520.91173386 426.93900346 -518.67625363 426.03486198 -516.42553711 425.17114258 C-512.30896123 423.41497187 -509.14182647 422.06256594 -506.87321472 418.07189941 C-506.50569595 417.09974487 -506.13817719 416.12759033 -505.75952148 415.12597656 C-505.14049957 413.51829155 -505.14049957 413.51829155 -504.50897217 411.87812805 C-504.11574768 410.80040634 -503.72252319 409.72268463 -503.31738281 408.61230469 C-502.96556946 407.66981369 -502.6137561 406.72732269 -502.25128174 405.75627136 C-501.19613855 402.88682547 -500.17301032 400.00762631 -499.15722656 397.12402344 C-498.77501953 396.04822525 -498.3928125 394.97242706 -497.99902344 393.86402893 C-497.17723531 391.55056202 -496.35678629 389.23661907 -495.53756714 386.92224121 C-493.31593272 380.64811008 -491.08223908 374.37827487 -488.84863281 368.10839844 C-488.61918409 367.46404469 -488.38973537 366.81969093 -488.15333366 366.15581131 C-483.64744875 353.50421907 -479.08340204 340.87414319 -474.48937988 328.25427246 C-473.2569579 324.8680063 -472.02680696 321.48092125 -470.796875 318.09375 C-466.96590959 307.55493907 -463.10877321 297.02693119 -459.18638611 286.52175903 C-457.38370228 281.69130618 -455.59071712 276.85727718 -453.79812622 272.02307129 C-452.9429292 269.72626681 -452.08255758 267.43138175 -451.21676636 265.1385498 C-450.02291694 261.97676642 -448.84620455 258.80908393 -447.67285156 255.63964844 C-447.31564026 254.70795334 -446.95842896 253.77625824 -446.59039307 252.81632996 C-444.34190528 246.6731682 -443.87646265 242.96406725 -446.52563477 236.80175781 C-447.03054443 235.84205078 -447.5354541 234.88234375 -448.05566406 233.89355469 C-448.62212646 232.8083252 -449.18858887 231.7230957 -449.7722168 230.60498047 C-450.69176147 228.87610596 -450.69176147 228.87610596 -451.62988281 227.11230469 C-452.26984269 225.89498592 -452.9092396 224.67737105 -453.5480957 223.45947266 C-457.8441712 215.29225495 -462.25250441 207.1871698 -466.70532227 199.10449219 C-471.21347371 190.88815429 -475.5023666 182.56341257 -479.78536987 174.22857666 C-483.86216332 166.29975277 -488.01109061 158.41964747 -492.31738281 150.61230469 C-496.96488409 142.1863471 -501.41898147 133.66984924 -505.81738281 125.11230469 C-510.43846949 116.12695648 -515.10929203 107.17367628 -519.94238281 98.29980469 C-520.41482422 97.4296875 -520.88726563 96.55957031 -521.37402344 95.66308594 C-522.6687126 93.30097679 -523.9847444 90.95318421 -525.31738281 88.61230469 C-525.722229 87.89187988 -526.1270752 87.17145508 -526.54418945 86.42919922 C-529.28678041 81.76564431 -532.2739459 78.45837281 -536.50488281 75.11230469 C-537.07513184 74.6458252 -537.64538086 74.1793457 -538.23291016 73.69873047 C-539.91844209 72.32454784 -541.61593268 70.96669795 -543.31738281 69.61230469 C-544.20296875 68.89816406 -545.08855469 68.18402344 -546.00097656 67.44824219 C-547.61684641 66.15037553 -549.23659591 64.85732305 -550.86035156 63.56933594 C-555.38523163 59.96525818 -559.84531384 56.28153379 -564.31738281 52.61230469 C-566.15048443 51.11202152 -567.98381709 49.61202061 -569.81738281 48.11230469 C-584.48404948 36.11230469 -599.15071615 24.11230469 -613.81738281 12.11230469 C-615.16703125 11.00822266 -615.16703125 11.00822266 -616.54394531 9.88183594 C-618.45586393 8.31729408 -620.36729306 6.75215394 -622.27832031 5.18652344 C-623.23996094 4.39890625 -624.20160156 3.61128906 -625.19238281 2.79980469 C-626.05605469 2.09210938 -626.91972656 1.38441406 -627.80957031 0.65527344 C-629.55965797 -0.77042103 -631.3384541 -2.16127702 -633.13769531 -3.52441406 C-634.21664062 -4.44673828 -634.21664062 -4.44673828 -635.31738281 -5.38769531 C-635.31738281 -6.04769531 -635.31738281 -6.70769531 -635.31738281 -7.38769531 C-633.92236328 -8.51000977 -633.92236328 -8.51000977 -631.93457031 -9.75097656 C-631.19102295 -10.21890625 -630.44747559 -10.68683594 -629.68139648 -11.16894531 C-628.86002197 -11.67425781 -628.03864746 -12.17957031 -627.19238281 -12.70019531 C-626.34071533 -13.23 -625.48904785 -13.75980469 -624.61157227 -14.30566406 C-546.74943554 -62.49492439 -462.80165212 -96.70968892 -339.31738281 -112.38769531 C-338.55200195 -112.4440918 -337.78662109 -112.50048828 -336.99804688 -112.55859375 C-247.90682254 -118.95741097 -156.60337506 -103.17521736 0 0 Z " fill="#FFFFFF" transform="translate(1241.3173828125,113.3876953125)"/>
<path d="M0 0 C1.63671838 -0.00378629 3.27343356 -0.00928889 4.91014099 -0.01637268 C9.34441191 -0.0303097 13.778294 -0.01916742 18.21254325 -0.00266147 C22.86474623 0.01122392 27.51692743 0.00472454 32.16914368 0.00120544 C39.98619826 -0.00149527 47.80309919 0.01196236 55.62011719 0.03515625 C64.63428461 0.06171856 73.64819444 0.06352735 82.66238755 0.05176789 C91.35540579 0.04095187 100.04833161 0.04721009 108.74134254 0.06132317 C112.42963683 0.06705459 116.11786286 0.06702268 119.80615807 0.06225777 C124.16061443 0.05745162 128.51479241 0.06773873 132.86919594 0.08921242 C134.45897101 0.09473301 136.0487731 0.0952896 137.6385498 0.09025955 C155.36975145 0.04123449 169.55982224 3.6040477 182.74731445 16.07983398 C192.36515329 26.54134289 195.53165162 39.57744893 195.27987671 53.46917725 C194.81285669 64.13370578 192.46933768 74.68926633 190.5559082 85.16577148 C190.09619499 87.73237878 189.63736384 90.29914421 189.17936707 92.86605835 C188.22154415 98.22168063 187.25240491 103.57515961 186.27636719 108.92749023 C185.15538354 115.07550929 184.05302496 121.2266489 182.9604643 127.37977755 C181.89948296 133.352266 180.82470125 139.32218304 179.74408531 145.29114914 C179.28979322 147.80767727 178.8389083 150.32482315 178.39164162 152.84260941 C173.58921572 179.79274748 166.42133073 202.4184135 143.8293457 219.62280273 C140.35254913 221.91054439 136.79657355 223.90815269 133.09887695 225.81420898 C132.47537354 226.14001953 131.85187012 226.46583008 131.20947266 226.80151367 C119.84893739 232.36810355 108.29733835 232.94737853 95.90185547 232.92163086 C94.21363265 232.92898509 92.52541483 232.93757522 90.83720398 232.94729614 C86.28809196 232.9693616 81.73916181 232.97245096 77.19000363 232.97054863 C73.38481908 232.9704284 69.57967235 232.9790125 65.7744984 232.98732615 C56.80195074 233.00650061 47.82949612 233.00946345 38.85693359 233.00268555 C29.60556923 232.99602618 20.35460166 233.01899869 11.1033178 233.05599928 C3.14550308 233.08666957 -4.81218366 233.09805991 -12.77005631 233.09416246 C-17.51701198 233.09209479 -22.26365763 233.09757943 -27.01055717 233.12205505 C-31.46693939 233.14427979 -35.92267202 233.14248045 -40.37905693 233.12212753 C-42.01371768 233.11871156 -43.64842188 233.12383189 -45.28302383 233.13811111 C-47.51471484 233.15626258 -49.74419129 233.14358992 -51.97581482 233.12316895 C-53.22400718 233.12388145 -54.47219954 233.12459396 -55.7582159 233.12532806 C-59.91462183 232.33215558 -61.38092603 230.7257262 -64.02612305 227.50170898 C-66.55362848 222.44669813 -64.75609028 216.00723393 -63.76226807 210.65730286 C-63.55824029 209.5179366 -63.55824029 209.5179366 -63.35009074 208.35555285 C-62.89537258 205.82481578 -62.43194842 203.29575433 -61.96850586 200.76660156 C-61.63950377 198.94592029 -61.31103655 197.1251423 -60.98306274 195.30427551 C-60.09169127 190.36446803 -59.19270809 185.4260733 -58.29226017 180.48791337 C-57.34769678 175.30102462 -56.40982286 170.11292635 -55.47113037 164.92497253 C-53.89133495 156.19923626 -52.30696545 147.47434078 -50.71948242 138.75 C-48.69193132 127.60706146 -46.67164479 116.4628193 -44.65379715 105.31812 C-42.90979439 95.68611405 -41.16259902 86.05468761 -39.41480923 76.42336822 C-38.85817001 73.35535682 -38.30191795 70.28727542 -37.74570465 67.21918678 C-36.8643521 62.35888696 -35.98099706 57.49895474 -35.09620285 52.63928032 C-34.77476397 50.87236003 -34.45389968 49.10533507 -34.13370895 47.33818817 C-33.26400265 42.53962084 -32.380302 37.74400227 -31.48035526 32.9510138 C-31.16329498 31.24136565 -30.85281235 29.53049029 -30.5473547 27.81873107 C-30.06177411 25.09772192 -29.55858322 22.38042525 -29.05267334 19.66313171 C-28.90921329 18.83431388 -28.76575324 18.00549604 -28.61794591 17.15156251 C-27.40897916 10.80678909 -25.3049294 6.44493869 -20.27775574 2.1580658 C-14.17073471 -0.95359445 -6.68776075 -0.04399864 0 0 Z M33.97387695 66.50170898 C32.97722387 68.74514999 32.97722387 68.74514999 32.63354492 71.15136719 C32.45961212 72.07064499 32.28567932 72.98992279 32.10647583 73.9370575 C31.93639008 74.9445253 31.76630432 75.9519931 31.59106445 76.98999023 C31.39205536 78.07105545 31.19304626 79.15212067 30.98800659 80.26594543 C30.54480806 82.6825987 30.11020628 85.10083925 29.68273926 87.52032471 C28.93456023 91.75223192 28.14194943 95.97535332 27.34594727 100.19848633 C26.01731206 107.26314293 24.7136842 114.33204506 23.42702103 121.40446281 C22.68347716 125.49101747 21.93582615 129.57671566 21.17797852 133.66064453 C20.43056602 137.68842592 19.69303757 141.71789758 18.96267319 145.74880409 C18.68619313 147.26562117 18.4063197 148.78182408 18.12286758 150.29735374 C17.73050922 152.39926729 17.35095164 154.50312197 16.97436523 156.60791016 C16.75628204 157.79825363 16.53819885 158.98859711 16.31350708 160.2150116 C15.96147163 163.62175879 16.05572163 166.20366083 16.97387695 169.50170898 C20.59441257 171.91539939 23.22925831 171.78426676 27.41113281 171.76049805 C28.16592422 171.76400269 28.92071564 171.76750732 29.69837952 171.77111816 C32.19525328 171.7799257 34.69184401 171.77408925 37.1887207 171.76733398 C38.92363031 171.76868106 40.65853956 171.77062194 42.39344788 171.77313232 C46.0308898 171.77608238 49.66823354 171.77179029 53.30566406 171.76245117 C57.96751455 171.75106518 62.62913453 171.75761142 67.29097652 171.7695961 C70.874331 171.77682515 74.45763089 171.77452181 78.04098701 171.76934052 C79.7597818 171.76800647 81.47858154 171.76964316 83.19737053 171.77429962 C85.60078924 171.77938107 88.00383556 171.7716316 90.40722656 171.76049805 C91.11748993 171.76454651 91.8277533 171.76859497 92.55953979 171.77276611 C97.62754585 171.76505855 97.62754585 171.76505855 101.97387695 169.50170898 C105.03585408 164.71856736 105.91622772 159.76793109 106.875 154.27099609 C107.04124878 153.36131577 107.20749756 152.45163544 107.37878418 151.51438904 C107.92343547 148.52083374 108.45475131 145.52508461 108.9855957 142.52905273 C109.3617679 140.44197962 109.73863466 138.35503158 110.11616516 136.26820374 C110.90430231 131.90067446 111.68623549 127.53209625 112.46337891 123.16259766 C113.45944606 117.56325836 114.46748794 111.96616077 115.47973919 106.36972713 C116.25795865 102.06298589 117.03156425 97.75542666 117.8035984 93.44757271 C118.17377665 91.38332385 118.54498482 89.31925941 118.91724205 87.25538445 C119.43623633 84.37203475 119.94943121 81.48771354 120.4609375 78.60302734 C120.61518692 77.75146057 120.76943634 76.8998938 120.92835999 76.02252197 C122.49068506 69.20530149 122.49068506 69.20530149 120.94918823 62.7154541 C117.91032655 60.84820231 114.83055515 61.06787911 111.36889648 61.08178711 C110.59620422 61.07331757 109.82351196 61.06484802 109.02740479 61.05612183 C106.4703327 61.03270257 103.91386073 61.03173091 101.35668945 61.03295898 C99.57933307 61.02585957 97.80197899 61.01816089 96.02462769 61.0098877 C92.29719679 60.99643101 88.56997771 60.99487906 84.8425293 61.00073242 C80.06835171 61.00662496 75.29519231 60.97606153 70.52121162 60.93561554 C66.84942154 60.90974878 63.17787679 60.90686026 59.50600815 60.9105072 C57.74614786 60.9088145 55.98627642 60.89915748 54.22650528 60.88136292 C51.76286271 60.85919582 49.30128273 60.86886214 46.83764648 60.88647461 C46.11227692 60.87321136 45.38690735 60.85994812 44.63955688 60.84628296 C39.38244962 60.93349396 37.12620485 62.35519774 33.97387695 66.50170898 Z " fill="#FFFFFF" transform="translate(65.026123046875,927.498291015625)"/>
<path d="M0 0 C-3.08072105 41.58973416 -19.38921239 82.83548606 -46 115 C-46.47050781 115.57202148 -46.94101562 116.14404297 -47.42578125 116.73339844 C-61.7843106 134.09433794 -78.34165497 150.20362907 -97.8828125 161.6953125 C-100.13191077 162.82478972 -100.13191077 162.82478972 -101 165 C-101.10464293 167.14545695 -101.15667118 169.2935676 -101.18359375 171.44140625 C-101.24807626 173.45226837 -101.31266696 175.46312896 -101.38061523 177.47387695 C-101.41818784 178.85342055 -101.44029543 180.23348221 -101.44604492 181.61352539 C-101.51836817 192.9546295 -101.51836817 192.9546295 -104.69140625 197.33496094 C-106.81093336 199.19683076 -109.01061783 200.89049804 -111.26382446 202.58554077 C-114.96506109 205.6009319 -118.22636662 209.10837338 -121.5703125 212.5078125 C-123.14149189 214.0876725 -124.71311402 215.66709232 -126.28515625 217.24609375 C-127.89873924 218.87209646 -129.51201813 220.49840099 -131.125 222.125 C-134.31212616 225.33891409 -137.50268624 228.54936303 -140.6953125 231.7578125 C-141.41010773 232.48090607 -142.12490295 233.20399963 -142.86135864 233.94900513 C-155.27908295 246.42636098 -155.27908295 246.42636098 -160 248 C-159.99920441 247.41197601 -159.99840881 246.82395203 -159.99758911 246.21810913 C-159.99514715 240.08546659 -160.0344094 233.95408684 -160.09765625 227.82177734 C-160.11579972 225.53472768 -160.12338777 223.24756851 -160.12011719 220.96044922 C-160.11725551 217.66808622 -160.15262054 214.37798665 -160.1953125 211.0859375 C-160.18621857 210.06696381 -160.17712463 209.04799011 -160.16775513 207.99813843 C-160.26901746 203.02732007 -160.44759808 199.93470922 -164.05029297 196.30712891 C-165.02369629 195.54577637 -165.99709961 194.78442383 -167 194 C-209.69896598 270.05038233 -234.44866636 353.56936171 -248 520 C-247.98211426 520.99854004 -247.96422852 521.99708008 -247.94580078 523.02587891 C-247.3066906 555.20997466 -244.33514619 587.11730149 -240 619 C-240.66 619 -241.32 619 -242 619 C-254.07226908 581.37878073 -262.55662859 543.28254902 -267 504 C-267.11327637 503.00081543 -267.22655273 502.00163086 -267.34326172 500.97216797 C-275.35535227 427.06601198 -266.62814037 351.37497437 -243 281 C-242.63793457 279.91928223 -242.27586914 278.83856445 -241.90283203 277.72509766 C-236.48750224 261.74683246 -230.06534587 246.31421471 -223 231 C-222.52159668 229.95811523 -222.04319336 228.91623047 -221.55029297 227.84277344 C-213.02038855 209.36844351 -203.7796637 191.20479206 -192.21606445 174.42333984 C-190.78501378 172.15288612 -190.78501378 172.15288612 -191.29467773 170.04890442 C-193.47367516 163.71909225 -199.19004456 158.1214926 -205 155 C-213.05558015 152.91753881 -221.5879918 153.77129095 -229.8125 154.1875 C-232.06558732 154.25281862 -234.31885769 154.31211495 -236.57226562 154.36523438 C-242.05222049 154.5073981 -247.52524242 154.72392903 -253 155 C-248.70647489 149.87196808 -244.21160758 145.0643985 -239.4765625 140.34375 C-238.41905289 139.2848053 -238.41905289 139.2848053 -237.34017944 138.20446777 C-235.85724622 136.72085798 -234.37306518 135.23849448 -232.88769531 133.75732422 C-230.63492295 131.5098994 -228.38752763 129.25719771 -226.140625 127.00390625 C-224.69042458 125.55436687 -223.23991388 124.10513783 -221.7890625 122.65625 C-221.12734039 121.99250366 -220.46561829 121.32875732 -219.78384399 120.64489746 C-215.8821783 116.76242702 -211.87173845 113.07096074 -207.68559265 109.49630737 C-205.65457439 107.6933643 -203.93714883 105.69835435 -202.1875 103.625 C-198.42496543 99.89129712 -195.8034955 99.05307519 -190.5625 98.94140625 C-188.7990625 98.97041016 -188.7990625 98.97041016 -187 99 C-185.20831559 98.99141256 -183.416646 98.97938231 -181.625 98.96484375 C-176.41610221 98.93318139 -171.20873264 98.9528523 -166 99 C-165.75507813 98.30261719 -165.51015625 97.60523438 -165.2578125 96.88671875 C-159.02823455 82.58964389 -146.57270979 70.22862384 -136 59 C-135.01580078 57.93458984 -135.01580078 57.93458984 -134.01171875 56.84765625 C-101.39199957 22.69124795 -47.21000777 -0.80016962 0 0 Z " fill="#6DC8F2" transform="translate(594,143)"/>
<path d="M0 0 C0.86139587 -0.01606293 1.72279175 -0.03212585 2.61029053 -0.04867554 C6.55659187 -0.09317437 10.50272503 -0.13420224 14.44921875 -0.15722656 C16.52875979 -0.17377205 18.60824428 -0.2010434 20.6875 -0.23925781 C23.6881252 -0.29411821 26.68741689 -0.31591592 29.68847656 -0.33056641 C30.61368103 -0.35323578 31.5388855 -0.37590515 32.49212646 -0.39926147 C33.36613098 -0.39641144 34.2401355 -0.3935614 35.140625 -0.390625 C35.90292419 -0.39871185 36.66522339 -0.40679871 37.45062256 -0.41513062 C41.04906021 0.50472457 43.48339165 2.39955275 45.82910156 5.19287109 C47.17480181 7.87624719 47.91240954 10.62235312 48.64990234 13.5246582 C48.99270737 14.76486221 48.99270737 14.76486221 49.34243774 16.03012085 C50.09023168 18.75504572 50.80728662 21.48707472 51.52441406 24.22021484 C52.0424362 26.13060916 52.56239615 28.04047897 53.084198 29.94984436 C54.45295175 34.97827128 55.79592987 40.0132304 57.13342285 45.05004883 C58.48711844 50.13098805 59.8638298 55.20567083 61.23925781 60.28076172 C62.79036894 66.00871348 64.33917888 71.73720135 65.87063599 77.47044373 C66.10429304 78.34476327 66.3379501 79.21908281 66.57868767 80.11989689 C67.030704 81.81175922 67.48228286 83.5037385 67.93338203 85.1958456 C69.57143972 91.31170587 71.31982029 97.38772665 73.14498901 103.45069885 C73.82910156 106.19287109 73.82910156 106.19287109 73.82910156 110.19287109 C74.48910156 110.19287109 75.14910156 110.19287109 75.82910156 110.19287109 C76.15334106 109.21362671 76.15334106 109.21362671 76.48413086 108.21459961 C78.31870345 104.09288878 80.80082832 100.55750533 83.34863281 96.84521484 C83.91105682 96.0168512 84.47348083 95.18848755 85.052948 94.33502197 C86.27290602 92.53863862 87.49486765 90.74361468 88.71859741 88.94979858 C92.00828718 84.12659434 95.28257342 79.29297468 98.55566406 74.45849609 C99.23451157 73.45614426 99.91335907 72.45379242 100.61277771 71.42106628 C109.23852445 58.66167167 117.67783323 45.77924223 126.10766602 32.88989258 C131.09534482 25.27317376 136.09507874 17.66133502 141.28613281 10.18115234 C142.02452393 9.11034424 142.76291504 8.03953613 143.52368164 6.9362793 C146.54954648 3.33555461 149.21629482 0.63342569 154.01448059 -0.1756134 C156.62842228 -0.35236342 159.20924327 -0.38777289 161.82910156 -0.37353516 C162.78300781 -0.37973373 163.73691406 -0.38593231 164.71972656 -0.39231873 C166.73013288 -0.39940095 168.74059805 -0.39627088 170.75097656 -0.38354492 C173.81978593 -0.36967102 176.885549 -0.4037835 179.95410156 -0.44189453 C181.91243564 -0.44284574 183.87077352 -0.4409868 185.82910156 -0.43603516 C187.19808594 -0.45592247 187.19808594 -0.45592247 188.59472656 -0.47621155 C192.63760061 -0.41736802 196.00077618 -0.19275992 199.45410156 2.04467773 C203.40887665 7.28695002 202.21327971 13.16171804 201.41301537 19.47577763 C200.82362772 23.17782115 200.16821724 26.86251533 199.48999023 30.54931641 C199.2379064 31.95814009 198.98664309 33.3671108 198.73612976 34.7762146 C198.05889666 38.57094354 197.36970083 42.36340534 196.67773986 46.15547276 C195.95250676 50.13893485 195.23693164 54.12413361 194.51985168 58.10906982 C193.31522201 64.79450228 192.10269843 71.47846672 190.88549805 78.16162109 C189.48069545 85.87542081 188.08884539 93.59147357 186.70378703 101.30884099 C185.36707715 108.75491539 184.02086485 116.19924229 182.67046547 123.64284515 C182.09760606 126.80159039 181.52811653 129.9609153 180.96138573 133.12076569 C180.29353135 136.84211018 179.61735959 140.56185078 178.93486214 144.28053665 C178.68648482 145.64130012 178.44092866 147.00258217 178.1984787 148.36441422 C175.18038578 165.29183279 175.18038578 165.29183279 169.89160156 169.56787109 C163.52342318 172.94690452 157.18618612 172.41294188 150.09448242 172.43310547 C148.03360315 172.44279119 145.9737307 172.47383187 143.91308594 172.50537109 C131.2104927 172.55525855 131.2104927 172.55525855 125.82910156 169.19287109 C119.97314403 160.4089348 125.42830035 145.39552272 127.32910156 135.69287109 C127.83118183 133.08763772 128.33040804 130.48189028 128.82702637 127.87561035 C129.13488938 126.26445791 129.44634674 124.65398705 129.76184082 123.04431152 C130.34174706 120.044101 130.82910156 117.25672426 130.82910156 114.19287109 C130.5255777 114.6503775 130.22205383 115.10788391 129.90933228 115.57925415 C126.69916457 120.41693323 123.48552616 125.25229383 120.27001953 130.08642578 C119.07645122 131.88175279 117.88371769 133.6776351 116.69189453 135.47412109 C110.96557389 144.10453875 105.23592073 152.73493219 99.29003906 161.21630859 C98.54286621 162.2854248 97.79569336 163.35454102 97.02587891 164.45605469 C91.88139684 170.86521716 91.88139684 170.86521716 87.56378174 171.55453491 C84.69451356 171.72366396 81.85561652 171.74712648 78.98144531 171.72412109 C77.93259659 171.727948 76.88374786 171.7317749 75.80311584 171.73571777 C73.5900069 171.73843525 71.37686574 171.73108564 69.16381836 171.71435547 C65.77482664 171.69292311 62.38794979 171.71417486 58.99902344 171.73974609 C56.84732605 171.73710321 54.69562998 171.73197905 52.54394531 171.72412109 C51.53033432 171.73221802 50.51672333 171.74031494 49.47239685 171.74865723 C42.52214937 171.65588006 42.52214937 171.65588006 39.28930664 169.49609375 C37.68299548 166.96241385 36.67385483 164.66688819 35.75097656 161.81005859 C35.3983374 160.73667236 35.04569824 159.66328613 34.68237305 158.55737305 C34.31829346 157.4058374 33.95421387 156.25430176 33.57910156 155.06787109 C33.1950415 153.88475342 32.81098145 152.70163574 32.4152832 151.48266602 C28.41737303 139.095779 24.59297171 126.65263274 20.82910156 114.19287109 C19.21355215 119.46814342 18.13793323 124.68655475 17.24316406 130.12646484 C16.94941857 131.8446537 16.65513101 133.56274995 16.36035156 135.28076172 C15.90508043 137.95670611 15.45365163 140.63309778 15.01171875 143.3112793 C14.57954765 145.91844008 14.13129362 148.52243958 13.68066406 151.12646484 C13.55446686 151.91629257 13.42826965 152.7061203 13.29824829 153.5198822 C12.18671906 159.8331081 10.53091749 165.78462704 5.61816406 170.16357422 C1.81698463 171.56639044 -1.79558846 171.66060081 -5.79589844 171.66162109 C-6.62041504 171.66923462 -7.44493164 171.67684814 -8.29443359 171.68469238 C-10.03252137 171.69546701 -11.77067374 171.69835722 -13.50878906 171.69384766 C-16.16288281 171.69287403 -18.81409579 171.73454785 -21.46777344 171.77880859 C-23.16047577 171.78401518 -24.8531881 171.78670379 -26.54589844 171.78662109 C-27.33561035 171.80301636 -28.12532227 171.81941162 -28.93896484 171.83630371 C-32.82758103 171.78768549 -34.82055049 171.406097 -38.20996094 169.34326172 C-43.1868009 161.3476015 -39.43217054 149.53069064 -37.83178711 140.82055664 C-37.57970641 139.41010971 -37.32844299 137.99951651 -37.07792664 136.58879089 C-36.40072397 132.78999303 -35.71154011 128.9934639 -35.01953673 125.19733787 C-34.29441078 121.21071852 -33.5787961 117.22238995 -32.86164856 113.23432922 C-31.65708271 106.54468964 -30.44450548 99.85653899 -29.22729492 93.16918945 C-27.82194069 85.44751211 -26.43024442 77.72346511 -25.0455839 69.9980523 C-23.70960849 62.54650162 -22.36317123 55.09687634 -21.01226234 47.64801979 C-20.43899519 44.48572726 -19.86953133 41.32278513 -19.3031826 38.15924644 C-18.63608116 34.43530042 -17.95986135 30.71312252 -17.27665901 26.99209785 C-17.02797099 25.62935767 -16.78241303 24.26604185 -16.54027557 22.9021225 C-16.20837125 21.03558776 -15.86382669 19.17131404 -15.51872253 17.30717468 C-15.32975497 16.26508693 -15.14078741 15.22299917 -14.94609356 14.149333 C-13.40282365 8.26356491 -11.17683817 4.65852168 -6.17089844 1.19287109 C-3.88474772 0.04979573 -2.54289133 0.04307984 0 0 Z " fill="#FFFFFF" transform="translate(965.1708984375,988.80712890625)"/>
<path d="M0 0 C0.77137802 -0.00701431 1.54275604 -0.01402863 2.33750916 -0.02125549 C4.81491003 -0.03865915 7.29207147 -0.04510842 9.76953125 -0.046875 C10.61795593 -0.04754974 11.46638062 -0.04822449 12.34051514 -0.04891968 C25.6216135 -0.03215418 38.53824663 0.49008132 51.58203125 3.203125 C52.4121875 3.37473145 53.24234375 3.54633789 54.09765625 3.72314453 C105.06238386 14.65672011 152.96170239 43.58652012 183.58203125 86.203125 C184.05705078 86.86086914 184.53207031 87.51861328 185.02148438 88.19628906 C193.82517976 100.53190176 200.82174599 113.66225332 207.58203125 127.203125 C207.98212402 127.90002441 208.3822168 128.59692383 208.79443359 129.31494141 C209.58203125 131.203125 209.58203125 131.203125 208.58203125 134.203125 C208.19047852 133.7812793 207.79892578 133.35943359 207.39550781 132.92480469 C203.46383879 128.69476032 199.51430683 124.48211634 195.54785156 120.28466797 C194.35169563 119.01809749 193.15773706 117.7494408 191.96777344 116.47705078 C179.34748721 103.03149433 164.46721398 92.4664291 148.58203125 83.203125 C147.99309082 82.85443359 147.40415039 82.50574219 146.79736328 82.14648438 C103.75525641 56.91698379 48.71859302 49.61386956 0.38574219 61.45605469 C-41.75034913 72.68353984 -79.12445438 94.87335159 -106.41796875 129.203125 C-107.61099609 130.65332031 -107.61099609 130.65332031 -108.828125 132.1328125 C-127.52600819 155.42367808 -139.4982616 183.5899124 -146.23046875 212.515625 C-146.42543945 213.34940674 -146.62041016 214.18318848 -146.82128906 215.04223633 C-149.83049468 228.76012736 -150.80235331 242.38639734 -150.73046875 256.390625 C-150.7283136 257.15347809 -150.72615845 257.91633118 -150.72393799 258.70230103 C-150.60083446 285.98254058 -144.55116914 311.55243455 -135.41796875 337.203125 C-138.8599576 336.05579538 -139.29322468 335.34814372 -141.2734375 332.44140625 C-141.8094458 331.65934814 -142.3454541 330.87729004 -142.89770508 330.0715332 C-143.7430481 328.80635864 -143.7430481 328.80635864 -144.60546875 327.515625 C-145.18772217 326.65219482 -145.76997559 325.78876465 -146.36987305 324.89916992 C-151.08113444 317.84568254 -155.42912886 310.69394424 -159.41796875 303.203125 C-159.74071777 302.61063965 -160.0634668 302.0181543 -160.39599609 301.40771484 C-172.87777296 278.38360915 -180.81801759 252.27016775 -183.41796875 226.203125 C-183.52753906 225.22859375 -183.63710938 224.2540625 -183.75 223.25 C-186.74894271 192.06099579 -183.14647012 159.68189711 -172.41796875 130.203125 C-172.14114258 129.44112793 -171.86431641 128.67913086 -171.57910156 127.89404297 C-159.77150756 95.93694937 -140.53315503 64.52095663 -113.41796875 43.203125 C-112.88397461 42.77854004 -112.34998047 42.35395508 -111.79980469 41.91650391 C-80.14079507 16.89894874 -40.81024877 0.25092685 0 0 Z " fill="#FFFFFF" transform="translate(1065.41796875,389.796875)"/>
<path d="M0 0 C1.30709306 -0.00935994 1.30709306 -0.00935994 2.64059204 -0.01890898 C5.55412365 -0.03483607 8.46681833 -0.02223585 11.38035583 -0.00964355 C13.4716287 -0.01506475 15.56289774 -0.0221874 17.65415955 -0.03088379 C23.32967405 -0.04911909 29.00489771 -0.04204892 34.6804173 -0.02936745 C40.61848565 -0.01924228 46.55652906 -0.02863166 52.49459839 -0.03491211 C62.46551486 -0.04218933 72.43631282 -0.03259817 82.4072113 -0.0135498 C93.93848937 0.00822496 105.46948462 0.00116335 117.00075585 -0.02085543 C126.89898685 -0.03900009 136.79713265 -0.04157247 146.69537491 -0.03110075 C152.60823862 -0.02486149 158.52096934 -0.0240423 164.43382454 -0.0372467 C169.99152766 -0.04879112 175.54886561 -0.04080496 181.10652924 -0.01766968 C183.14753805 -0.01237535 185.18857754 -0.01390868 187.2295742 -0.02272034 C190.01300377 -0.03363053 192.79525881 -0.01996703 195.57861328 0 C196.38872834 -0.00892289 197.1988434 -0.01784577 198.03350741 -0.02703905 C201.80727845 0.02557148 203.99353533 0.35920879 207.20376492 2.41468048 C210.64198654 5.97397516 210.48226484 8.53896931 210.43089294 13.30285645 C210.04834652 19.28151064 208.96494338 25.14761278 207.88206482 31.03186035 C207.47457343 33.26473687 207.09181909 35.5009794 206.71018982 37.73840332 C206.45125885 39.17747352 206.19089199 40.61628625 205.92893982 42.05480957 C205.6985199 43.34226074 205.46809998 44.62971191 205.23069763 45.95617676 C203.35214204 52.59593057 200.17791026 56.14929546 194.22581482 59.50793457 C190.89823914 60.02018738 190.89823914 60.02018738 187.24241638 60.03796387 C186.57175644 60.04669525 185.9010965 60.05542664 185.21011353 60.06442261 C183.01194438 60.08865573 180.81472482 60.0853979 178.61643982 60.08215332 C177.08279326 60.09460602 175.54916095 60.10894234 174.01554871 60.12507629 C169.99187757 60.1630138 165.96845235 60.17827592 161.94462585 60.18786621 C155.49045456 60.20765205 149.03646976 60.2643953 142.58249664 60.31662941 C140.32786418 60.33199032 138.07332488 60.33916792 135.81864929 60.34477234 C134.44297743 60.35178606 133.06730602 60.35888678 131.69163513 60.36608887 C130.488396 60.36956833 129.28515686 60.37304779 128.04545593 60.37663269 C125.27432301 60.31487885 125.27432301 60.31487885 123.22581482 61.50793457 C122.56340981 63.50549856 122.56340981 63.50549856 122.13478088 65.97309875 C121.84981656 67.4165128 121.84981656 67.4165128 121.55909538 68.88908672 C121.35903955 69.9528695 121.15898373 71.01665228 120.9528656 72.1126709 C120.73685259 73.22802373 120.52083958 74.34337656 120.29828072 75.49252796 C117.86376761 88.17309283 115.59763051 100.88509882 113.34415817 113.59885216 C112.57409551 117.94247102 111.79841175 122.2850757 111.02174377 126.6275177 C108.81802805 138.95206905 106.6174212 151.27715812 104.43138123 163.6048584 C103.2150065 170.46407647 101.99200565 177.32207786 100.76151955 184.17877895 C100.11425862 187.78718876 99.47042361 191.3961343 98.83488083 195.00662804 C98.12997754 199.01109221 97.41067257 203.01283941 96.69017029 207.01452637 C96.48439362 208.19732681 96.27861694 209.38012726 96.06660461 210.59877014 C94.55322121 218.90405944 92.7702885 224.7815201 86.22581482 230.50793457 C83.2168846 231.51091131 81.15472505 231.65189184 78.0075531 231.68493652 C76.94279755 231.69777176 75.87804199 231.71060699 74.78102112 231.72383118 C73.05599869 231.73491158 73.05599869 231.73491158 71.29612732 231.74621582 C70.1136441 231.75428757 68.93116089 231.76235931 67.71284485 231.77067566 C65.20953334 231.78451267 62.706203 231.79523653 60.2028656 231.80310059 C56.3729136 231.82033513 52.54381985 231.86422893 48.71409607 231.9083252 C46.28311284 231.9184502 43.85212227 231.9269669 41.42112732 231.93371582 C40.27516083 231.95122391 39.12919434 231.96873199 37.94850159 231.98677063 C29.99496356 231.96504578 29.99496356 231.96504578 26.02610779 229.60632324 C22.27551822 225.2347044 22.8826468 221.05040497 23.22581482 215.50793457 C23.91159253 210.35453144 24.84895574 205.25420197 25.79612732 200.14416504 C26.07273819 198.61575181 26.34857541 197.08719839 26.623703 195.55851746 C27.36792054 191.43588857 28.12286123 187.31528989 28.87982941 183.19498587 C29.67089298 178.87866187 30.45195978 174.56052956 31.2341156 170.24258423 C32.71456404 162.07824782 34.20391884 153.91556294 35.69652748 145.75344193 C37.39630463 136.45597737 39.08607324 127.15670271 40.77502823 117.85726714 C44.24753772 98.7387962 47.73252934 79.6226197 51.22581482 60.50793457 C50.36217316 60.50650955 49.49853149 60.50508453 48.60871887 60.50361633 C40.45757472 60.48576437 32.30697207 60.44408604 24.15608788 60.375844 C19.96587891 60.34159713 15.77603363 60.31646768 11.5856781 60.31237793 C7.53936625 60.30808992 3.49387448 60.27958677 -0.55218124 60.23450279 C-2.0934356 60.22154364 -3.63478817 60.21721454 -5.17609024 60.22178078 C-7.34070404 60.22669869 -9.50293175 60.20054918 -11.66725159 60.1673584 C-13.5125798 60.15736565 -13.5125798 60.15736565 -15.39518738 60.14717102 C-19.90776258 59.29348519 -21.56608269 57.75744433 -24.77418518 54.50793457 C-26.86017983 46.03787116 -24.12752868 36.07827225 -22.43043518 27.61218262 C-22.02039197 25.5513705 -21.63858996 23.48657768 -21.25856018 21.42004395 C-20.99980453 20.08573638 -20.73944582 18.75173847 -20.47731018 17.41809082 C-20.24689026 16.23352295 -20.01647034 15.04895508 -19.77906799 13.82849121 C-16.67600082 3.57464848 -10.10490953 -0.11160628 0 0 Z " fill="#6DC8F2" transform="translate(1348.774185180664,928.4920654296875)"/>
<path d="M0 0 C1.09192657 -0.00571014 2.18385315 -0.01142029 3.30886841 -0.01730347 C4.50731888 -0.01842133 5.70576935 -0.01953918 6.9405365 -0.02069092 C8.83367584 -0.02813828 8.83367584 -0.02813828 10.76506042 -0.03573608 C14.23031921 -0.0488554 17.69555862 -0.05530489 21.16083837 -0.05974674 C23.32867838 -0.06268008 25.49651314 -0.06678552 27.66435051 -0.07125092 C34.45495837 -0.0849287 41.24555416 -0.09459225 48.03617483 -0.09845281 C55.85918111 -0.1029252 63.68201193 -0.12043365 71.50496489 -0.1494534 C77.56033686 -0.17113103 83.61565971 -0.18116043 89.67107004 -0.18249393 C93.28311215 -0.18353822 96.8949894 -0.18936464 100.50699043 -0.20731354 C104.54484151 -0.22698702 108.58233012 -0.22248115 112.620224 -0.21600342 C113.80450485 -0.2252182 114.98878571 -0.23443298 116.20895386 -0.243927 C128.50632372 -0.18232039 137.79571255 2.81901665 146.93247986 11.14434814 C155.13826891 19.6231579 157.05764081 27.99201952 157.04270935 39.52493286 C156.89054921 48.49495044 155.42630844 57.19512686 153.75474548 65.99102783 C153.23325066 68.76549746 152.75565604 71.54526973 152.28013611 74.32794189 C149.02786041 92.37942172 142.75604089 108.01057158 127.48326111 119.14044189 C124.53400427 121.16923004 122.20484666 122.35883294 118.73326111 123.14044189 C120.56407775 126.51681266 122.3984554 129.89123749 124.23326111 133.26544189 C124.77627869 134.26704346 125.31929626 135.26864502 125.87876892 136.30059814 C128.29487929 140.74132613 130.716518 145.1683643 133.31138611 149.50762939 C133.68328064 150.13266357 134.05517517 150.75769775 134.43833923 151.40167236 C135.41654425 153.02942379 136.4102907 154.64780709 137.40513611 156.26544189 C138.91085069 159.52487111 139.13925288 161.59048947 138.73326111 165.14044189 C136.93332336 167.84034851 135.64948811 169.68232839 132.73326111 171.14044189 C131.1566699 171.24562645 129.57575956 171.28915582 127.99571228 171.30157471 C126.51859016 171.31598602 126.51859016 171.31598602 125.0116272 171.33068848 C123.94394608 171.33493835 122.87626495 171.33918823 121.77622986 171.34356689 C120.68111588 171.34926697 119.58600189 171.35496704 118.45770264 171.36083984 C116.13672352 171.37029902 113.81573092 171.37682746 111.49473572 171.38067627 C107.9457499 171.39037361 104.39734508 171.42138561 100.84849548 171.45294189 C98.59524372 171.45947262 96.34198781 171.46472282 94.08872986 171.46856689 C93.02712143 171.4809137 91.965513 171.4932605 90.87173462 171.50598145 C81.49732106 171.47768391 81.49732106 171.47768391 77.73326111 168.14044189 C76.39048767 166.34136963 76.39048767 166.34136963 75.37388611 164.32403564 C74.7899408 163.18974121 74.7899408 163.18974121 74.19419861 162.03253174 C73.79458923 161.22251709 73.39497986 160.41250244 72.98326111 159.57794189 C72.55787048 158.74472412 72.13247986 157.91150635 71.69419861 157.05303955 C69.47698981 152.69323957 67.31896274 148.30425656 65.15513611 143.91778564 C64.74747009 143.09415527 64.33980408 142.2705249 63.91978455 141.42193604 C63.13981423 139.84000859 62.36680495 138.25462643 61.60142517 136.66558838 C59.91995706 132.72880082 59.91995706 132.72880082 56.73326111 130.14044189 C53.96165485 130.05360744 51.21551346 130.024884 48.44419861 130.04278564 C47.62577484 130.04420059 46.80735107 130.04561554 45.96412659 130.04707336 C43.34546786 130.052679 40.72689407 130.06523241 38.10826111 130.07794189 C36.33482484 130.08295617 34.56138724 130.0875192 32.78794861 130.09161377 C28.43635329 130.10265025 24.08482161 130.11991864 19.73326111 130.14044189 C18.24803545 136.34522022 16.78832662 142.53847956 15.70591736 148.82794189 C15.55316345 149.71094971 15.40040955 150.59395752 15.24302673 151.50372314 C14.93980244 153.29128992 14.64581798 155.0804441 14.36021423 156.87091064 C13.46350914 161.95098886 12.62695582 165.46903914 8.73326111 169.14044189 C5.92729627 170.79631964 3.84058097 171.3978119 0.59483337 171.44683838 C-0.611782 171.47081947 -0.611782 171.47081947 -1.84277344 171.49528503 C-2.70326797 171.50064774 -3.56376251 171.50601044 -4.45033264 171.51153564 C-5.34285233 171.52056412 -6.23537201 171.52959259 -7.15493774 171.53889465 C-9.04023388 171.55338418 -10.92558016 171.56228067 -12.81092834 171.565979 C-15.69094094 171.57788691 -18.56881819 171.6270931 -21.44837952 171.67755127 C-23.28235346 171.68701471 -25.11634053 171.69425012 -26.95033264 171.69903564 C-28.2380381 171.72833412 -28.2380381 171.72833412 -29.55175781 171.75822449 C-33.61311561 171.72765864 -35.80449828 171.41749336 -39.34901428 169.29302979 C-44.24444267 161.24533191 -40.5306217 149.49247023 -38.92762756 140.76812744 C-38.67554687 139.35768051 -38.42428344 137.94708731 -38.17376709 136.53636169 C-37.49656443 132.73756384 -36.80738056 128.9410347 -36.11537719 125.14490867 C-35.39025123 121.15828932 -34.67463655 117.16996075 -33.95748901 113.18190002 C-32.75292316 106.49226044 -31.54034593 99.80410979 -30.32313538 93.11676025 C-28.91778114 85.39508291 -27.52608487 77.67103591 -26.14142436 69.9456231 C-24.80544894 62.49407243 -23.45901168 55.04444714 -22.1081028 47.59559059 C-21.53483564 44.43329806 -20.96537179 41.27035593 -20.39902306 38.10681725 C-19.73192161 34.38287122 -19.0557018 30.66069332 -18.37249947 26.93966866 C-18.12381144 25.57692847 -17.87825348 24.21361265 -17.63611603 22.8496933 C-17.30421171 20.98315856 -16.95966714 19.11888484 -16.61456299 17.25474548 C-16.42559543 16.21265773 -16.23662786 15.17056997 -16.04193401 14.0969038 C-14.65337574 8.8011795 -12.46716087 4.68454794 -8.26673889 1.14044189 C-5.22881625 0.12780101 -3.1786116 0.00994995 0 0 Z M33.73326111 46.14044189 C33.09243314 49.34092212 32.45188552 52.5414584 31.81138611 55.74200439 C31.63107849 56.64249512 31.45077087 57.54298584 31.26499939 58.47076416 C28.64606133 70.71072225 28.64606133 70.71072225 27.73326111 83.14044189 C35.86099532 83.25641038 43.98838259 83.34519366 52.11674023 83.39950275 C55.89131121 83.42557172 59.66531524 83.46091818 63.43955994 83.51763916 C67.08356592 83.5720587 70.72702742 83.60188275 74.37140846 83.61482811 C75.76011538 83.62405046 77.14879325 83.64206042 78.53726768 83.66909218 C80.48535855 83.7055026 82.43400002 83.70748528 84.38243103 83.70806885 C85.4905162 83.71917191 86.59860138 83.73027496 87.74026489 83.74171448 C91.7184273 82.94252871 93.1976918 81.2337947 95.73326111 78.14044189 C96.86436866 75.2522669 96.86436866 75.2522669 97.35044861 72.10528564 C97.56443298 70.96639893 97.77841736 69.82751221 97.99888611 68.65411377 C98.19997986 67.47397705 98.40107361 66.29384033 98.60826111 65.07794189 C98.83255798 63.89393799 99.05685486 62.70993408 99.28794861 61.49005127 C100.78690268 54.7675647 100.78690268 54.7675647 99.73326111 48.14044189 C97.88680535 45.86677128 97.88680535 45.86677128 95.06306458 45.89993286 C93.93055267 45.90437408 92.79804077 45.90881531 91.63121033 45.91339111 C90.35003326 45.91354218 89.0688562 45.91369324 87.74885559 45.91384888 C86.34521837 45.92406294 84.94158271 45.93449495 83.53794861 45.94512939 C82.10591326 45.94885898 80.67387536 45.95170621 79.24183655 45.95370483 C75.47047394 45.96134562 71.69926507 45.98099781 67.92796326 46.00311279 C64.08053162 46.0235617 60.23307516 46.0327045 56.38560486 46.04278564 C48.83475347 46.06424339 41.28402882 46.09838457 33.73326111 46.14044189 Z " fill="#FFFFFF" transform="translate(325.26673889160156,988.8595581054688)"/>
<path d="M0 0 C1.2562468 -0.00845947 2.51249359 -0.01691895 3.80680847 -0.02563477 C5.19122445 -0.01980245 6.57563914 -0.01365798 7.96005249 -0.00723267 C9.42388806 -0.0112995 10.88772055 -0.01664201 12.35154724 -0.02316284 C16.32041101 -0.03682662 20.28904054 -0.03154238 24.25790834 -0.02202559 C28.41118276 -0.01442699 32.5644372 -0.02147489 36.7177124 -0.02618408 C43.68996786 -0.03163983 50.66212793 -0.0244535 57.6343689 -0.01016235 C65.69891573 0.00617665 73.76323519 0.00086593 81.82777655 -0.01564157 C88.75102901 -0.02924633 95.67421295 -0.03118145 102.59747446 -0.02332556 C106.73293498 -0.01864512 110.86828853 -0.01803461 115.00374222 -0.02793503 C118.8894792 -0.03658823 122.77492221 -0.03061325 126.66062737 -0.01325226 C128.08809228 -0.00927911 129.51558186 -0.01043561 130.94303703 -0.01704025 C132.88820397 -0.02521197 134.83342485 -0.01315749 136.77856445 0 C137.86808222 0.00113108 138.95759998 0.00226215 140.08013344 0.00342751 C142.76229858 0.38095093 142.76229858 0.38095093 144.61289024 1.7800808 C148.00403414 6.50318988 145.63189182 14.7772947 144.77401733 20.08798218 C144.34199403 22.45820121 143.90042419 24.8266981 143.44979858 27.19345093 C143.23645874 28.39421265 143.0231189 29.59497437 142.80331421 30.8321228 C142.47943726 32.56752319 142.47943726 32.56752319 142.14901733 34.33798218 C141.85837402 35.89996338 141.85837402 35.89996338 141.56185913 37.49349976 C140.5157673 41.27124879 139.36942008 44.39615553 135.92567825 46.50637627 C133.59490971 47.44862008 131.98796297 47.62774908 129.4848938 47.62145996 C128.63797974 47.62420929 127.79106567 47.62695862 126.91848755 47.62979126 C125.53744843 47.61900543 125.53744843 47.61900543 124.12850952 47.60800171 C123.15256836 47.60829376 122.1766272 47.60858582 121.17111206 47.60888672 C117.94620871 47.6074937 114.72153657 47.59193363 111.49667358 47.57626343 C109.26036709 47.5725332 107.02405896 47.56968628 104.78775024 47.56768799 C98.90226732 47.56005229 93.01688313 47.54040426 87.13143921 47.51828003 C81.12559342 47.49782029 75.11973168 47.48868599 69.11386108 47.47860718 C57.32996354 47.45715839 45.54613927 47.42302313 33.76229858 47.38095093 C32.77229858 52.66095093 31.78229858 57.94095093 30.76229858 63.38095093 C33.12925903 63.36524048 35.49621948 63.34953003 37.93490601 63.33334351 C45.75796312 63.28361983 53.58102724 63.25049083 61.40420055 63.22551441 C66.14710542 63.20986283 70.88984828 63.18863378 75.63265991 63.15463257 C80.21030074 63.12202108 84.7877858 63.10409409 89.36553383 63.0963192 C91.11143763 63.09077891 92.85733296 63.07996004 94.60317039 63.06376076 C97.0498734 63.04196251 99.49593391 63.03898497 101.94271851 63.04037476 C102.66345047 63.02958893 103.38418243 63.0188031 104.12675476 63.00769043 C108.49660432 63.03452405 111.32215853 63.62962468 114.76229858 66.38095093 C117.01459917 73.09169899 114.82451887 80.18297901 113.51229858 86.94345093 C113.29444702 88.1493689 113.07659546 89.35528687 112.85214233 90.5977478 C110.20248138 104.62855478 110.20248138 104.62855478 106.15158081 107.53767395 C102.74398489 108.74035614 99.44020426 108.64252619 95.87265015 108.60800171 C95.08202682 108.60829376 94.2914035 108.60858582 93.4768219 108.60888672 C90.86874338 108.6074956 88.26095207 108.59194472 85.65292358 108.57626343 C83.84260209 108.57253252 82.03227858 108.56968592 80.22195435 108.56768799 C75.46095184 108.56005764 70.70007166 108.54041426 65.93911743 108.51828003 C61.0794134 108.49780873 56.21968957 108.48868352 51.35995483 108.47860718 C41.82734905 108.45716783 32.294834 108.42303907 22.76229858 108.38095093 C22.62952515 109.2961853 22.49675171 110.21141968 22.35995483 111.15438843 C22.09505249 112.93716187 22.09505249 112.93716187 21.82479858 114.75595093 C21.65077515 115.9393103 21.47675171 117.12266968 21.29745483 118.34188843 C20.76229858 121.38095093 20.76229858 121.38095093 19.76229858 123.38095093 C21.60939423 123.37428909 21.60939423 123.37428909 23.49380493 123.36749268 C35.08887027 123.32697936 46.68392128 123.29698227 58.27904129 123.27732658 C64.24044999 123.26688178 70.20180163 123.25270977 76.16317749 123.23007202 C81.91438102 123.20836863 87.66552961 123.19638755 93.41677094 123.19119644 C95.61285009 123.18749619 97.80892618 123.1802707 100.00498199 123.16949081 C103.07682332 123.1550093 106.14843652 123.1529716 109.2203064 123.15390015 C110.13164841 123.14670959 111.04299042 123.13951904 111.98194885 123.1321106 C113.23969872 123.13623459 113.23969872 123.13623459 114.52285767 123.14044189 C115.24923054 123.13859831 115.97560341 123.13675472 116.72398758 123.13485527 C119.12187398 123.42436429 120.71288512 124.1154491 122.76229858 125.38095093 C126.15535552 132.16706481 122.79112259 141.87627768 121.41854858 148.95443726 C121.01178061 151.07114631 120.6288404 153.19132073 120.24667358 155.31259155 C119.98769822 156.67289278 119.72732933 158.03292961 119.46542358 159.39266968 C119.23500366 160.6142981 119.00458374 161.83592651 118.7671814 163.09457397 C117.66144521 166.71078262 116.43951852 168.72599034 113.76229858 171.38095093 C110.48918594 172.53793971 107.33421464 172.50913058 103.88609314 172.5146637 C102.08384781 172.52106117 102.08384781 172.52106117 100.24519348 172.52758789 C98.27281456 172.52690811 98.27281456 172.52690811 96.2605896 172.5262146 C94.85926219 172.52920736 93.45793561 172.53261016 92.05661011 172.53639221 C88.25290914 172.54522378 84.44923068 172.54756995 80.64552045 172.548208 C78.26882967 172.54891889 75.89214461 172.55105394 73.51545525 172.55370522 C65.22330233 172.56295529 56.93116548 172.56704046 48.63900757 172.56625366 C40.91027988 172.5656527 33.18162195 172.57620895 25.45291191 172.59199733 C18.81586204 172.60507237 12.17883496 172.61043759 5.54177231 172.60979825 C1.57839152 172.60954329 -2.38492725 172.61239377 -6.34829521 172.6229763 C-10.07554586 172.63265687 -13.80267519 172.63273678 -17.52993011 172.62545967 C-19.5483153 172.62391544 -21.56670046 172.63226056 -23.58506775 172.64089966 C-24.78938446 172.63670517 -25.99370117 172.63251068 -27.23451233 172.62818909 C-28.27923926 172.62873385 -29.3239662 172.62927862 -30.40035152 172.6298399 C-34.0690076 172.30802974 -36.90113937 171.24016938 -39.98770142 169.25595093 C-44.60265128 162.33352613 -41.32318777 152.41473507 -39.93618774 144.90609741 C-39.67584258 143.44848743 -39.41650056 141.99069797 -39.15808105 140.53274536 C-38.45608315 136.59073029 -37.73916429 132.65156889 -37.01873612 128.71288562 C-36.41764514 125.41850273 -35.82409833 122.12277947 -35.23058146 118.827025 C-33.83003806 111.05017061 -32.41758533 103.27554611 -30.9972229 95.50228882 C-29.53418017 87.49449698 -28.08933714 79.4835772 -26.65374357 71.47082275 C-25.41839789 64.57881686 -24.17273401 57.68873266 -22.91861552 50.80011803 C-22.17062253 46.69130665 -21.42628463 42.58192355 -20.69147682 38.47073174 C-19.99998817 34.60496978 -19.29555552 30.74178425 -18.5812645 26.88017273 C-18.32194747 25.46650469 -18.06708244 24.05201126 -17.81711769 22.63665962 C-14.88370084 6.06385149 -14.88370084 6.06385149 -8.99454403 1.73032856 C-5.75466165 0.14451993 -3.59731884 0.00373195 0 0 Z " fill="#FFFFFF" transform="translate(544.2377014160156,988.6190490722656)"/>
<path d="M0 0 C1.35948082 -0.01152653 2.71891614 -0.03198961 4.078125 -0.06152344 C19.60260543 -0.39786839 19.60260543 -0.39786839 25.16943359 4.29516602 C29.6902111 11.89040498 32.03936099 20.48350656 34.75537109 28.84594727 C35.29425307 30.48973732 35.8336783 32.13334936 36.37361145 33.77679443 C37.80862592 38.14986225 39.23603807 42.52537551 40.66186142 46.9014473 C42.13572698 51.42074065 43.61647285 55.9377786 45.09643555 60.45507812 C47.96027748 69.20029362 50.81619102 77.94807896 53.66937256 86.69677734 C55.3551311 91.86548585 57.04465533 97.03295824 58.73440552 102.20036316 C61.57268561 110.88055046 64.39926391 119.56435163 67.20632935 128.25468445 C68.62963953 132.65364202 70.08356368 137.04129354 71.55615234 141.42407227 C71.90073486 142.46362061 72.24531738 143.50316895 72.6003418 144.57421875 C73.18838523 146.34686482 73.78558215 148.11653342 74.39672852 149.88134766 C76.07824429 155.00199686 76.86578954 159.90247177 76.16943359 165.29516602 C74.3317367 168.61715656 73.05774008 169.9136138 69.57983398 171.4074707 C65.37780054 172.50122069 61.54963043 172.5824866 57.22802734 172.56079102 C55.9600808 172.56366119 55.9600808 172.56366119 54.66651917 172.56658936 C52.88729554 172.56794496 51.10806181 172.56429231 49.32885742 172.5559082 C46.61207823 172.54518632 43.8959582 172.55583148 41.17919922 172.56860352 C39.44547381 172.56728207 37.71174881 172.56471999 35.97802734 172.56079102 C34.76535439 172.56686371 34.76535439 172.56686371 33.52818298 172.57305908 C29.37327405 172.5386417 25.81784553 172.50763837 22.16943359 170.29516602 C19.16943359 165.29516602 19.16943359 165.29516602 16.16943359 153.29516602 C-9.57056641 153.29516602 -35.31056641 153.29516602 -61.83056641 153.29516602 C-62.49056641 154.94516602 -63.15056641 156.59516602 -63.83056641 158.29516602 C-64.99704276 160.20979617 -66.23101785 162.08441502 -67.51806641 163.92016602 C-68.16130859 164.86118164 -68.80455078 165.80219727 -69.46728516 166.77172852 C-73.46109349 171.03619163 -77.7764721 172.42400897 -83.47729492 172.68334961 C-85.22124727 172.70295924 -86.96545106 172.70556225 -88.70947266 172.69360352 C-90.10491554 172.69790878 -90.10491554 172.69790878 -91.52854919 172.70230103 C-93.48591728 172.70433361 -95.44330606 172.6988604 -97.40063477 172.6862793 C-100.38750782 172.67019595 -103.37303158 172.68616489 -106.35986328 172.70532227 C-108.26806937 172.70334005 -110.17627463 172.69949681 -112.08447266 172.69360352 C-113.41594078 172.70271255 -113.41594078 172.70271255 -114.77430725 172.71200562 C-119.87279004 172.65446073 -123.40930058 172.11910216 -127.83056641 169.29516602 C-129.83882801 166.85032581 -129.83342348 165.49282351 -129.78759766 162.32250977 C-128.87286291 156.65625642 -125.24991519 152.25059747 -122.08056641 147.60766602 C-121.33661941 146.49732434 -120.59407916 145.38603912 -119.8527832 144.27392578 C-118.16017976 141.73687762 -116.46137077 139.20411392 -114.75976562 136.6730957 C-111.48338159 131.78847845 -108.25168441 126.8747849 -105.02197266 121.95922852 C-104.12711151 120.59757065 -104.12711151 120.59757065 -103.21417236 119.20840454 C-101.98266756 117.33448501 -100.7511818 115.46055297 -99.51971436 113.58660889 C-89.599756 98.50067098 -79.62354391 83.45292797 -69.59140015 68.44140625 C-63.99732926 60.06966953 -58.44232929 51.67535404 -52.95556641 43.23266602 C-51.19735274 40.53334088 -49.43865044 37.83433498 -47.6796875 35.13549805 C-46.36554695 33.11691987 -45.05360078 31.09691236 -43.74316406 29.07592773 C-41.59418771 25.76776853 -39.43237286 22.46831062 -37.26806641 19.17016602 C-36.61273926 18.15559326 -35.95741211 17.14102051 -35.28222656 16.09570312 C-30.89176425 9.43753363 -26.80283067 3.6868453 -18.83056641 1.29516602 C-12.55675136 0.07129466 -6.37471609 0.03757049 0 0 Z M-9.83056641 74.29516602 C-10.41322266 75.16915039 -10.99587891 76.04313477 -11.59619141 76.94360352 C-11.98629395 77.52859619 -12.37639648 78.11358887 -12.77832031 78.71630859 C-13.65619838 80.03345485 -14.53346408 81.35100943 -15.41015625 82.66894531 C-17.98134328 86.53201677 -20.56532834 90.3858056 -23.16650391 94.22875977 C-23.98779785 95.44716553 -23.98779785 95.44716553 -24.82568359 96.69018555 C-25.90340492 98.28868714 -26.98473026 99.88476538 -28.06982422 101.47827148 C-28.80604004 102.57292725 -28.80604004 102.57292725 -29.55712891 103.68969727 C-29.99621582 104.337854 -30.43530273 104.98601074 -30.88769531 105.65380859 C-31.99660308 107.26872108 -31.99660308 107.26872108 -31.83056641 109.29516602 C-20.61056641 109.29516602 -9.39056641 109.29516602 2.16943359 109.29516602 C0.16083907 101.2607879 -1.89750622 93.47002229 -4.39306641 85.60766602 C-4.69664062 84.62088867 -5.00021484 83.63411133 -5.31298828 82.61743164 C-5.60882812 81.6822168 -5.90466797 80.74700195 -6.20947266 79.78344727 C-6.60501343 78.52334839 -6.60501343 78.52334839 -7.00854492 77.23779297 C-7.66134873 75.10917523 -7.66134873 75.10917523 -9.83056641 74.29516602 Z " fill="#FFFFFF" transform="translate(817.83056640625,988.704833984375)"/>
<path d="M0 0 C1.76523514 -0.00929787 1.76523514 -0.00929787 3.56613159 -0.01878357 C6.04554418 -0.02586702 8.52500448 -0.02273367 11.00439453 -0.01000977 C14.79938867 0.00388685 18.59193141 -0.03027883 22.38671875 -0.06835938 C24.79947977 -0.06931031 27.21224388 -0.06745311 29.625 -0.0625 C31.32512741 -0.08238731 31.32512741 -0.08238731 33.05960083 -0.10267639 C41.7991293 0.00083783 41.7991293 0.00083783 44.87060547 2.98071289 C49.13471467 9.07533914 47.85483813 15.04152672 46.67726135 22.0763855 C46.20937567 24.68904092 45.7341382 27.29963733 45.25219727 29.90966797 C44.99033897 31.35668738 44.72910019 32.80381902 44.46842957 34.25105286 C43.75922813 38.17852058 43.04140324 42.10436831 42.32205701 46.02998877 C41.56042027 50.19502022 40.80689832 54.36151963 40.05247498 58.52786255 C38.61318964 66.4695207 37.1668262 74.40987242 35.71785158 82.3497678 C33.78917914 92.92020722 31.87050793 103.49246065 29.95204425 114.06475687 C28.25030596 123.44246422 26.54566847 132.81961686 24.83120728 142.19500732 C24.22971162 145.4863826 23.62858959 148.77782586 23.02783203 152.06933594 C22.88226215 152.86687459 22.73669226 153.66441325 22.58671117 154.48611975 C20.64600964 165.13009881 18.76421258 175.78223476 16.93701172 186.44628906 C16.3360778 189.91871933 15.73424459 193.39099284 15.13233757 196.86325455 C14.60130538 199.96175678 14.08903706 203.06295032 13.57777405 206.1647644 C13.26101618 207.99818482 12.94340399 209.83145794 12.62475586 211.66455078 C12.4999906 212.46224003 12.37522533 213.25992928 12.24667931 214.08179092 C11.05821 220.71979931 8.56055806 226.25983841 3.21325684 230.54115295 C0.34907902 231.70019277 -1.77114179 231.95292256 -4.85742188 231.97045898 C-6.48435974 231.98948524 -6.48435974 231.98948524 -8.14416504 232.00889587 C-9.88651428 232.00449242 -9.88651428 232.00449242 -11.6640625 232 C-12.86591187 232.00524185 -14.06776123 232.0104837 -15.30603027 232.0158844 C-17.84447457 232.02230158 -20.38294861 232.02097158 -22.92138672 232.01245117 C-26.80620182 232.00393718 -30.68954871 232.03271643 -34.57421875 232.06445312 C-37.04166623 232.06606512 -39.50911631 232.06548765 -41.9765625 232.0625 C-43.71891174 232.07935097 -43.71891174 232.07935097 -45.49645996 232.09654236 C-53.5449657 232.02693063 -53.5449657 232.02693063 -57.52929688 229.66040039 C-61.24838043 225.31217525 -60.56206855 221.06111316 -60.3203125 215.56640625 C-59.99907255 212.57026496 -59.49308004 209.62809132 -58.94256592 206.66633606 C-58.79429674 205.82968609 -58.64602757 204.99303612 -58.49326539 204.13103312 C-57.99955869 201.35769245 -57.49349712 198.5867605 -56.98730469 195.81567383 C-56.62855543 193.81585736 -56.27053752 191.81590958 -55.91319275 189.81584167 C-54.94405327 184.40551221 -53.96375387 178.99726258 -52.98066235 173.58945298 C-52.15990964 169.06942134 -51.34439 164.54845175 -50.5287745 160.02749079 C-48.60461855 149.36295515 -46.67113858 138.70013867 -44.73193359 128.03833008 C-42.73274074 117.04572509 -40.74974606 106.05028444 -38.77459788 95.05333596 C-37.07623243 85.60083573 -35.36764007 76.15022295 -33.65088582 66.70104522 C-32.62649095 61.06202079 -31.60602548 55.42235695 -30.59548187 49.78083229 C-29.64529692 44.47873834 -28.6823564 39.17911783 -27.70959663 33.88112068 C-27.35512173 31.93853275 -27.00513942 29.99511875 -26.66002464 28.0508461 C-26.18756738 25.39333761 -25.69884192 22.73931662 -25.20599365 20.08552551 C-25.00752307 18.93571197 -25.00752307 18.93571197 -24.80504298 17.76266986 C-23.58801759 11.3739852 -21.54549972 6.36008289 -16.34033203 2.16430664 C-11.20501783 -0.38905497 -5.61070257 -0.0246406 0 0 Z " fill="#6DC8F2" transform="translate(1243.3203125,928.43359375)"/>
<path d="M0 0 C14.7727976 12.39268606 25.81368959 26.41093503 34.5 43.5625 C34.83845947 44.22910645 35.17691895 44.89571289 35.52563477 45.58251953 C37.21656402 49.02741035 38.47336721 52.18922662 39 56 C36 53 33 50 30 47 C29.30777344 46.3090625 28.61554688 45.618125 27.90234375 44.90625 C26.44611531 43.44703136 25.00165681 41.97605826 23.5625 40.5 C22.716875 39.675 21.87125 38.85 21 38 C20.41347656 37.41734375 19.82695313 36.8346875 19.22265625 36.234375 C-3.38107425 14.85133014 -34.95415083 7.04747511 -65.24365234 7.86816406 C-94.81919191 9.28276029 -121.91560649 23.81193885 -141.640625 45.43359375 C-162.5171201 69.48955506 -170.92785049 100.68274678 -169 132 C-168.05557152 143.05857108 -164.82289848 153.40155133 -161.24975586 163.8671875 C-160.94561768 164.76566406 -160.64147949 165.66414062 -160.328125 166.58984375 C-160.0487207 167.39284912 -159.76931641 168.19585449 -159.48144531 169.02319336 C-159 171 -159 171 -160 173 C-178.01167019 150.13412082 -189.97895491 124.52152108 -191 95 C-191.03996094 94.23558594 -191.07992187 93.47117187 -191.12109375 92.68359375 C-192.04179944 60.67553121 -180.00561983 29.24679841 -158.1796875 5.9609375 C-116.76250265 -37.24707947 -45.3951137 -37.343381 0 0 Z " fill="#FFFFFF" transform="translate(1179,532)"/>
</svg>
