<?xml version="1.0" encoding="UTF-8" standalone="no"?>
<svg
   width="1024"
   height="1024"
   viewBox="0 0 1024 1024"
   version="1.1"
   id="svg11"
   sodipodi:docname="drift_path.svg"
   inkscape:version="1.4.3 (0d15f75042, 2025-12-25)"
   xmlns:inkscape="http://www.inkscape.org/namespaces/inkscape"
   xmlns:sodipodi="http://sodipodi.sourceforge.net/DTD/sodipodi-0.dtd"
   xmlns="http://www.w3.org/2000/svg"
   xmlns:svg="http://www.w3.org/2000/svg">
  <defs
     id="defs11" />
  <sodipodi:namedview
     id="namedview11"
     pagecolor="#505050"
     bordercolor="#eeeeee"
     borderopacity="1"
     inkscape:showpageshadow="0"
     inkscape:pageopacity="0"
     inkscape:pagecheckerboard="0"
     inkscape:deskcolor="#505050"
     inkscape:zoom="0.89355469"
     inkscape:cx="511.44044"
     inkscape:cy="512"
     inkscape:window-width="2048"
     inkscape:window-height="1124"
     inkscape:window-x="0"
     inkscape:window-y="0"
     inkscape:window-maximized="1"
     inkscape:current-layer="svg11" />
  <path
     style="display:inline;opacity:0.37;fill:none;fill-opacity:1;stroke-width:1.1;stroke-dasharray:none;stroke:#0e0e0e;stroke-opacity:1"
     d="M 134.29508,574.11148 C 64.756528,496.935 95.328071,441.72981 174.58361,426.38689 h 41.40765 c 100.39019,56.00627 13.55589,88.1168 0,133.17596 82.81653,144.66204 54.61361,-252.5289 221.58688,-60.43279 -7.27493,57.95208 -49.1179,49.47195 -72.74317,34.69289 -32.52521,84.4442 72.12278,96.56708 106.31694,49.24153 -39.63037,-88.51622 31.98689,-94.33384 44.76503,-91.76831 52.44893,5.29426 52.93987,41.29096 40.28852,85.05356 0.60895,12.82055 -7.16145,34.02047 15.66776,24.62076 l 16.78689,-2.23825 c -20.81155,-69.54134 32.76525,-128.44827 55.95628,-91.76831 -11.26794,45.61341 48.66197,130.58773 68.26667,79.45793 54.95848,-34.81785 39.73545,-83.672 38.05027,-129.81858 32.91634,-48.86762 51.02517,-19.99581 72.74317,-10.07213 l 1.11913,87.2918 19.02514,70.50492 h 40.28852 1.11913 v 0"
     id="path11"
     sodipodi:nodetypes="cccccccccccccccccccc" />
  <g
     inkscape:groupmode="layer"
     id="layer1"
     inkscape:label="Layer 1"
     style="display:none;opacity:0.37">
    <path
       id="12"
       d="m 503,580.567 c -13.221,-3.685 -24.654,-13.419 -30.691,-26.132 -3.279,-6.904 -3.694,-8.715 -4.102,-17.879 -0.711,-15.991 3.428,-27.351 13.713,-37.636 18.256,-18.256 48.94,-18.606 65.644,-0.748 2.484,2.655 4.723,4.828 4.976,4.828 0.253,0 0.46,-3.359 0.46,-7.465 0,-6.357 0.287,-7.618 1.934,-8.5 2.628,-1.406 3.652,-1.307 5.495,0.536 1.382,1.382 1.571,6.978 1.571,46.378 0,48.881 0.162,47.544 -5.69,46.873 -2.723,-0.312 -2.82,-0.525 -3.113,-6.822 -0.167,-3.575 -0.691,-6.89 -1.166,-7.367 -0.486,-0.488 -2.454,0.723 -4.504,2.773 -8.476,8.476 -19.051,12.642 -31.745,12.505 -4.555,-0.049 -10.307,-0.654 -12.782,-1.344 m 26.747,-9.766 c 7.326,-2.712 15.443,-10.409 19.353,-18.352 6.262,-12.721 4.802,-31.086 -3.426,-43.078 -13.075,-19.057 -42.426,-20.614 -58.259,-3.09 -2.594,2.871 -5.876,7.694 -7.295,10.719 -2.263,4.825 -2.578,6.788 -2.568,16 0.014,12.946 2.259,19.444 9.429,27.289 11.236,12.293 27.293,16.24 42.766,10.512"
       stroke="#000000"
       fill="#000000"
       stroke-width="1" />
    <path
       id="path2"
       d="m 149.2,579.8 c -0.91,-0.909 -1.2,-17.462 -1.2,-68.378 0,-57.064 0.215,-67.356 1.431,-68.365 1.056,-0.876 9.519,-1.106 32.25,-0.873 0,0 30.819,0.316 30.819,0.316 0,0 8.618,3.085 8.618,3.085 25.611,9.169 42.272,30.095 45.914,57.665 4.603,34.844 -17.401,67.411 -51.492,76.211 -7.738,1.997 -64.392,2.287 -66.34,0.339 m 60.299,-8.295 c 22.608,-4.028 41.044,-21.063 47.079,-43.505 2.133,-7.933 2.402,-23.343 0.541,-31 -0.735,-3.025 -2.923,-8.875 -4.862,-13 C 247.66,474.22 235.641,462.005 226,457.316 214.329,451.64 209.88,451 182.106,451 c 0,0 -25.106,0 -25.106,0 0,0 0,61 0,61 0,0 0,61 0,61 0,0 22.25,-0.035 22.25,-0.035 14.7,-0.023 24.964,-0.519 30.249,-1.46"
       stroke="#000000"
       fill="#000000"
       stroke-width="1" />
    <path
       id="path3"
       d="m 393,580.567 c -12.146,-3.385 -25.13,-13.914 -30.325,-24.591 -13.946,-28.661 0.759,-61.602 31.018,-69.484 21.547,-5.612 43.958,4.746 53.796,24.865 4.211,8.611 6.489,20.201 4.729,24.063 0,0 -1.165,2.558 -1.165,2.558 0,0 -41.777,0.261 -41.777,0.261 0,0 -41.776,0.261 -41.776,0.261 0,0 0.22,3.748 0.22,3.748 0.559,9.527 9.887,21.729 20.834,27.252 5.532,2.791 6.712,3 16.946,3 9.826,0 11.607,-0.285 16.685,-2.665 3.127,-1.466 8.239,-5.178 11.36,-8.25 5.702,-5.611 8.032,-6.608 10.255,-4.385 5.036,5.036 -8.538,18.168 -23.583,22.815 -7.402,2.286 -20.072,2.543 -27.217,0.552 m 49.695,-55.499 c -2.756,-23.269 -30.826,-37.75 -53.473,-27.587 -11.369,5.102 -22.222,19.537 -22.222,29.557 0,0 0,2.962 0,2.962 0,0 38.139,0 38.139,0 0,0 38.14,0 38.14,0 0,0 -0.584,-4.932 -0.584,-4.932"
       stroke="#000000"
       fill="#000000"
       stroke-width="1" />
    <path
       id="path5"
       d="m 290.2,579.8 c -0.897,-0.897 -1.2,-12.359 -1.2,-45.418 0,-24.32 0.273,-44.93 0.607,-45.8 0.717,-1.869 5.455,-2.12 7.193,-0.382 0.66,0.66 1.2,3.135 1.2,5.5 0,2.365 0.271,4.3 0.603,4.3 0.332,0 2.851,-2.021 5.597,-4.49 8.87,-7.975 23.001,-10.57 35.821,-6.58 9.016,2.806 13.197,7.452 9.779,10.87 -1.76,1.76 -4.206,1.478 -9.019,-1.038 -5.887,-3.078 -17.155,-3.655 -23.564,-1.207 -6.235,2.381 -13.467,9.336 -16.359,15.731 -2.288,5.059 -2.368,6.133 -2.675,36.192 -0.202,19.809 -0.697,31.437 -1.372,32.25 -1.333,1.607 -5.036,1.647 -6.611,0.072"
       stroke="#000000"
       fill="#000000"
       stroke-width="1" />
    <path
       id="path6"
       d="M 746.999,578.498 C 746.37,576.844 746,551.674 746,510.626 c 0,-71.083 -0.16,-69.112 5.549,-68.462 0,0 2.951,0.336 2.951,0.336 0,0 0,69 0,69 0,0 0,69 0,69 0,0 -3.251,0.313 -3.251,0.313 -2.728,0.263 -3.411,-0.109 -4.25,-2.315"
       stroke="#000000"
       fill="#000000"
       stroke-width="1" />
    <path
       id="path7"
       d="m 587.2,579.8 c -0.898,-0.898 -1.2,-12.604 -1.2,-46.521 0,0 0,-45.322 0,-45.322 0,0 2.496,-1.137 2.496,-1.137 3.461,-1.577 6.504,1.195 6.504,5.924 0,0 0,3.434 0,3.434 0,0 3.143,-2.644 3.143,-2.644 1.728,-1.454 5.441,-3.843 8.25,-5.307 4.519,-2.356 6.259,-2.667 15.107,-2.695 8.974,-0.029 10.587,0.256 15.727,2.78 3.445,1.692 7.467,4.801 10.092,7.802 0,0 4.364,4.99 4.364,4.99 0,0 2.689,-3.525 2.689,-3.525 14.501,-19.012 48.925,-15.555 59.091,5.934 3.71,7.842 4.495,15.936 4.517,46.546 0.022,30.306 -0.172,31.387 -5.529,30.777 0,0 -2.951,-0.336 -2.951,-0.336 0,0 -0.535,-33 -0.535,-33 -0.512,-31.562 -0.635,-33.218 -2.804,-38 -4.491,-9.901 -11.38,-14.536 -22.701,-15.276 -8.781,-0.574 -15.894,2.128 -20.853,7.922 -6.129,7.161 -6.607,10.434 -6.607,45.269 0,32.776 -0.108,33.585 -4.5,33.585 -4.398,0 -4.5,-0.777 -4.5,-34.162 0,-29.621 -0.139,-32.134 -2.06,-37.268 -1.431,-3.825 -3.454,-6.733 -6.627,-9.526 -5.204,-4.581 -9.446,-6.05 -17.313,-5.995 -10.272,0.072 -17.731,4.43 -22.589,13.197 0,0 -2.911,5.254 -2.911,5.254 0,0 -0.313,32.974 -0.313,32.974 -0.202,21.284 -0.689,33.426 -1.373,34.25 -1.336,1.61 -5.037,1.653 -6.614,0.076"
       stroke="#000000"
       fill="#000000"
       stroke-width="1" />
    <path
       id="path8"
       d="m 823.2,579.8 c -0.908,-0.908 -1.2,-16.711 -1.2,-65 0,0 0,-63.8 0,-63.8 0,0 -21.066,0 -21.066,0 -12.609,0 -21.842,-0.415 -23,-1.035 -2.235,-1.196 -2.568,-5.194 -0.57,-6.852 0.984,-0.816 14.854,-1.06 49.75,-0.873 0,0 48.386,0.26 48.386,0.26 0,0 0.336,2.951 0.336,2.951 0.59,5.183 -0.997,5.549 -24.027,5.549 0,0 -20.809,0 -20.809,0 0,0 0,63.8 0,63.8 0,48.289 -0.292,64.092 -1.2,65 -0.66,0.66 -2.145,1.2 -3.3,1.2 -1.155,0 -2.64,-0.54 -3.3,-1.2"
       stroke="#000000"
       fill="#000000"
       stroke-width="1" />
    <path
       id="path10"
       d="m 696.975,463.435 c -0.536,-1.411 -0.975,-3.241 -0.975,-4.066 0,-4.107 -3.789,-7.288 -9.891,-8.304 -6.893,-1.148 -6.686,-7.029 0.287,-8.164 4.754,-0.774 9.397,-5.236 10.222,-9.826 0.354,-1.966 1.089,-4.137 1.635,-4.825 2.483,-3.129 6.747,0.169 6.747,5.218 0,4.495 5.549,9.532 10.5,9.532 2.407,0 3.749,0.597 4.5,2 1.638,3.06 -0.372,6 -4.101,6 -5.937,0 -10.839,4.304 -10.877,9.55 -0.027,3.651 -1.593,5.45 -4.747,5.45 -1.575,0 -2.639,-0.827 -3.3,-2.565 m 5.556,-18.332 c -1.375,-1.375 -1.701,-1.361 -3.195,0.133 -1.387,1.387 -1.447,1.926 -0.357,3.239 1.186,1.429 1.482,1.417 3.195,-0.133 1.695,-1.534 1.732,-1.864 0.357,-3.239"
       stroke="#000000"
       fill="#000000"
       stroke-width="1" />
  </g>
</svg>
