<?xml version="1.0" encoding="UTF-8" standalone="no"?>
<svg
   width="1024"
   height="1024"
   viewBox="0 0 1024 1024"
   version="1.1"
   id="svg40"
   sodipodi:docname="top_ae86_2d_wbg.svg"
   inkscape:version="1.4.3 (0d15f75042, 2025-12-25)"
   xmlns:inkscape="http://www.inkscape.org/namespaces/inkscape"
   xmlns:sodipodi="http://sodipodi.sourceforge.net/DTD/sodipodi-0.dtd"
   xmlns="http://www.w3.org/2000/svg"
   xmlns:svg="http://www.w3.org/2000/svg">
  <defs
     id="defs40" />
  <sodipodi:namedview
     id="namedview40"
     pagecolor="#505050"
     bordercolor="#eeeeee"
     borderopacity="1"
     inkscape:showpageshadow="0"
     inkscape:pageopacity="0"
     inkscape:pagecheckerboard="0"
     inkscape:deskcolor="#505050"
     inkscape:zoom="2.19"
     inkscape:cx="511.87215"
     inkscape:cy="512.10046"
     inkscape:window-width="2048"
     inkscape:window-height="1124"
     inkscape:window-x="0"
     inkscape:window-y="0"
     inkscape:window-maximized="1"
     inkscape:current-layer="svg40" />
  <path
     id="32"
     d="m 458.06309,580.75 c 2.854,-7.666 8.189,-24.581 8.189,-25.962 0,-3.171 -2.323,1.966 -6.945,15.352 -5.499,15.927 -5.482,15.86 -4.127,15.86 0.51,0 1.808,-2.362 2.883,-5.25"
     stroke="#171717"
     fill="#171717"
     stroke-width="1" />
  <path
     id="path1"
     d="m 558.25209,580.259 c 0,-3.075 -2.662,-3.259 -47.033,-3.259 -24.548,0 -44.87,-0.236 -45.158,-0.524 -0.563,-0.563 3.495,-17.113 4.423,-18.041 0.882,-0.882 51.884,-0.451 55.768,0.471 2.919,0.693 29.489,12.045 33.02,11.921 0.568,-0.189 -6.066,-3.454 -14.743,-7.253 -18.579,-8.135 -20.335,-8.415 -53.405,-8.511 -16.153,-0.047 -21.886,0.253 -22.65,1.187 -0.563,0.688 -2.136,5.895 -3.497,11.572 0,0 -2.474,10.323 -2.474,10.323 0,0 2.124,0.746 2.124,0.746 1.169,0.41 22.37,0.868 47.113,1.016 24.743,0.148 45.331,0.481 45.75,0.74 0.419,0.259 0.762,0.084 0.762,-0.388"
     stroke="#171717"
     fill="#171717"
     stroke-width="1" />
  <path
     id="path2"
     d="m 681.91309,580.988 c 14.579,-3.294 18.69,-6.825 20.397,-17.514 1.718,-10.758 2.397,-70.775 0.997,-88.174 -1.619,-20.125 -2.448,-23.56 -6.557,-27.168 -1.844,-1.619 -3.117,-3.18 -5.646,-3.917 0.946,-0.671 -2.061,-1.596 -10,-3.077 -15.362,-2.866 -18.194,-3.025 -18.607,-1.042 -0.271,1.301 1.615,1.916 10.176,3.321 24.573,4.033 22.975,5.955 -2.921,3.513 -27.499,-2.593 -75.692,-5.228 -85,-4.646 -5.376,0.336 -14.705,2.349 -28.443,6.135 -11.244,3.099 -20.605,5.795 -20.802,5.992 -0.197,0.197 0.446,5.473 1.429,11.724 2.474,15.737 2.478,60.551 0.007,75.791 -0.93,5.734 -1.691,11.419 -1.691,12.633 0,1.941 2.798,3.345 23.25,11.663 0,0 23.25,9.456 23.25,9.456 0,0 46,-0.714 46,-0.714 25.3,-0.393 50.725,-1.067 56.5,-1.498 9.454,-0.705 10.372,-0.627 9.209,0.778 -1.136,1.373 -7.865,3.357 -17.89,5.276 -3.718,0.711 -6.787,3.535 -3.691,3.396 1.03,-0.046 5.545,-0.914 10.033,-1.928 m -90.343,-9.738 c 0.303,-0.963 1.741,-4.9 3.196,-8.75 5.094,-13.481 6.627,-23.302 7.197,-46.088 0.783,-31.3 -2.037,-52.329 -8.794,-65.574 -1.054,-2.067 -1.917,-4.226 -1.917,-4.798 0,-0.631 3.049,-1.038 7.75,-1.035 8.675,0.005 50.117,2.518 66.25,4.017 5.775,0.537 10.764,0.977 11.087,0.977 0.323,0 1.148,5.963 1.834,13.251 0.686,7.288 1.464,14.038 1.73,15 0.421,1.522 1.825,1.75 10.772,1.75 0,0 10.288,0 10.288,0 0,0 0.637,6.75 0.637,6.75 0.801,8.486 0.633,50.891 -0.216,54.25 -0.624,2.468 -0.767,2.5 -11.132,2.5 0,0 -10.5,0 -10.5,0 0,0 -1.363,13.5 -1.363,13.5 -0.75,7.425 -1.573,13.725 -1.83,14 -0.614,0.656 -30.615,1.536 -61.174,1.794 -22.802,0.193 -24.331,0.094 -23.815,-1.544 m -7.303,1 c 0.008,-0.412 0.718,-2.773 1.579,-5.246 0.861,-2.473 2.122,-7.198 2.802,-10.5 0.927,-4.501 1.629,-5.937 2.442,-8.317 -3.062,0.304 -3.198,0.53 -4.993,8.313 -1.736,7.529 -4.63,16.5 -5.323,16.5 -0.33,0 -4.8,-1.86 -28.826,-11.993 -14.376,-6.063 -14.786,-6.319 -14.231,-8.875 4.62,-21.271 5.308,-64.455 1.405,-88.09 -0.881,-5.334 -0.899,-7.406 -0.069,-7.919 0.618,-0.382 9.993,-3.097 20.834,-6.033 22.752,-6.161 20.585,-6.674 24.726,5.856 4.017,12.154 7.636,37.293 7.638,53.063 10e-4,4.4 0.398,5.758 1.973,6.741 1.834,1.145 1.904,1.053 1,-1.324 -0.534,-1.406 -0.932,-5.564 3.028,-13.202 0,-8.92 -3.626,-32.874 -5.116,-33.795 -0.486,-0.301 -0.884,0.155 -0.884,1.012 0,3.743 -1.632,0.998 -3.149,-5.296 -0.907,-3.763 -2.778,-9.636 -4.157,-13.051 0,0 -2.508,-6.209 -2.508,-6.209 0,0 2.657,0.308 2.657,0.308 2.051,0.237 3.165,1.371 4.887,4.973 2.801,5.86 6.924,19.99 8.538,29.257 1.947,11.185 1.513,50.757 -0.693,63.077 -1.937,10.817 -6.288,24.887 -8.957,28.961 -1.53,2.336 -4.637,3.543 -4.603,1.789 m 95.355,-5 c 0.3,-2.062 0.809,-6.225 1.13,-9.25 1.457,-13.736 1.092,-13 6.448,-13 2.625,0 6.917,0.294 9.538,0.653 0,0 4.764,0.653 4.764,0.653 0,0 -0.662,8.597 -0.662,8.597 -1.182,15.334 -1.006,14.944 -6.94,15.363 -2.831,0.2 -7.325,0.447 -9.986,0.549 0,0 -4.838,0.185 -4.838,0.185 0,0 0.546,-3.75 0.546,-3.75 m 2.214,-93.5 c -1.104,-7.086 -2.612,-23.056 -2.215,-23.453 1.008,-1.008 17.208,1.915 18.268,3.296 0.626,0.815 1.432,4.502 1.792,8.194 0.36,3.692 0.911,8.626 1.226,10.963 0,0 0.572,4.25 0.572,4.25 0,0 -9.568,0 -9.568,0 0,0 -9.568,0 -9.568,0 0,0 -0.507,-3.25 -0.507,-3.25"
     stroke="#171717"
     fill="#171717"
     stroke-width="1" />
  <path
     id="path3"
     d="m 448.46709,575.223 c 1.863,-2.175 7.785,-14.982 7.785,-16.835 0,-2.627 -16.311,-1.659 -42.759,2.539 -13.608,2.16 -31.041,4.874 -38.741,6.032 -17.835,2.682 -18.995,2.946 -17.881,4.06 1.818,1.818 21.492,3.195 77.501,5.424 11.095,0.441 12.798,0.294 14.095,-1.22"
     stroke="#fefefe"
     fill="#fefefe"
     stroke-width="1" />
  <path
     id="path4"
     d="m 450.66709,576.75 c 3.263,-5.026 9.733,-19.701 9.122,-20.69 -0.403,-0.652 -5.333,-1.06 -12.827,-1.06 -10.073,0 -19.388,1.131 -54.017,6.56 -33.384,5.234 -42.141,6.313 -43.311,5.342 -0.807,-0.67 -1.097,-1.587 -0.644,-2.04 0.453,-0.453 17.897,-3.103 38.765,-5.889 28.038,-3.743 38.405,-5.485 39.719,-6.674 1.654,-1.497 1.778,-4.784 1.778,-47.332 0,-35.364 -0.283,-45.955 -1.25,-46.749 -1.084,-0.891 -13.783,-1.838 -65.021,-4.846 -10.194,-0.599 -13.06,-1.473 -11.092,-3.385 0.475,-0.461 17.288,0.465 37.363,2.058 40.88,3.244 69.71,3.874 70.604,1.545 0.621,-1.619 -1.694,-6.559 -5.374,-11.472 0,0 -2.533,-3.382 -2.533,-3.382 0,0 -18.099,0.657 -18.099,0.657 -28.669,1.04 -53.031,2.603 -67.098,4.305 -7.15,0.865 -15.844,1.777 -19.32,2.026 -5.799,0.416 -6.367,0.278 -6.878,-1.676 -0.597,-2.282 -2.802,-2.29 -2.802,-0.01 0,1.325 -3.139,2.656 -4.596,-1.653 -0.632,-0.762 -2.331,-1.378 -3.776,-1.37 -1.9,0.011 -2.244,0.259 -1.24,0.895 1.054,0.667 0.331,1.564 -3,3.725 -6.689,4.338 -8.207,7.232 -2.556,4.871 3.352,-1.401 24.919,-2.353 25.418,-1.123 0.863,2.129 -0.14,3.938 -2.723,4.913 -1.635,0.617 -3.257,1.816 -3.603,2.663 -1.666,4.077 -3.246,89.679 -1.79,96.961 0.463,2.316 1.608,3.673 4.25,5.04 0,0 3.616,1.871 3.616,1.871 0,0 -2.746,1.058 -2.746,1.058 -1.798,0.693 -5.595,0.77 -11,0.223 -6.826,-0.691 -8.56,-0.571 -10.02,0.695 -1.677,1.454 -1.652,1.654 0.5,3.997 1.246,1.356 4.628,3.524 7.516,4.818 2.912,1.305 5.25,3.013 5.25,3.834 0,0.906 0.583,1.258 1.5,0.906 2.995,-1.149 1.375,-3.306 -4.447,-5.919 -3.271,-1.468 -6.758,-3.579 -7.75,-4.693 -1.796,-2.017 -1.775,-2.023 5.6,-1.51 6.274,0.436 7.675,0.874 9.182,2.872 5.142,5.202 0.751,-3.122 2.039,-3.112 0.618,0 2.879,1.993 5.024,4.43 2.145,2.437 5.351,4.898 7.126,5.47 6.607,2.129 53.651,5.091 80.953,5.097 12.1,0.003 12.799,-0.108 14.188,-2.247 m -51.915,-1.835 c -25.612,-1.142 -40.513,-2.528 -41.881,-3.896 -1.114,-1.114 0.046,-1.378 17.881,-4.06 7.7,-1.158 25.133,-3.872 38.741,-6.032 26.448,-4.198 42.759,-5.166 42.759,-2.539 0,1.853 -5.922,14.66 -7.785,16.835 -1.621,1.892 -0.177,1.9 -49.715,-0.308 m -48.155,-14.97 c -0.58,-0.58 -2.583,-1.818 -4.45,-2.75 0,0 -3.395,-1.695 -3.395,-1.695 0,0 -0.316,-25.5 -0.316,-25.5 -0.174,-14.025 -0.011,-35.965 0.362,-48.756 0,0 0.678,-23.257 0.678,-23.257 0,0 3.138,-1.464 3.138,-1.464 2.786,-1.301 7.367,-1.213 40.873,0.791 20.754,1.241 38.14,2.69 38.634,3.221 0.52,0.558 0.678,19.627 0.374,45.255 -0.466,39.342 -0.705,44.387 -2.134,45.148 -0.885,0.471 -16.009,2.724 -33.609,5.006 -17.6,2.282 -32.45,4.318 -33,4.524 -2.097,0.784 -6.143,0.489 -7.155,-0.523 m 44.655,-109.893 c -26.413,-2.17 -32.518,-2.867 -31.757,-3.628 0.81,-0.81 41.622,-3.363 64.828,-4.055 0,0 22.777,-0.679 22.777,-0.679 0,0 3.044,4.801 3.044,4.801 1.675,2.641 2.768,5.251 2.428,5.801 -0.863,1.396 -30.039,0.33 -61.32,-2.24"
     stroke="#171717"
     fill="#171717"
     stroke-width="1" />
  <path
     id="path5"
     d="m 345.25209,561.878 c 0,0 2.5,-1.036 2.5,-1.036 0,0 -3.616,-1.876 -3.616,-1.876 -2.64,-1.37 -3.787,-2.732 -4.25,-5.046 -1.483,-7.417 0.132,-92.895 1.835,-97.08 0.371,-0.913 1.788,-1.939 3.147,-2.28 2.16,-0.542 4.667,-4.15 3.864,-5.56 -0.538,-0.945 -25.383,0.5 -26.419,1.537 -0.682,0.683 -1.125,19.172 -1.298,54.088 -0.213,43.001 -0.011,53.357 1.069,54.664 0.732,0.887 3.207,1.844 5.5,2.126 10.514,1.295 15.356,1.422 17.668,0.463"
     stroke="#fefefe"
     fill="#fefefe"
     stroke-width="1" />
  <path
     id="path6"
     d="m 657.92209,572.044 c 9.993,-0.299 18.38,-0.769 18.637,-1.044 0.257,-0.275 1.08,-6.575 1.83,-14 0,0 1.363,-13.5 1.363,-13.5 0,0 10.5,0 10.5,0 10.365,0 10.508,-0.032 11.132,-2.5 0.849,-3.359 1.017,-45.764 0.216,-54.25 0,0 -0.637,-6.75 -0.637,-6.75 0,0 -10.288,0 -10.288,0 -8.947,0 -10.351,-0.228 -10.772,-1.75 -0.266,-0.962 -1.044,-7.712 -1.73,-15 -0.686,-7.288 -1.511,-13.251 -1.834,-13.251 -0.323,0 -5.312,-0.44 -11.087,-0.977 -16.133,-1.499 -57.575,-4.012 -66.25,-4.017 -4.701,-0.003 -7.75,0.404 -7.75,1.035 0,0.572 0.863,2.731 1.917,4.798 6.757,13.245 9.577,34.274 8.794,65.574 -0.57,22.786 -2.103,32.607 -7.197,46.088 -1.455,3.85 -2.893,7.787 -3.196,8.75 -0.516,1.638 1.013,1.737 23.815,1.544 13.402,-0.113 32.544,-0.451 42.537,-0.75"
     stroke="#fefefe"
     fill="#FEFEFE"
     stroke-width="1"
     style="fill:#0d0d0d;fill-opacity:1" />
  <path
     id="11"
     d="m 563.71809,592.896 c 0,0 3.536,-3.105 3.536,-3.105 0,0 20.249,0.603 20.249,0.603 63.691,1.897 64.758,1.901 68.592,0.262 2.011,-0.86 8.382,-2.228 14.157,-3.04 21.022,-2.956 30.022,-6.027 34.203,-11.668 2.555,-3.447 3.655,-12.203 4.688,-37.301 0.94,-22.84 -0.089,-65.217 -1.898,-78.147 -1.469,-10.504 -3.521,-14.376 -9.075,-17.124 -4.721,-2.336 -19.564,-5.804 -29.418,-6.872 -3.3,-0.358 -9.136,-1.585 -12.969,-2.728 -6.722,-2.004 -8.296,-2.053 -44.477,-1.367 -20.629,0.391 -37.706,0.909 -37.948,1.151 -1.617,1.617 5.329,1.904 39.233,1.617 33.178,-0.281 38.422,-0.122 40.786,5.198 5.084,1.017 8.083,0.724 9.275,-0.907 0.998,-1.364 2.631,-1.253 14.93,1.019 19.651,3.629 23.66,5.938 26.066,15.013 1.493,5.631 3.604,40.181 3.604,58.994 0,22.901 -2.329,52.96 -4.508,58.178 -1.778,4.257 -4.676,5.97 -14.076,8.318 -10.297,2.572 -25.416,4.942 -25.416,3.983 0,-0.413 1.53,-1.037 3.4,-1.388 1.87,-0.351 4.007,-1.375 4.75,-2.277 1.201,-1.458 1.073,-1.574 -1.15,-1.048 -1.375,0.325 -5.121,0.907 -8.325,1.291 -4.156,0.498 -5.517,1.007 -4.75,1.774 1.701,1.701 1.298,2.508 -2.13,4.281 -3.381,1.748 -5.212,1.736 -67.941,-0.455 0,0 -18.645,-0.651 -18.645,-0.651 0,0 1.652,-3.5 1.652,-3.5 1.303,-2.759 2.392,-3.621 5.146,-4.074 0,0 3.493,-0.574 3.493,-0.574 0,0 -5,-2.279 -5,-2.279 -6.605,-3.01 -12.398,-5.073 -14.248,-5.073 0.664,-0.96 -1.873,8.359 -2.168,7.684 0.616,0.616 0.41,2.284 -0.574,4.639 0,0 -1.537,3.677 -1.537,3.677 0,0 -35.37,0 -35.37,0 -34.752,0 -35.379,-0.036 -35.903,-2.039 -0.496,-1.895 -1.191,-2.018 -9.867,-1.75 -7.999,0.247 -9.294,0.523 -9.064,1.929 0.24,1.464 -1.606,1.653 -17.203,1.757 -9.609,0.064 -18.642,0.562 -20.074,1.106 -5.518,2.098 -26.166,3.317 -36.293,2.143 -11.324,-1.313 -17.489,-2.867 -16.664,-4.202 0.991,-1.604 -3.557,-2.632 -15.035,-3.397 -17.681,-1.179 -19.819,-1.65 -20.493,-4.511 -0.57,-2.421 -0.619,-2.399 -2.852,1.214 -2.044,3.307 -2.594,3.616 -5.464,3.071 -12.439,-2.361 -13.463,-4.058 -14.775,-24.499 -1.26,-19.644 -0.802,-88.515 0.584,-87.822 0.651,0.325 0.883,15.058 0.664,42.191 -0.329,40.789 0.296,53.064 4.828,55.795 -1.007,-1.882 -0.877,-2.546 0.834,-4.257 6.258,-1.653 -3.365,-5.182 -2.326,-5.564 0,0 0.266,-53.651 0.266,-53.651 0.174,-35.111 -0.075,-53.441 -0.721,-53.042 -0.543,0.335 -1.287,2.87 -1.653,5.632 -0.437,3.292 -1.005,4.683 -1.65,4.038 -1.219,-1.219 0.649,-12.703 2.411,-14.826 1.534,-1.848 8.267,-5.316 10.321,-5.316 0.854,0 2.437,0.552 3.518,1.227 1.567,0.979 2.628,0.953 5.237,-0.125 1.799,-0.744 10.471,-2.162 19.271,-3.152 8.8,-0.99 17.853,-2.486 20.117,-3.324 9.847,-3.646 36.425,-4.228 48.001,-1.051 3.455,0.948 11.089,1.435 23.5,1.5 10.11,0.053 18.841,0.477 19.402,0.942 0.561,0.465 3.036,0.989 5.5,1.164 3.693,0.263 4.451,0.652 4.316,2.217 -0.155,1.798 0.469,1.867 11.777,1.298 14.619,-0.735 67.272,0.342 66.177,1.354 -1.011,0.935 -25.103,7.95 -28.271,10.95 0.723,0 28.233,-7.635 40.981,-11.374 7.559,-2.217 9.055,-3.669 4.814,-4.67 -1.267,-0.299 -2.471,-1.424 -2.676,-2.5 -0.64,-3.359 -8.345,-13.47 -10.719,-14.066 -4.343,-1.09 -5.922,-0.115 -5.883,3.633 0.02,1.912 0.387,4.49 0.817,5.727 0,0 0.782,2.25 0.782,2.25 0,0 -62.006,0 -62.006,0 -53.2,0 -62.972,-0.227 -68.817,-1.593 -10.275,-2.402 -40.275,-1.534 -49.391,1.429 -4.319,1.404 -12.564,2.662 -24,3.661 -9.582,0.837 -19.506,1.794 -22.055,2.126 -6.672,0.87 -12.001,4.166 -14.366,8.886 -1.934,3.859 -2,5.988 -2,64.491 0,58.521 0.065,60.628 2,64.435 1.1,2.164 3.125,4.753 4.5,5.75 2.969,2.154 12.604,3.5 31.739,4.436 10.014,0.49 15.939,1.32 21.761,3.049 15.653,4.649 33.282,5.244 52,1.756 6.642,-1.238 18.184,-1.443 67.986,-1.208 59.08,0.278 59.992,0.312 60.366,2.282 0.841,4.435 4.827,4.599 9.614,0.396 m -6.466,-0.911 c 0,-1.97 3.364,-13.501 4.298,-14.735 1.304,-1.722 5.64,-1.574 6.327,0.215 0.483,1.259 -3.978,10.488 -6.906,14.285 -1.157,1.501 -3.719,1.662 -3.719,0.235 m 2.937,-157.395 c -2.913,-6.585 -3.537,-10.59 -1.651,-10.59 2.989,0 10.391,10.795 9.318,13.59 -0.298,0.775 -1.706,1.41 -3.129,1.41 -2.097,0 -2.957,-0.835 -4.538,-4.41 m -76.378,2.942 c 2.948,-2.229 74.441,-2.26 74.441,-0.032 0,1.307 -4.91,1.5 -38.191,1.5 -33.795,0 -37.968,-0.169 -36.25,-1.468"
     stroke="#131313"
     fill="#131313"
     stroke-width="1" />
  <path
     id="path7"
     d="m 693.90009,570.266 c 5.934,-0.419 5.758,-0.029 6.94,-15.363 0,0 0.662,-8.597 0.662,-8.597 0,0 -4.764,-0.653 -4.764,-0.653 -2.621,-0.359 -6.913,-0.653 -9.538,-0.653 -5.356,0 -4.991,-0.736 -6.448,13 -0.321,3.025 -0.83,7.188 -1.13,9.25 0,0 -0.546,3.75 -0.546,3.75 0,0 4.838,-0.185 4.838,-0.185 2.661,-0.102 7.155,-0.349 9.986,-0.549"
     stroke="#fefefe"
     fill="#FEFEFE"
     stroke-width="1"
     style="fill:#0a0a0a;fill-opacity:1" />
  <path
     id="path8"
     d="m 675.25209,583.777 c 14.755,-2.495 23.801,-5.529 26.187,-8.782 2.577,-3.513 3.602,-11.107 4.85,-35.921 0.775,-15.419 0.78,-28.85 0.015,-47.074 -1.645,-39.207 -2.624,-43.526 -10.553,-46.554 -2.499,-0.954 -4.834,-1.444 -5.188,-1.09 -0.354,0.354 0.072,0.644 0.946,0.644 2.184,0 7.721,4.813 8.799,7.648 4.409,11.596 5.683,83.444 1.959,110.456 -0.926,6.713 -1.381,7.737 -4.918,11.089 -4.363,4.134 -9.36,5.871 -24.097,8.376 -5.225,0.888 -9.688,1.799 -9.917,2.023 -1.162,1.138 1.407,0.963 11.917,-0.815"
     stroke="#fefefe"
     fill="#FEFEFE"
     stroke-width="1"
     style="fill:#020202;fill-opacity:1" />
  <path
     id="path9"
     d="m 416.70409,589.896 c 4.374,-0.461 8.649,-1.163 9.5,-1.56 0.851,-0.397 7.371,-0.973 14.488,-1.279 0,0 12.94,-0.557 12.94,-0.557 0,0 5.56,-15.837 5.56,-15.837 0,0 5.56,-15.837 5.56,-15.837 0,0 23.5,0.134 23.5,0.134 12.925,0.074 27.55,0.589 32.5,1.144 4.95,0.555 10.102,1.097 11.448,1.203 2.385,0.188 2.496,-0.128 4.367,-12.307 1.501,-9.768 1.95,-18.4 2.053,-39.5 0.135,-27.659 -1.041,-42.079 -4.011,-49.188 -1.247,-2.985 -1.81,-3.382 -4.15,-2.941 -1.489,0.281 -16.755,0.807 -33.925,1.17 0,0 -31.217,0.661 -31.217,0.661 0,0 -1.733,-4.351 -1.733,-4.351 -0.953,-2.393 -2.901,-6.601 -4.331,-9.351 0,0 -2.599,-5 -2.599,-5 0,0 -14.451,-0.59 -14.451,-0.59 -7.948,-0.324 -16.026,-1.069 -17.951,-1.655 -9.898,-3.014 -36.532,-2.063 -47.897,1.71 -3.082,1.023 -11.453,2.366 -18.603,2.986 -17.198,1.49 -17.701,1.617 -17.315,4.334 0.29,2.038 0.832,2.207 6.815,2.12 3.575,-0.052 12.35,-0.811 19.5,-1.687 14.011,-1.717 38.227,-3.278 67.098,-4.325 0,0 18.099,-0.657 18.099,-0.657 0,0 2.533,3.382 2.533,3.382 3.68,4.913 5.995,9.853 5.374,11.472 -0.894,2.329 -29.724,1.699 -70.604,-1.545 -20.075,-1.593 -36.888,-2.519 -37.363,-2.058 -1.968,1.912 0.898,2.786 11.092,3.385 51.238,3.008 63.937,3.955 65.021,4.846 0.967,0.794 1.25,11.385 1.25,46.749 0,44.453 -0.056,45.773 -2,47.533 -1.1,0.995 -2,2.11 -2,2.477 0,0.367 7.455,0.462 16.568,0.213 11.416,-0.312 16.916,-0.106 17.684,0.662 0.82,0.82 -0.323,3.962 -4.319,11.881 0,0 -5.433,10.767 -5.433,10.767 0,0 -23.764,-0.163 -23.764,-0.163 -24.545,-0.169 -55.648,-1.776 -65.551,-3.388 -3.111,-0.506 -6.882,-1.827 -8.38,-2.935 -1.498,-1.108 -3.888,-2.014 -5.312,-2.014 -1.511,0 -3.604,-1.096 -5.028,-2.633 -2.086,-2.25 -3.495,-2.705 -9.703,-3.137 -7.233,-0.503 -7.255,-0.497 -5.459,1.52 0.992,1.114 4.493,3.232 7.782,4.708 5.866,2.633 5.967,2.746 5.357,5.998 -0.342,1.823 -0.197,3.577 0.321,3.897 0.518,0.32 7.196,1.083 14.84,1.695 15.57,1.246 20.008,2.093 19.659,3.749 -0.292,1.387 5.19,2.928 14.911,4.19 8.518,1.106 16.161,1.08 27.279,-0.091"
     stroke="#fefefe"
     fill="#fefefe"
     stroke-width="1" />
  <path
     id="path10"
     d="m 559.27209,575.476 c 0.696,-0.838 1.064,-1.725 0.819,-1.97 -1.081,-1.081 -30.688,-13.859 -33.839,-14.604 -3.89,-0.92 -54.888,-1.347 -55.768,-0.467 -0.928,0.928 -4.986,17.478 -4.423,18.041 0.288,0.288 21.094,0.524 46.235,0.524 39.734,0 45.876,-0.199 46.976,-1.524"
     stroke="#fefefe"
     fill="#fefefe"
     stroke-width="1" />
  <path
     id="path11"
     d="m 456.57209,452.292 c 0.34,-0.55 -0.753,-3.16 -2.428,-5.801 0,0 -3.044,-4.801 -3.044,-4.801 0,0 -22.777,0.679 -22.777,0.679 -23.206,0.692 -64.018,3.245 -64.828,4.055 -0.761,0.761 5.344,1.458 31.757,3.628 31.281,2.57 60.457,3.636 61.32,2.24"
     stroke="#fefefe"
     fill="#fefefe"
     stroke-width="1" />
  <path
     id="path12"
     d="m 527.25209,451.011 c 6.647,-0.721 27.737,-6.544 29.45,-8.131 0.55,-0.51 -7.448,-0.985 -19,-1.13 -30.705,-0.385 -68.915,0.167 -69.26,1.001 -0.171,0.412 0.226,2.662 0.88,4.999 0,0 1.19,4.25 1.19,4.25 0,0 25.12,-0.142 25.12,-0.142 13.816,-0.078 28.045,-0.459 31.62,-0.847"
     stroke="#fefefe"
     fill="#fefefe"
     stroke-width="1" />
  <path
     id="path13"
     d="m 318.72009,456.276 c 0.814,-7.014 0.796,-6.983 6.532,-10.748 3.191,-2.094 4.01,-3.054 2.817,-3.301 -1.927,-0.398 -6.883,1.943 -8.67,4.096 -1.79,2.156 -3.622,13.602 -2.377,14.847 0.683,0.683 1.236,-0.91 1.698,-4.894"
     stroke="#fefefe"
     fill="#fefefe"
     stroke-width="1" />
  <path
     id="path14"
     d="m 655.25209,587.156 c 0,0 2.5,-2.089 2.5,-2.089 0,0 -4.191,-0.034 -4.191,-0.034 -6.381,-0.051 -6.086,-1.801 0.428,-2.54 20.733,-2.352 37.49,-5.854 39.472,-8.249 1.163,-1.405 0.244,-1.484 -9.209,-0.784 -5.775,0.427 -31.519,1.062 -57.208,1.409 -42.193,0.57 -46.832,0.794 -48,2.319 -0.711,0.928 -2.641,1.828 -4.289,2 -2.301,0.24 -3.379,1.124 -4.645,3.812 0,0 -1.649,3.5 -1.649,3.5 0,0 18.645,0.654 18.645,0.654 64.75,2.271 65.432,2.271 68.146,0.002"
     stroke="#fefefe"
     fill="#fefefe"
     stroke-width="1" />
  <path
     id="path15"
     d="m 335.64009,580.53 c 1.291,-1.971 1.33,-2.359 0.193,-1.923 -1.859,0.713 -5.287,-1.095 -9.333,-4.925 -2.255,-2.135 -3.571,-2.759 -4.294,-2.036 -0.723,0.723 0.198,2.162 3.005,4.698 2.226,2.011 4.522,3.656 6.629,6.051 2.148,0.824 1.986,0.903 3.8,-1.865"
     stroke="#171717"
     fill="#171717"
     stroke-width="1" />
  <path
     id="path16"
     d="m 582.07009,570.499 c 3.393,-7.446 7.159,-27.835 9.236,-49.999 1.859,-19.841 -0.991,-47.304 -6.704,-64.589 -4.128,-12.49 -1.968,-11.981 -24.715,-5.821 -10.841,2.936 -20.216,5.651 -20.834,6.033 -0.83,0.513 -0.812,2.585 0.069,7.919 3.903,23.635 3.215,66.819 -1.405,88.09 -0.555,2.556 -0.145,2.812 14.231,8.875 23.048,9.721 28.495,11.993 28.748,11.993 0.129,0 0.747,-1.126 1.374,-2.501"
     stroke="#fefefe"
     fill="#fefefe"
     stroke-width="1" />
  <path
     id="path17"
     d="m 317.50009,524 c 1.058,-37.468 0.974,-54.622 -0.26,-53.388 -0.657,0.657 -0.92,14.834 -0.75,40.45 0,0 0.262,39.438 0.262,39.438 0,0 0.748,-26.5 0.748,-26.5"
     stroke="#fefefe"
     fill="#fefefe"
     stroke-width="1" />
  <path
     id="path18"
     d="m 556.27709,584.435 c 0.536,-1.411 0.975,-2.986 0.975,-3.5 0,-0.796 -31.854,-1.345 -82.5,-1.42 -5.5,-0.008 -10.562,-0.379 -11.25,-0.824 -0.688,-0.445 -1.269,-2.02 -1.291,-3.5 -0.033,-2.199 -0.574,-1.595 -2.959,3.309 -3.938,8.096 -3.865,8.5 1.544,8.5 3.773,0 4.494,-0.297 4.25,-1.75 -0.26,-1.546 0.793,-1.784 9.039,-2.039 8.676,-0.268 9.371,-0.145 9.867,1.75 0.524,2.003 1.15,2.039 35.941,2.039 0,0 35.408,0 35.408,0 0,0 0.976,-2.565 0.976,-2.565"
     stroke="#fefefe"
     fill="#fefefe"
     stroke-width="1" />
  <path
     id="38"
     d="m 465.10309,567.478 c 1.255,-5.464 2.757,-10.506 3.338,-11.206 0.779,-0.939 0.641,-1.272 -0.528,-1.272 -0.984,0 -1.967,1.421 -2.595,3.75 -0.556,2.062 -2.127,7.025 -3.489,11.028 -1.362,4.003 -2.049,7.014 0.307,5.178 0.529,1.897 1.205,0.193 2.967,-7.478"
     stroke="#e7e5e5"
     fill="#e7e5e5"
     stroke-width="1" />
  <path
     id="41"
     d="m 347.09409,567 c -2.15,-2.909 -5.602,-4.273 -4.426,-1.75 0.32,0.688 0.861,2.037 1.2,3 0.357,1.013 1.634,1.75 3.031,1.75 0,0 2.413,0 2.413,0 0,0 -2.218,-3 -2.218,-3"
     stroke="#f3f3f3"
     fill="#f3f3f3"
     stroke-width="1" />
  <path
     id="path19"
     d="m 706.93209,535 c 0,-3.575 -0.181,-5.037 -0.403,-3.25 -0.222,1.787 -0.222,4.713 0,6.5 0.222,1.787 0.403,0.325 0.403,-3.25"
     stroke="#171717"
     fill="#171717"
     stroke-width="1" />
  <path
     id="path20"
     d="m 595.25209,464.595 c 0,-2.124 -5.681,-17.505 -11.857,-18.345 0.667,1.237 2.444,6.075 3.948,10.75 2.426,7.541 3.026,8.535 5.322,8.816 1.799,0.22 2.587,-0.152 2.587,-1.221"
     stroke="#f3f3f3"
     fill="#f3f3f3"
     stroke-width="1" />
  <path
     id="path21"
     d="m 336.58509,578.333 c 1.999,-1.999 0.401,-4.518 -4.083,-6.433 -2.612,-1.116 -5.983,-3.204 -7.49,-4.641 -3.307,-3.154 -4.454,-2.492 -2.423,1.398 3.148,6.029 11.718,11.954 13.996,9.676"
     stroke="#f3f3f3"
     fill="#f3f3f3"
     stroke-width="1" />
  <path
     id="path22"
     d="m 597.12309,545.399 c 4.096,-22.231 4.077,-55.293 -0.042,-74.149 -1.056,-4.832 -1.373,-5.25 -3.988,-5.25 -6.812,4.885 1.514,2.927 0.043,1.429 1.49,0.921 5.116,24.875 5.116,33.795 0,4.634 -1.596,4.921 -2.926,0.526 -1.043,-3.447 -0.933,1.224 0.485,20.45 0.567,7.687 -0.674,23.328 -2.157,27.194 -0.284,0.741 0.113,1.59 0.884,1.886 1.047,0.402 1.701,-1.084 2.585,-5.881"
     stroke="#e7e5e5"
     fill="#e7e5e5"
     stroke-width="1" />
  <path
     id="path23"
     d="m 357.75209,560.468 c 0.55,-0.206 15.4,-2.242 33,-4.524 17.6,-2.282 32.724,-4.535 33.609,-5.006 1.429,-0.761 1.668,-5.806 2.134,-45.148 0.304,-25.628 0.146,-44.697 -0.374,-45.255 -0.494,-0.531 -17.88,-1.98 -38.634,-3.221 -33.506,-2.004 -38.087,-2.092 -40.873,-0.791 0,0 -3.138,1.464 -3.138,1.464 0,0 -0.678,23.257 -0.678,23.257 -0.373,12.791 -0.536,34.731 -0.362,48.756 0,0 0.316,25.5 0.316,25.5 0,0 3.395,1.695 3.395,1.695 1.867,0.932 3.87,2.17 4.45,2.75 1.012,1.012 5.058,1.307 7.155,0.523"
     stroke="#fefefe"
     fill="#fefefe"
     stroke-width="1" />
  <path
     id="path24"
     d="m 390.00209,562.163 c 26.581,-4.209 35.25,-5.922 35.25,-6.961 0,-1.033 -0.939,-1.227 -3.75,-0.775 -2.062,0.332 -18.982,2.623 -37.599,5.091 -18.617,2.468 -34.277,4.75 -34.799,5.073 -1.519,0.939 1.146,3.424 3.52,3.281 1.17,-0.07 17.99,-2.639 37.378,-5.709"
     stroke="#f3f3f3"
     fill="#f3f3f3"
     stroke-width="1" />
  <path
     id="path25"
     d="m 579.55209,576.66 c 0.671,-1.748 -43.953,-20.407 -45.383,-18.977 -0.608,0.608 2.603,2.524 8.814,5.262 9.303,4.101 35.377,15.055 35.837,15.055 0.12,0 0.449,-0.603 0.732,-1.34"
     stroke="#f3f3f3"
     fill="#f3f3f3"
     stroke-width="1" />
  <path
     id="path26"
     d="m 560.97109,591.75 c 2.928,-3.797 7.389,-13.026 6.906,-14.285 -0.687,-1.789 -5.023,-1.937 -6.327,-0.215 -0.934,1.234 -4.298,12.765 -4.298,14.735 0,1.427 2.562,1.266 3.719,-0.235"
     stroke="#f3f3f3"
     fill="#F3F3F3"
     stroke-width="1"
     style="fill:#101010;fill-opacity:1" />
  <path
     id="path27"
     d="m 334.25209,446.342 c 0.825,-0.275 2.138,-0.705 2.917,-0.954 1.011,-0.324 1.109,-0.762 0.342,-1.529 -1.234,-1.234 -8.259,0.653 -8.259,2.219 0,0.973 2.481,1.104 5,0.264"
     stroke="#fefefe"
     fill="#fefefe"
     stroke-width="1" />
  <path
     id="path28"
     d="m 330.71609,581.059 c 0.36,-0.582 0.193,-1.059 -0.37,-1.059 -1.677,0 -8.081,-6.074 -9.696,-9.197 -0.825,-1.595 -2.137,-7.04 -2.917,-12.101 0,0 -1.418,-9.202 -1.418,-9.202 0,0 0.327,11.525 0.327,11.525 0.436,15.396 2.076,18.658 10.265,20.415 1.876,0.403 3.42,0.249 3.809,-0.381"
     stroke="#f3f3f3"
     fill="#f3f3f3"
     stroke-width="1" />
  <path
     id="42"
     d="m 316.01409,511.832 c 0.131,-21.818 0.529,-40.493 0.885,-41.5 0.478,-1.352 0.344,-1.554 -0.511,-0.771 -0.85,0.779 -1.087,11.819 -0.886,41.5 0,0 0.273,40.439 0.273,40.439 0,0 0.239,-39.668 0.239,-39.668"
     stroke="#949596"
     fill="#949596"
     stroke-width="1" />
  <path
     id="path29"
     d="m 535.18209,455.75 c 0.039,-0.962 0.252,-1.75 0.474,-1.75 0.222,0 9.56,-2.512 20.75,-5.581 11.19,-3.069 23.721,-5.931 27.846,-6.36 0,0 7.5,-0.779 7.5,-0.779 0,0 -6.25,-0.14 -6.25,-0.14 -5.963,-0.133 -6.25,-0.255 -6.25,-2.64 0,-2.19 -0.433,-2.5 -2.623,1 -0.126,1.023 -4.725,2.49 -28.377,9.055 -7.425,2.061 -13.786,4.017 -14.136,4.346 -0.35,0.329 -0.27,1.499 0.179,2.599 0.694,1.701 0.827,1.738 0.887,0.25"
     stroke="#e7e5e5"
     fill="#e7e5e5"
     stroke-width="1" />
  <path
     id="path30"
     d="m 700.90709,472.75 c -0.315,-2.337 -0.866,-7.271 -1.226,-10.963 -0.36,-3.692 -1.166,-7.379 -1.792,-8.194 -1.06,-1.381 -17.26,-4.304 -18.268,-3.296 -0.397,0.397 1.111,16.367 2.215,23.453 0,0 0.507,3.25 0.507,3.25 0,0 9.568,0 9.568,0 0,0 9.568,0 9.568,0 0,0 -0.572,-4.25 -0.572,-4.25"
     stroke="#fefefe"
     fill="#FEFEFE"
     stroke-width="1"
     style="fill:#0a0a0a;fill-opacity:1" />
  <path
     id="path31"
     d="m 588.80509,570.56 c 1.869,-2.852 6.395,-15.315 6.426,-17.693 0.024,-1.886 -4.962,-3.252 -5.447,-1.493 -0.171,0.62 -1.222,4.726 -2.335,9.126 -1.113,4.4 -2.34,9.013 -2.727,10.25 -0.986,3.154 1.982,3.016 4.083,-0.19"
     stroke="#f3f3f3"
     fill="#f3f3f3"
     stroke-width="1" />
  <path
     id="path32"
     d="m 689.74309,448.014 c 0.313,-0.506 -1.132,-1.364 -3.211,-1.905 -3.904,-1.016 -23.16,-4.421 -33.721,-9.641 -2.218,-1.677 -18.73,-1.927 -53.309,-0.807 -19.974,0.647 -20.25,0.686 -20.25,2.848 0,2.515 -1.291,2.368 44,5.001 24.264,1.411 57.385,4.019 63.211,4.978 1.491,0.245 2.967,0.032 3.28,-0.474"
     stroke="#fefefe"
     fill="#fefefe"
     stroke-width="1" />
  <path
     id="33"
     d="m 704.92409,511.5 c -0.004,-3.85 -0.186,-5.303 -0.402,-3.228 -0.216,2.075 -0.213,5.225 0.008,7 0.221,1.775 0.398,0.078 0.394,-3.772"
     stroke="#7b7b7b"
     fill="#7b7b7b"
     stroke-width="1" />
  <path
     id="path33"
     d="m 510.75209,454.037 c 9.653,-0.305 17,-0.946 17,-1.484 0,-0.58 -11.069,-0.838 -28.596,-0.665 0,0 -28.597,0.281 -28.597,0.281 0,0 -1.353,-4.834 -1.353,-4.834 -0.744,-2.659 -1.151,-5.047 -0.904,-5.307 0.247,-0.26 2.7,-0.485 5.45,-0.5 3.765,-0.021 5,-0.398 5,-1.528 0,-1.185 -1.323,-1.479 -6.3,-1.4 -3.465,0.055 -6.685,0.505 -7.156,1 -1.021,1.073 2.665,13.572 4.315,14.635 1.188,0.765 12.338,0.711 41.141,-0.198"
     stroke="#171717"
     fill="#171717"
     stroke-width="1" />
  <path
     id="path34"
     d="m 558.25209,437.5 c 0,-2.228 -71.493,-2.197 -74.441,0.032 -1.718,1.299 2.455,1.468 36.25,1.468 33.281,0 38.191,-0.193 38.191,-1.5"
     stroke="#f3f3f3"
     fill="#f3f3f3"
     stroke-width="1" />
  <path
     id="path35"
     d="m 469.61109,454.235 c -1.315,-0.847 -5.369,-13.36 -0.604,-16.485 -0.403,-1.223 -9.755,-2.443 -9.755,-1.272 0,0.323 1.074,2.711 2.387,5.305 1.313,2.594 2.96,6.63 3.659,8.967 0.972,3.251 1.762,4.247 3.362,4.235 1.263,-0.009 1.64,-0.306 0.951,-0.75"
     stroke="#e7e5e5"
     fill="#e7e5e5"
     stroke-width="1" />
  <path
     id="path36"
     d="m 706.90309,496 c 0,-4.675 -0.172,-6.587 -0.383,-4.25 -0.211,2.337 -0.211,6.163 0,8.5 0.211,2.337 0.383,0.425 0.383,-4.25"
     stroke="#7b7b7b"
     fill="#7b7b7b"
     stroke-width="1" />
  <path
     id="path37"
     d="m 575.25209,435.882 c 2.915,-0.515 3.054,-0.64 0.833,-0.75 -1.467,-0.072 -2.867,-0.694 -3.113,-1.382 -0.579,-1.621 -2.002,-0.321 -1.558,1.422 0.24,0.942 1.356,1.149 3.838,0.71"
     stroke="#171717"
     fill="#171717"
     stroke-width="1" />
  <path
     id="path38"
     d="m 465.82009,452.5 c -1.25,-5.435 -6.847,-16.621 -7.826,-15.642 -0.572,0.572 -0.352,1.834 0.569,3.285 0.823,1.296 2.513,4.832 3.756,7.857 2.688,6.542 4.509,8.883 3.501,4.5"
     stroke="#21221f"
     fill="#21221f"
     stroke-width="1" />
  <path
     id="path39"
     d="m 567.85609,437.59 c 1.073,-2.795 -6.329,-13.59 -9.318,-13.59 -1.886,0 -1.262,4.005 1.651,10.59 1.581,3.575 2.441,4.41 4.538,4.41 1.423,0 2.831,-0.635 3.129,-1.41"
     stroke="#fefefe"
     fill="#FEFEFE"
     stroke-width="1"
     style="fill:#0b0b0b;fill-opacity:1" />
  <path
     id="path40"
     d="m 594.63309,545.25 c 0.338,-1.513 0.904,-8.38 1.257,-15.261 0.565,-11.001 0.44,-12.68 -1.04,-13.908 -0.992,-0.823 -2.027,-1.024 -2.521,-0.489 -0.461,0.499 -1.343,6.308 -1.961,12.908 -0.618,6.6 -1.405,13.688 -1.75,15.75 -0.609,3.643 -0.541,3.75 2.387,3.75 2.473,0 3.124,-0.494 3.628,-2.75"
     stroke="#131313"
     fill="#131313"
     stroke-width="1" />
</svg>
