<?xml version="1.0" encoding="UTF-8"?>
<svg xmlns="http://www.w3.org/2000/svg" viewBox="0 0 1024 1024" width="1024" height="1024">
  <title>DreamIT vector (optimized)</title>
  <g>
    <path d="m486.213 589.52c-13.221-3.685-24.654-13.419-30.691-26.132-3.279-6.904-3.694-8.715-4.102-17.879-.711-15.991 3.428-27.351 13.713-37.636 18.256-18.256 48.94-18.606 65.644-.748 2.484 2.655 4.723 4.828 4.976 4.828.253 0 .46-3.359.46-7.465 0-6.357.287-7.618 1.934-8.5 2.628-1.406 3.652-1.307 5.495.536 1.382 1.382 1.571 6.978 1.571 46.378 0 48.881.162 47.544-5.69 46.873-2.723-.312-2.82-.525-3.113-6.822-.167-3.575-.691-6.89-1.166-7.367-.486-.488-2.454.723-4.504 2.773-8.476 8.476-19.051 12.642-31.745 12.505-4.555-.049-10.307-.654-12.782-1.344m26.747-9.766c7.326-2.712 15.443-10.409 19.353-18.352 6.262-12.721 4.802-31.086-3.426-43.078-13.075-19.057-42.426-20.614-58.259-3.09-2.594 2.871-5.876 7.694-7.295 10.719-2.263 4.825-2.578 6.788-2.568 16 .014 12.946 2.259 19.444 9.429 27.289 11.236 12.293 27.293 16.24 42.766 10.512" fill="#000"/>
    <path d="m180.536 588.753c-.91-.909-1.2-17.462-1.2-68.378 0-57.064.215-67.356 1.431-68.365 1.056-.876 9.519-1.106 32.25-.873 0 0 30.819.316 30.819.316 0 0 8.618 3.085 8.618 3.085 25.611 9.169 42.272 30.095 45.914 57.665 4.603 34.844-17.401 67.411-51.492 76.211-7.738 1.997-64.392 2.287-66.34.339m60.299-8.295c22.608-4.028 41.044-21.063 47.079-43.505 2.133-7.933 2.402-23.343.541-31-.735-3.025-2.923-8.875-4.862-13-4.597-9.78-16.616-21.995-26.257-26.684-11.671-5.676-16.12-6.316-43.894-6.316 0 0-25.106 0-25.106 0 0 0 0 61 0 61 0 0 0 61 0 61 0 0 22.25-.035 22.25-.035 14.7-.023 24.964-.519 30.249-1.46" fill="#000"/>
    <path d="m391.881 586.163c-12.146-3.385-25.13-13.914-30.325-24.591-13.946-28.661.759-61.602 31.018-69.484 21.547-5.612 43.958 4.746 53.796 24.865 4.211 8.611 6.489 20.201 4.729 24.063 0 0-1.165 2.558-1.165 2.558 0 0-41.777.261-41.777.261 0 0-41.776.261-41.776.261 0 0 .22 3.748.22 3.748.559 9.527 9.887 21.729 20.834 27.252 5.532 2.791 6.712 3 16.946 3 9.826 0 11.607-.285 16.685-2.665 3.127-1.466 8.239-5.178 11.36-8.25 5.702-5.611 8.032-6.608 10.255-4.385 5.036 5.036-8.538 18.168-23.583 22.815-7.402 2.286-20.072 2.543-27.217.552m49.695-55.499c-2.756-23.269-30.826-37.75-53.473-27.587-11.369 5.102-22.222 19.537-22.222 29.557 0 0 0 2.962 0 2.962 0 0 38.139 0 38.139 0 0 0 38.14 0 38.14 0 0 0-.584-4.932-.584-4.932" fill="#000"/>
    <path d="m304.749 586.515c-.897-.897-1.2-12.359-1.2-45.418 0-24.32.273-44.93.607-45.8.717-1.869 5.455-2.12 7.193-.382.66.66 1.2 3.135 1.2 5.5 0 2.365.271 4.3.603 4.3.332 0 2.851-2.021 5.597-4.49 8.87-7.975 23.001-10.57 35.821-6.58 9.016 2.806 13.197 7.452 9.779 10.87-1.76 1.76-4.206 1.478-9.019-1.038-5.887-3.078-17.155-3.655-23.564-1.207-6.235 2.381-13.467 9.336-16.359 15.731-2.288 5.059-2.368 6.133-2.675 36.192-.202 19.809-.697 31.437-1.372 32.25-1.333 1.607-5.036 1.647-6.611.072" fill="#000"/>
    <path d="m687.685 586.332c-.629-1.654-.999-26.824-.999-67.872 0-71.083-.16-69.112 5.549-68.462 0 0 2.951.336 2.951.336 0 0 0 69 0 69 0 0 0 69 0 69 0 0-3.251.313-3.251.313-2.728.263-3.411-.109-4.25-2.315" fill="#000"/>
    <path d="m550.269 589.872c-.898-.898-1.2-12.604-1.2-46.521 0 0 0-45.322 0-45.322 0 0 2.496-1.137 2.496-1.137 3.461-1.577 6.504 1.195 6.504 5.924 0 0 0 3.434 0 3.434 0 0 3.143-2.644 3.143-2.644 1.728-1.454 5.441-3.843 8.25-5.307 4.519-2.356 6.259-2.667 15.107-2.695 8.974-.029 10.587.256 15.727 2.78 3.445 1.692 7.467 4.801 10.092 7.802 0 0 4.364 4.99 4.364 4.99 0 0 2.689-3.525 2.689-3.525 14.501-19.012 48.925-15.555 59.091 5.934 3.71 7.842 4.495 15.936 4.517 46.546.022 30.306-.172 31.387-5.529 30.777 0 0-2.951-.336-2.951-.336 0 0-.535-33-.535-33-.512-31.562-.635-33.218-2.804-38-4.491-9.901-11.38-14.536-22.701-15.276-8.781-.574-15.894 2.128-20.853 7.922-6.129 7.161-6.607 10.434-6.607 45.269 0 32.776-.108 33.585-4.5 33.585-4.398 0-4.5-.777-4.5-34.162 0-29.621-.139-32.134-2.06-37.268-1.431-3.825-3.454-6.733-6.627-9.526-5.204-4.581-9.446-6.05-17.313-5.995-10.272.072-17.731 4.43-22.589 13.197 0 0-2.911 5.254-2.911 5.254 0 0-0.313 32.974-0.313 32.974-.202 21.284-.689 33.426-1.373 34.25-1.336 1.61-5.037 1.653-6.614.076" fill="#000"/>
    <path d="m747.099 588.753c-.908-.908-1.2-16.711-1.2-65 0 0 0-63.8 0-63.8 0 0-21.066 0-21.066 0-12.609 0-21.842-.415-23-1.035-2.235-1.196-2.568-5.194-.57-6.852.984-.816 14.854-1.06 49.75-.873 0 0 48.386.26 48.386.26 0 0 .336 2.951.336 2.951.59 5.183-.997 5.549-24.027 5.549 0 0-20.809 0-20.809 0 0 0 0 63.8 0 63.8 0 48.289-.292 64.092-1.2 65-.66.66-2.145 1.2-3.3 1.2-1.155 0-2.64-.54-3.3-1.2" fill="#000"/>
  </g>
</svg>
