<?xml version="1.0" encoding="UTF-8"?>
<svg width="1024" height="1024" viewBox="0 0 1024 1024" xmlns="http://www.w3.org/2000/svg">
  <path id="8" d="M 0,512 C 0,512 0,0 0,0 C 0,0 512,0 512,0 C 512,0 1024,0 1024,0 C 1024,0 1024,512 1024,512 C 1024,512 1024,1024 1024,1024 C 1024,1024 512,1024 512,1024 C 512,1024 0,1024 0,1024 C 0,1024 0,512 0,512M 420.217,580.015 C 435.262,575.368 448.836,562.236 443.800,557.200 C 441.577,554.977 439.247,555.974 433.545,561.585 C 430.424,564.657 425.312,568.369 422.185,569.835 C 417.107,572.215 415.326,572.500 405.500,572.500 C 395.266,572.500 394.086,572.291 388.554,569.500 C 377.607,563.977 368.279,551.775 367.720,542.248 C 367.720,542.248 367.500,538.500 367.500,538.500 C 367.500,538.500 409.276,538.239 409.276,538.239 C 409.276,538.239 451.053,537.978 451.053,537.978 C 451.053,537.978 452.218,535.420 452.218,535.420 C 453.978,531.558 451.700,519.968 447.489,511.357 C 429.029,473.608 373.779,477.448 360.021,517.438 C 355.784,529.752 356.753,543.805 362.675,555.976 C 367.870,566.653 380.854,577.182 393,580.567 C 400.145,582.558 412.815,582.301 420.217,580.015M 530.110,579.963 C 537.328,577.531 542.593,574.340 547.527,569.406 C 549.577,567.356 551.545,566.145 552.031,566.633 C 552.506,567.110 553.030,570.425 553.197,574 C 553.490,580.297 553.587,580.510 556.310,580.822 C 562.162,581.493 562,582.830 562,533.949 C 562,494.549 561.811,488.953 560.429,487.571 C 558.586,485.728 557.562,485.629 554.934,487.035 C 553.287,487.917 553,489.178 553,495.535 C 553,499.641 552.793,503 552.540,503 C 552.287,503 550.048,500.827 547.564,498.172 C 530.860,480.314 500.176,480.664 481.920,498.920 C 471.635,509.205 467.496,520.565 468.207,536.556 C 468.615,545.720 469.030,547.531 472.309,554.435 C 478.346,567.148 489.779,576.882 503,580.567 C 510.296,582.600 523.130,582.314 530.110,579.963M 215.540,579.461 C 249.631,570.661 271.635,538.094 267.032,503.250 C 263.390,475.680 246.729,454.754 221.118,445.585 C 221.118,445.585 212.500,442.500 212.500,442.500 C 212.500,442.500 181.681,442.184 181.681,442.184 C 158.950,441.951 150.487,442.181 149.431,443.057 C 148.215,444.066 148,454.358 148,511.422 C 148,562.338 148.290,578.891 149.200,579.800 C 151.148,581.748 207.802,581.458 215.540,579.461M 296.811,579.728 C 297.486,578.915 297.981,567.287 298.183,547.478 C 298.490,517.419 298.570,516.345 300.858,511.286 C 303.750,504.891 310.982,497.936 317.217,495.555 C 323.626,493.107 334.894,493.684 340.781,496.762 C 345.594,499.278 348.040,499.560 349.800,497.800 C 353.218,494.382 349.037,489.736 340.021,486.930 C 327.201,482.940 313.070,485.535 304.200,493.510 C 301.454,495.979 298.935,498 298.603,498 C 298.271,498 298,496.065 298,493.700 C 298,491.335 297.460,488.860 296.800,488.200 C 295.062,486.462 290.324,486.713 289.607,488.582 C 289.273,489.452 289,510.062 289,534.382 C 289,567.441 289.303,578.903 290.200,579.800 C 291.775,581.375 295.478,581.335 296.811,579.728M 593.814,579.724 C 594.498,578.900 594.985,566.758 595.187,545.474 C 595.187,545.474 595.500,512.500 595.500,512.500 C 595.500,512.500 598.411,507.246 598.411,507.246 C 603.269,498.479 610.728,494.121 621,494.049 C 628.867,493.994 633.109,495.463 638.313,500.044 C 641.486,502.837 643.509,505.745 644.940,509.570 C 646.861,514.704 647,517.217 647,546.838 C 647,580.223 647.102,581 651.500,581 C 655.892,581 656,580.191 656,547.415 C 656,512.580 656.478,509.307 662.607,502.146 C 667.566,496.352 674.679,493.650 683.460,494.224 C 694.781,494.964 701.670,499.599 706.161,509.500 C 708.330,514.282 708.453,515.938 708.965,547.500 C 708.965,547.500 709.500,580.500 709.500,580.500 C 709.500,580.500 712.451,580.836 712.451,580.836 C 717.808,581.446 718.002,580.365 717.980,550.059 C 717.958,519.449 717.173,511.355 713.463,503.513 C 703.297,482.024 668.873,478.567 654.372,497.579 C 654.372,497.579 651.683,501.104 651.683,501.104 C 651.683,501.104 647.319,496.114 647.319,496.114 C 644.694,493.113 640.672,490.004 637.227,488.312 C 632.087,485.788 630.474,485.503 621.500,485.532 C 612.652,485.560 610.912,485.871 606.393,488.227 C 603.584,489.691 599.871,492.080 598.143,493.534 C 598.143,493.534 595,496.178 595,496.178 C 595,496.178 595,492.744 595,492.744 C 595,488.015 591.957,485.243 588.496,486.820 C 588.496,486.820 586,487.957 586,487.957 C 586,487.957 586,533.279 586,533.279 C 586,567.196 586.302,578.902 587.200,579.800 C 588.777,581.377 592.478,581.334 593.814,579.724M 754.500,511.500 C 754.500,511.500 754.500,442.500 754.500,442.500 C 754.500,442.500 751.549,442.164 751.549,442.164 C 745.840,441.514 746,439.543 746,510.626 C 746,551.674 746.370,576.844 746.999,578.498 C 747.838,580.704 748.521,581.076 751.249,580.813 C 751.249,580.813 754.500,580.500 754.500,580.500 C 754.500,580.500 754.500,511.500 754.500,511.500M 829.800,579.800 C 830.708,578.892 831,563.089 831,514.800 C 831,514.800 831,451 831,451 C 831,451 851.809,451 851.809,451 C 874.839,451 876.426,450.634 875.836,445.451 C 875.836,445.451 875.500,442.500 875.500,442.500 C 875.500,442.500 827.114,442.240 827.114,442.240 C 792.218,442.053 778.348,442.297 777.364,443.113 C 775.366,444.771 775.699,448.769 777.934,449.965 C 779.092,450.585 788.325,451 800.934,451 C 800.934,451 822,451 822,451 C 822,451 822,514.800 822,514.800 C 822,563.089 822.292,578.892 823.200,579.800 C 823.860,580.460 825.345,581 826.500,581 C 827.655,581 829.140,580.460 829.800,579.800M 703.800,464.800 C 704.460,464.140 705.010,462.228 705.022,460.550 C 705.060,455.304 709.962,451 715.899,451 C 719.628,451 721.638,448.060 720,445 C 719.249,443.597 717.907,443 715.500,443 C 710.549,443 705,437.963 705,433.468 C 705,428.419 700.736,425.121 698.253,428.250 C 697.707,428.938 696.972,431.109 696.618,433.075 C 695.793,437.665 691.150,442.127 686.396,442.901 C 679.423,444.036 679.216,449.917 686.109,451.065 C 692.211,452.081 696,455.262 696,459.369 C 696,460.194 696.439,462.024 696.975,463.435 C 698.035,466.223 701.654,466.946 703.800,464.800" stroke="#FFFFFF" fill="#FFFFFF" stroke-width="1" />
  <path id="12" d="M 503,580.567 C 489.779,576.882 478.346,567.148 472.309,554.435 C 469.030,547.531 468.615,545.720 468.207,536.556 C 467.496,520.565 471.635,509.205 481.920,498.920 C 500.176,480.664 530.860,480.314 547.564,498.172 C 550.048,500.827 552.287,503 552.540,503 C 552.793,503 553,499.641 553,495.535 C 553,489.178 553.287,487.917 554.934,487.035 C 557.562,485.629 558.586,485.728 560.429,487.571 C 561.811,488.953 562,494.549 562,533.949 C 562,582.830 562.162,581.493 556.310,580.822 C 553.587,580.510 553.490,580.297 553.197,574 C 553.030,570.425 552.506,567.110 552.031,566.633 C 551.545,566.145 549.577,567.356 547.527,569.406 C 539.051,577.882 528.476,582.048 515.782,581.911 C 511.227,581.862 505.475,581.257 503,580.567M 529.747,570.801 C 537.073,568.089 545.190,560.392 549.100,552.449 C 555.362,539.728 553.902,521.363 545.674,509.371 C 532.599,490.314 503.248,488.757 487.415,506.281 C 484.821,509.152 481.539,513.975 480.120,517 C 477.857,521.825 477.542,523.788 477.552,533 C 477.566,545.946 479.811,552.444 486.981,560.289 C 498.217,572.582 514.274,576.529 529.747,570.801" stroke="#000000" fill="#000000" stroke-width="1" />
  <path id="8" d="M 508,572.653 C 495.849,569.958 484.265,560.326 479.852,549.247 C 477.981,544.549 477.561,541.583 477.552,533 C 477.542,523.788 477.857,521.825 480.120,517 C 490.515,494.833 517.546,487.086 536.942,500.713 C 547.982,508.470 553.647,521.518 552.756,537.141 C 552.337,544.482 551.693,547.181 549.100,552.449 C 541.517,567.852 524.368,576.283 508,572.653" stroke="#FFFFFF" fill="#FFFFFF" stroke-width="1" />
  <path id="12" d="M 149.200,579.800 C 148.290,578.891 148,562.338 148,511.422 C 148,454.358 148.215,444.066 149.431,443.057 C 150.487,442.181 158.950,441.951 181.681,442.184 C 181.681,442.184 212.500,442.500 212.500,442.500 C 212.500,442.500 221.118,445.585 221.118,445.585 C 246.729,454.754 263.390,475.680 267.032,503.250 C 271.635,538.094 249.631,570.661 215.540,579.461 C 207.802,581.458 151.148,581.748 149.200,579.800M 209.499,571.505 C 232.107,567.477 250.543,550.442 256.578,528 C 258.711,520.067 258.980,504.657 257.119,497 C 256.384,493.975 254.196,488.125 252.257,484 C 247.660,474.220 235.641,462.005 226,457.316 C 214.329,451.640 209.880,451 182.106,451 C 182.106,451 157,451 157,451 C 157,451 157,512 157,512 C 157,512 157,573 157,573 C 157,573 179.250,572.965 179.250,572.965 C 193.950,572.942 204.214,572.446 209.499,571.505" stroke="#000000" fill="#000000" stroke-width="1" />
  <path id="12" d="M 393,580.567 C 380.854,577.182 367.870,566.653 362.675,555.976 C 348.729,527.315 363.434,494.374 393.693,486.492 C 415.240,480.880 437.651,491.238 447.489,511.357 C 451.700,519.968 453.978,531.558 452.218,535.420 C 452.218,535.420 451.053,537.978 451.053,537.978 C 451.053,537.978 409.276,538.239 409.276,538.239 C 409.276,538.239 367.500,538.500 367.500,538.500 C 367.500,538.500 367.720,542.248 367.720,542.248 C 368.279,551.775 377.607,563.977 388.554,569.500 C 394.086,572.291 395.266,572.500 405.500,572.500 C 415.326,572.500 417.107,572.215 422.185,569.835 C 425.312,568.369 430.424,564.657 433.545,561.585 C 439.247,555.974 441.577,554.977 443.800,557.200 C 448.836,562.236 435.262,575.368 420.217,580.015 C 412.815,582.301 400.145,582.558 393,580.567M 442.695,525.068 C 439.939,501.799 411.869,487.318 389.222,497.481 C 377.853,502.583 367,517.018 367,527.038 C 367,527.038 367,530 367,530 C 367,530 405.139,530 405.139,530 C 405.139,530 443.279,530 443.279,530 C 443.279,530 442.695,525.068 442.695,525.068" stroke="#000000" fill="#000000" stroke-width="1" />
  <path id="8" d="M 367,527.038 C 367,517.018 377.853,502.583 389.222,497.481 C 411.869,487.318 439.939,501.799 442.695,525.068 C 442.695,525.068 443.279,530 443.279,530 C 443.279,530 405.139,530 405.139,530 C 405.139,530 367,530 367,530 C 367,530 367,527.038 367,527.038" stroke="#FFFFFF" fill="#FFFFFF" stroke-width="1" />
  <path id="12" d="M 290.200,579.800 C 289.303,578.903 289,567.441 289,534.382 C 289,510.062 289.273,489.452 289.607,488.582 C 290.324,486.713 295.062,486.462 296.800,488.200 C 297.460,488.860 298,491.335 298,493.700 C 298,496.065 298.271,498 298.603,498 C 298.935,498 301.454,495.979 304.200,493.510 C 313.070,485.535 327.201,482.940 340.021,486.930 C 349.037,489.736 353.218,494.382 349.800,497.800 C 348.040,499.560 345.594,499.278 340.781,496.762 C 334.894,493.684 323.626,493.107 317.217,495.555 C 310.982,497.936 303.750,504.891 300.858,511.286 C 298.570,516.345 298.490,517.419 298.183,547.478 C 297.981,567.287 297.486,578.915 296.811,579.728 C 295.478,581.335 291.775,581.375 290.200,579.800" stroke="#000000" fill="#000000" stroke-width="1" />
  <path id="12" d="M 746.999,578.498 C 746.370,576.844 746,551.674 746,510.626 C 746,439.543 745.840,441.514 751.549,442.164 C 751.549,442.164 754.500,442.500 754.500,442.500 C 754.500,442.500 754.500,511.500 754.500,511.500 C 754.500,511.500 754.500,580.500 754.500,580.500 C 754.500,580.500 751.249,580.813 751.249,580.813 C 748.521,581.076 747.838,580.704 746.999,578.498" stroke="#000000" fill="#000000" stroke-width="1" />
  <path id="12" d="M 587.200,579.800 C 586.302,578.902 586,567.196 586,533.279 C 586,533.279 586,487.957 586,487.957 C 586,487.957 588.496,486.820 588.496,486.820 C 591.957,485.243 595,488.015 595,492.744 C 595,492.744 595,496.178 595,496.178 C 595,496.178 598.143,493.534 598.143,493.534 C 599.871,492.080 603.584,489.691 606.393,488.227 C 610.912,485.871 612.652,485.560 621.500,485.532 C 630.474,485.503 632.087,485.788 637.227,488.312 C 640.672,490.004 644.694,493.113 647.319,496.114 C 647.319,496.114 651.683,501.104 651.683,501.104 C 651.683,501.104 654.372,497.579 654.372,497.579 C 668.873,478.567 703.297,482.024 713.463,503.513 C 717.173,511.355 717.958,519.449 717.980,550.059 C 718.002,580.365 717.808,581.446 712.451,580.836 C 712.451,580.836 709.500,580.500 709.500,580.500 C 709.500,580.500 708.965,547.500 708.965,547.500 C 708.453,515.938 708.330,514.282 706.161,509.500 C 701.670,499.599 694.781,494.964 683.460,494.224 C 674.679,493.650 667.566,496.352 662.607,502.146 C 656.478,509.307 656,512.580 656,547.415 C 656,580.191 655.892,581 651.500,581 C 647.102,581 647,580.223 647,546.838 C 647,517.217 646.861,514.704 644.940,509.570 C 643.509,505.745 641.486,502.837 638.313,500.044 C 633.109,495.463 628.867,493.994 621,494.049 C 610.728,494.121 603.269,498.479 598.411,507.246 C 598.411,507.246 595.500,512.500 595.500,512.500 C 595.500,512.500 595.187,545.474 595.187,545.474 C 594.985,566.758 594.498,578.900 593.814,579.724 C 592.478,581.334 588.777,581.377 587.200,579.800" stroke="#000000" fill="#000000" stroke-width="1" />
  <path id="12" d="M 823.200,579.800 C 822.292,578.892 822,563.089 822,514.800 C 822,514.800 822,451 822,451 C 822,451 800.934,451 800.934,451 C 788.325,451 779.092,450.585 777.934,449.965 C 775.699,448.769 775.366,444.771 777.364,443.113 C 778.348,442.297 792.218,442.053 827.114,442.240 C 827.114,442.240 875.500,442.500 875.500,442.500 C 875.500,442.500 875.836,445.451 875.836,445.451 C 876.426,450.634 874.839,451 851.809,451 C 851.809,451 831,451 831,451 C 831,451 831,514.800 831,514.800 C 831,563.089 830.708,578.892 829.800,579.800 C 829.140,580.460 827.655,581 826.500,581 C 825.345,581 823.860,580.460 823.200,579.800" stroke="#000000" fill="#000000" stroke-width="1" />
  <path id="8" d="M 157,512 C 157,512 157,451 157,451 C 157,451 182.106,451 182.106,451 C 209.880,451 214.329,451.640 226,457.316 C 235.641,462.005 247.660,474.220 252.257,484 C 257.023,494.141 258.468,500.737 258.391,512 C 258.228,535.868 246.179,555.868 225.913,565.910 C 214.118,571.755 206.395,572.922 179.250,572.965 C 179.250,572.965 157,573 157,573 C 157,573 157,512 157,512" stroke="#FFFFFF" fill="#FFFFFF" stroke-width="1" />
  <path id="12" d="M 696.975,463.435 C 696.439,462.024 696,460.194 696,459.369 C 696,455.262 692.211,452.081 686.109,451.065 C 679.216,449.917 679.423,444.036 686.396,442.901 C 691.150,442.127 695.793,437.665 696.618,433.075 C 696.972,431.109 697.707,428.938 698.253,428.250 C 700.736,425.121 705,428.419 705,433.468 C 705,437.963 710.549,443 715.500,443 C 717.907,443 719.249,443.597 720,445 C 721.638,448.060 719.628,451 715.899,451 C 709.962,451 705.060,455.304 705.022,460.550 C 704.995,464.201 703.429,466 700.275,466 C 698.700,466 697.636,465.173 696.975,463.435M 702.531,445.103 C 701.156,443.728 700.830,443.742 699.336,445.236 C 697.949,446.623 697.889,447.162 698.979,448.475 C 700.165,449.904 700.461,449.892 702.174,448.342 C 703.869,446.808 703.906,446.478 702.531,445.103" stroke="#000000" fill="#000000" stroke-width="1" />
  <path id="8" d="M 698.979,448.475 C 697.889,447.162 697.949,446.623 699.336,445.236 C 700.830,443.742 701.156,443.728 702.531,445.103 C 703.906,446.478 703.869,446.808 702.174,448.342 C 700.461,449.892 700.165,449.904 698.979,448.475" stroke="#FFFFFF" fill="#FFFFFF" stroke-width="1" />
</svg>
